%TF.GenerationSoftware,KiCad,Pcbnew,9.0.4*%
%TF.CreationDate,2026-09-27T17:38:48-05:00*%
%TF.ProjectId,Simple_DAC_implementation,53696d70-6c65-45f4-9441-435f696d706c,rev?*%
%TF.SameCoordinates,Original*%
%TF.FileFunction,Copper,L1,Top*%
%TF.FilePolarity,Positive*%
%FSLAX46Y46*%
G04 Gerber Fmt 4.6, Leading zero omitted, Abs format (unit mm)*
G04 Created by KiCad (PCBNEW 9.0.4) date 2026-09-27 17:38:48*
%MOMM*%
%LPD*%
G01*
G04 APERTURE LIST*
G04 Aperture macros list*
%AMRoundRect*
0 Rectangle with rounded corners*
0 $1 Rounding radius*
0 $2 $3 $4 $5 $6 $7 $8 $9 X,Y pos of 4 corners*
0 Add a 4 corners polygon primitive as box body*
4,1,4,$2,$3,$4,$5,$6,$7,$8,$9,$2,$3,0*
0 Add four circle primitives for the rounded corners*
1,1,$1+$1,$2,$3*
1,1,$1+$1,$4,$5*
1,1,$1+$1,$6,$7*
1,1,$1+$1,$8,$9*
0 Add four rect primitives between the rounded corners*
20,1,$1+$1,$2,$3,$4,$5,0*
20,1,$1+$1,$4,$5,$6,$7,0*
20,1,$1+$1,$6,$7,$8,$9,0*
20,1,$1+$1,$8,$9,$2,$3,0*%
G04 Aperture macros list end*
%TA.AperFunction,SMDPad,CuDef*%
%ADD10RoundRect,0.150000X0.150000X-1.100000X0.150000X1.100000X-0.150000X1.100000X-0.150000X-1.100000X0*%
%TD*%
%TA.AperFunction,ComponentPad*%
%ADD11R,1.700000X1.700000*%
%TD*%
%TA.AperFunction,ComponentPad*%
%ADD12C,1.700000*%
%TD*%
%TA.AperFunction,ComponentPad*%
%ADD13C,10.000000*%
%TD*%
%TA.AperFunction,SMDPad,CuDef*%
%ADD14RoundRect,0.250000X-0.412500X-0.650000X0.412500X-0.650000X0.412500X0.650000X-0.412500X0.650000X0*%
%TD*%
%TA.AperFunction,SMDPad,CuDef*%
%ADD15R,5.080000X1.500000*%
%TD*%
%TA.AperFunction,SMDPad,CuDef*%
%ADD16RoundRect,0.250000X-0.625000X0.400000X-0.625000X-0.400000X0.625000X-0.400000X0.625000X0.400000X0*%
%TD*%
%TA.AperFunction,SMDPad,CuDef*%
%ADD17RoundRect,0.250000X0.625000X-0.400000X0.625000X0.400000X-0.625000X0.400000X-0.625000X-0.400000X0*%
%TD*%
%TA.AperFunction,SMDPad,CuDef*%
%ADD18RoundRect,0.250000X-0.400000X-0.625000X0.400000X-0.625000X0.400000X0.625000X-0.400000X0.625000X0*%
%TD*%
%TA.AperFunction,SMDPad,CuDef*%
%ADD19R,1.714000X0.304800*%
%TD*%
%TA.AperFunction,SMDPad,CuDef*%
%ADD20R,1.714000X0.327399*%
%TD*%
%TA.AperFunction,SMDPad,CuDef*%
%ADD21RoundRect,0.100000X-0.587500X-0.100000X0.587500X-0.100000X0.587500X0.100000X-0.587500X0.100000X0*%
%TD*%
%TA.AperFunction,ComponentPad*%
%ADD22RoundRect,0.250000X-1.050000X-1.050000X1.050000X-1.050000X1.050000X1.050000X-1.050000X1.050000X0*%
%TD*%
%TA.AperFunction,ComponentPad*%
%ADD23C,2.600000*%
%TD*%
%TA.AperFunction,ComponentPad*%
%ADD24R,1.800000X1.800000*%
%TD*%
%TA.AperFunction,ComponentPad*%
%ADD25C,1.800000*%
%TD*%
%TA.AperFunction,SMDPad,CuDef*%
%ADD26RoundRect,0.250000X-0.650000X0.412500X-0.650000X-0.412500X0.650000X-0.412500X0.650000X0.412500X0*%
%TD*%
%TA.AperFunction,ViaPad*%
%ADD27C,0.600000*%
%TD*%
%TA.AperFunction,Conductor*%
%ADD28C,0.750000*%
%TD*%
%TA.AperFunction,Conductor*%
%ADD29C,0.300000*%
%TD*%
%TA.AperFunction,Conductor*%
%ADD30C,0.200000*%
%TD*%
%TA.AperFunction,Conductor*%
%ADD31C,0.400000*%
%TD*%
G04 APERTURE END LIST*
D10*
%TO.P,U2,1,TIM16_CH1 (PB8)*%
%TO.N,Net-(D1-A)*%
X92190000Y-76275000D03*
%TO.P,U2,2,VDD*%
%TO.N,+3.3V*%
X93460000Y-76275000D03*
%TO.P,U2,3,VSS*%
%TO.N,GND*%
X94730000Y-76275000D03*
%TO.P,U2,4,SPI1_SCK (PA1)*%
%TO.N,/SCLK*%
X96000000Y-76275000D03*
%TO.P,U2,5,PA8/PA9/PA11/PB0/PB1*%
%TO.N,/SYNC*%
X96000000Y-70775000D03*
%TO.P,U2,6,SPI1_MOSI (PA12)*%
%TO.N,/MOSI*%
X94730000Y-70775000D03*
%TO.P,U2,7,SYS_SWDIO*%
%TO.N,/SWDIO*%
X93460000Y-70775000D03*
%TO.P,U2,8,SYS_SWCLK (PA14)*%
%TO.N,/SWCLK*%
X92190000Y-70775000D03*
%TD*%
D11*
%TO.P,J3,1,Pin_1*%
%TO.N,GND*%
X88880000Y-52500000D03*
D12*
%TO.P,J3,2,Pin_2*%
%TO.N,/SWCLK*%
X91420000Y-52500000D03*
%TO.P,J3,3,Pin_3*%
%TO.N,/SWDIO*%
X93959999Y-52500000D03*
%TO.P,J3,4,Pin_4*%
%TO.N,+3.3V*%
X96500000Y-52500000D03*
%TD*%
D13*
%TO.P,H4,1,1*%
%TO.N,GND*%
X156500000Y-91000000D03*
%TD*%
%TO.P,H3,1,1*%
%TO.N,GND*%
X81000000Y-91500000D03*
%TD*%
%TO.P,H2,1,1*%
%TO.N,GND*%
X80500000Y-53500000D03*
%TD*%
D14*
%TO.P,C5,2*%
%TO.N,GND*%
X154137500Y-70000000D03*
%TO.P,C5,1*%
%TO.N,+10V*%
X151012500Y-70000000D03*
%TD*%
D15*
%TO.P,J2,1,In*%
%TO.N,/Coax*%
X161000000Y-59750000D03*
%TO.P,J2,2,Ext*%
%TO.N,GND*%
X161000000Y-55500000D03*
X161000000Y-64000000D03*
%TD*%
D14*
%TO.P,C6,2*%
%TO.N,GND*%
X154200000Y-67000000D03*
%TO.P,C6,1*%
%TO.N,+10V*%
X151075000Y-67000000D03*
%TD*%
D16*
%TO.P,R5,2*%
%TO.N,/Vin-*%
X140409000Y-72000000D03*
%TO.P,R5,1*%
%TO.N,/Out1*%
X140409000Y-68899998D03*
%TD*%
%TO.P,R9,2*%
%TO.N,Net-(U4-IN2+)*%
X154500000Y-75550001D03*
%TO.P,R9,1*%
%TO.N,+10V*%
X154500000Y-72449999D03*
%TD*%
%TO.P,R8,2*%
%TO.N,GND*%
X154500000Y-81550001D03*
%TO.P,R8,1*%
%TO.N,Net-(U4-IN2+)*%
X154500000Y-78449999D03*
%TD*%
D17*
%TO.P,R6,2*%
%TO.N,GND*%
X135118000Y-68899998D03*
%TO.P,R6,1*%
%TO.N,/Vin-*%
X135118000Y-72000000D03*
%TD*%
D18*
%TO.P,R10,1*%
%TO.N,/Out1*%
X140449999Y-59750000D03*
%TO.P,R10,2*%
%TO.N,/Coax*%
X143550001Y-59750000D03*
%TD*%
D19*
%TO.P,U4,8,VCC+*%
%TO.N,+10V*%
X150915000Y-72042001D03*
%TO.P,U4,7,OUT2*%
%TO.N,Net-(U4-IN2-)*%
X150915000Y-72691999D03*
%TO.P,U4,6,IN2-*%
X150915000Y-73342001D03*
%TO.P,U4,5,IN2+*%
%TO.N,Net-(U4-IN2+)*%
X150915000Y-73991999D03*
%TO.P,U4,4,VCC-*%
%TO.N,GND*%
X144629000Y-73991999D03*
D20*
%TO.P,U4,3,IN1+*%
%TO.N,/Vin+*%
X144629000Y-73353300D03*
D19*
%TO.P,U4,2,IN1-*%
%TO.N,/Vin-*%
X144629000Y-72691999D03*
%TO.P,U4,1,OUT1*%
%TO.N,/Out1*%
X144629000Y-72042001D03*
%TD*%
D18*
%TO.P,R1,2*%
%TO.N,/Vin+*%
X120115000Y-73254000D03*
%TO.P,R1,1*%
%TO.N,Net-(U1-VOUT)*%
X117015000Y-73254000D03*
%TD*%
D21*
%TO.P,U1,1,~{SYNC}*%
%TO.N,Net-(U1-~{SYNC})*%
X111003500Y-72404500D03*
%TO.P,U1,2,SCLK*%
%TO.N,Net-(U1-SCLK)*%
X111003500Y-73054500D03*
%TO.P,U1,3,DIN*%
%TO.N,Net-(U1-DIN)*%
X111003500Y-73704500D03*
%TO.P,U1,4,AVDD/AVREF*%
%TO.N,+3.3V*%
X113628500Y-73704500D03*
%TO.P,U1,5,GND*%
%TO.N,GND*%
X113628500Y-73054500D03*
%TO.P,U1,6,VOUT*%
%TO.N,Net-(U1-VOUT)*%
X113628500Y-72404500D03*
%TD*%
D17*
%TO.P,R7,1*%
%TO.N,Net-(D1-K)*%
X97000000Y-95000000D03*
%TO.P,R7,2*%
%TO.N,GND*%
X97000000Y-91899998D03*
%TD*%
D18*
%TO.P,R4,1*%
%TO.N,/MOSI*%
X102021000Y-66000000D03*
%TO.P,R4,2*%
%TO.N,Net-(U1-DIN)*%
X105121000Y-66000000D03*
%TD*%
%TO.P,R3,1*%
%TO.N,/SYNC*%
X102081000Y-69376000D03*
%TO.P,R3,2*%
%TO.N,Net-(U1-~{SYNC})*%
X105181000Y-69376000D03*
%TD*%
%TO.P,R2,1*%
%TO.N,/SCLK*%
X102021000Y-73443000D03*
%TO.P,R2,2*%
%TO.N,Net-(U1-SCLK)*%
X105121000Y-73443000D03*
%TD*%
D22*
%TO.P,J1,1,Pin_1*%
%TO.N,+3.3V*%
X116500000Y-91672500D03*
D23*
%TO.P,J1,2,Pin_2*%
%TO.N,GND*%
X121579999Y-91672500D03*
%TO.P,J1,3,Pin_3*%
X126660000Y-91672500D03*
%TO.P,J1,4,Pin_4*%
%TO.N,+10V*%
X131740000Y-91672500D03*
%TD*%
D24*
%TO.P,D1,1,K*%
%TO.N,Net-(D1-K)*%
X91500000Y-95000000D03*
D25*
%TO.P,D1,2,A*%
%TO.N,Net-(D1-A)*%
X91500000Y-92460000D03*
%TD*%
D26*
%TO.P,C7,1*%
%TO.N,/Vin+*%
X123000000Y-73375000D03*
%TO.P,C7,2*%
%TO.N,GND*%
X123000000Y-76500000D03*
%TD*%
D14*
%TO.P,C4,1*%
%TO.N,+3.3V*%
X113437500Y-80000000D03*
%TO.P,C4,2*%
%TO.N,GND*%
X116562500Y-80000000D03*
%TD*%
%TO.P,C3,1*%
%TO.N,+3.3V*%
X113500000Y-77000000D03*
%TO.P,C3,2*%
%TO.N,GND*%
X116625000Y-77000000D03*
%TD*%
%TO.P,C2,1*%
%TO.N,+3.3V*%
X93437500Y-82500000D03*
%TO.P,C2,2*%
%TO.N,GND*%
X96562500Y-82500000D03*
%TD*%
%TO.P,C1,1*%
%TO.N,+3.3V*%
X93437500Y-79500000D03*
%TO.P,C1,2*%
%TO.N,GND*%
X96562500Y-79500000D03*
%TD*%
D27*
%TO.N,GND*%
X162500000Y-55500000D03*
X159500000Y-55500000D03*
X162500000Y-64000000D03*
X159500000Y-64000000D03*
X157500000Y-64000000D03*
X157500000Y-55500000D03*
X161000000Y-53500000D03*
X161000000Y-57000000D03*
X161000000Y-66000000D03*
X161000000Y-62500000D03*
X161000000Y-64000000D03*
X161000000Y-55500000D03*
X150000000Y-87500000D03*
X152500000Y-85000000D03*
X152500000Y-82500000D03*
X150000000Y-85000000D03*
X147500000Y-87500000D03*
X145000000Y-87500000D03*
X147500000Y-85000000D03*
X150000000Y-82500000D03*
X150000000Y-77500000D03*
X150000000Y-80000000D03*
X147500000Y-82500000D03*
X145000000Y-85000000D03*
X142500000Y-87500000D03*
X147500000Y-90000000D03*
X145000000Y-90000000D03*
X142500000Y-90000000D03*
X140000000Y-90000000D03*
X142500000Y-80000000D03*
X140000000Y-80000000D03*
X140000000Y-82500000D03*
X137500000Y-85000000D03*
X137500000Y-82500000D03*
X137500000Y-80000000D03*
X135000000Y-80000000D03*
X135000000Y-75000000D03*
X137500000Y-75000000D03*
X140000000Y-75000000D03*
X142500000Y-75000000D03*
X145000000Y-77500000D03*
X142500000Y-77500000D03*
X140000000Y-77500000D03*
X137500000Y-77500000D03*
X135000000Y-77500000D03*
X132500000Y-77500000D03*
X130000000Y-77500000D03*
X127500000Y-77500000D03*
X135000000Y-87500000D03*
X135000000Y-85000000D03*
X135000000Y-82500000D03*
X132500000Y-82500000D03*
X132500000Y-85000000D03*
X130000000Y-85000000D03*
X130000000Y-82500000D03*
X130000000Y-80000000D03*
X132500000Y-80000000D03*
X127500000Y-80000000D03*
X127500000Y-82500000D03*
X127500000Y-85000000D03*
X125000000Y-85000000D03*
X125000000Y-82500000D03*
X125000000Y-80000000D03*
X122500000Y-80000000D03*
X120000000Y-80000000D03*
X122500000Y-82500000D03*
X122500000Y-85000000D03*
X120000000Y-85000000D03*
X120000000Y-82500000D03*
X117500000Y-82500000D03*
X110000000Y-82500000D03*
X110000000Y-80000000D03*
X110000000Y-77500000D03*
X107500000Y-77500000D03*
X105000000Y-77500000D03*
X107500000Y-80000000D03*
X107500000Y-82500000D03*
X105000000Y-82500000D03*
X105000000Y-80000000D03*
X102500000Y-80000000D03*
X102500000Y-82500000D03*
X100000000Y-82500000D03*
X100000000Y-80000000D03*
X102500000Y-77500000D03*
X100000000Y-77500000D03*
X97500000Y-77500000D03*
X100000000Y-75000000D03*
X97500000Y-75000000D03*
X82500000Y-60000000D03*
X82500000Y-62500000D03*
X82500000Y-65000000D03*
X82500000Y-67500000D03*
X82500000Y-70000000D03*
X82500000Y-72500000D03*
X82500000Y-75000000D03*
X82500000Y-77500000D03*
X82500000Y-80000000D03*
X82500000Y-82500000D03*
X82500000Y-85000000D03*
X90000000Y-75000000D03*
X87500000Y-75000000D03*
X90000000Y-77500000D03*
X87500000Y-77500000D03*
X87500000Y-80000000D03*
X90000000Y-80000000D03*
X90000000Y-82500000D03*
X87500000Y-82500000D03*
X87500000Y-85000000D03*
X90000000Y-85000000D03*
X90000000Y-87500000D03*
X90000000Y-90000000D03*
X87500000Y-90000000D03*
X87500000Y-87500000D03*
X85000000Y-85000000D03*
X85000000Y-82500000D03*
X85000000Y-80000000D03*
X85000000Y-77500000D03*
X85000000Y-72500000D03*
X85000000Y-75000000D03*
X85000000Y-70000000D03*
X85000000Y-67500000D03*
X85000000Y-65000000D03*
X85000000Y-62500000D03*
X85000000Y-60000000D03*
X85000000Y-57500000D03*
X90000000Y-70000000D03*
X90000000Y-67500000D03*
X90000000Y-65000000D03*
X90000000Y-62500000D03*
X90000000Y-60000000D03*
X90000000Y-57500000D03*
X90000000Y-55000000D03*
X95000000Y-57500000D03*
X95000000Y-65000000D03*
X95000000Y-62500000D03*
X95000000Y-60000000D03*
X97500000Y-60000000D03*
X97500000Y-62500000D03*
X97500000Y-65000000D03*
X100000000Y-65000000D03*
X100000000Y-62500000D03*
X102500000Y-62500000D03*
X105000000Y-62500000D03*
X107500000Y-62500000D03*
X107500000Y-65000000D03*
X110000000Y-65000000D03*
X110000000Y-62500000D03*
X112500000Y-62500000D03*
X112500000Y-65000000D03*
X112500000Y-67500000D03*
X115000000Y-67500000D03*
X115000000Y-70000000D03*
X117500000Y-70000000D03*
X117500000Y-67500000D03*
X120000000Y-67500000D03*
X120000000Y-70000000D03*
X122500000Y-70000000D03*
X122500000Y-67500000D03*
X125000000Y-67500000D03*
X125000000Y-70000000D03*
X127500000Y-70000000D03*
X127500000Y-67500000D03*
X130000000Y-67500000D03*
X132500000Y-67500000D03*
X135000000Y-67500000D03*
X137500000Y-65000000D03*
X135000000Y-65000000D03*
X132500000Y-65000000D03*
X130000000Y-65000000D03*
X127500000Y-65000000D03*
X125000000Y-65000000D03*
X122500000Y-65000000D03*
X120000000Y-65000000D03*
X117500000Y-65000000D03*
X115000000Y-65000000D03*
X137500000Y-62500000D03*
X137500000Y-60000000D03*
X135000000Y-60000000D03*
X135000000Y-62500000D03*
X132500000Y-60000000D03*
X130000000Y-62500000D03*
X132500000Y-62500000D03*
X130000000Y-60000000D03*
X127500000Y-62500000D03*
X125000000Y-60000000D03*
X125000000Y-62500000D03*
X127500000Y-60000000D03*
X122500000Y-60000000D03*
X122500000Y-62500000D03*
X120000000Y-62500000D03*
X120000000Y-60000000D03*
X117500000Y-60000000D03*
X117500000Y-62500000D03*
X115000000Y-62500000D03*
X115000000Y-60000000D03*
X110000000Y-60000000D03*
X112500000Y-60000000D03*
X107500000Y-60000000D03*
X105000000Y-60000000D03*
X102500000Y-60000000D03*
X100000000Y-60000000D03*
X154499999Y-51500000D03*
X154500000Y-50500000D03*
X154500000Y-52500001D03*
X151500001Y-49500000D03*
X152500000Y-52500000D03*
X152499999Y-50500000D03*
X151500000Y-48500000D03*
X153500000Y-50000000D03*
X154500000Y-48499999D03*
X153500000Y-53000000D03*
X151500000Y-51500000D03*
X153500000Y-49000000D03*
X154500000Y-49500000D03*
X153500000Y-52000000D03*
X152499999Y-49500000D03*
X151500000Y-52500000D03*
X153500000Y-51000000D03*
X152500000Y-48500000D03*
X152500000Y-51500000D03*
X151500000Y-50500000D03*
X147500001Y-50000000D03*
X147500000Y-51000000D03*
X147500000Y-48999999D03*
X150499999Y-52000000D03*
X149500000Y-49000000D03*
X149500001Y-51000000D03*
X150500000Y-53000000D03*
X148500000Y-51500000D03*
X147500000Y-53000001D03*
X148500000Y-48500000D03*
X150500000Y-50000000D03*
X148500000Y-52500000D03*
X147500000Y-52000000D03*
X148500000Y-49500000D03*
X149500001Y-52000000D03*
X150500000Y-49000000D03*
X148500000Y-50500000D03*
X149500000Y-53000000D03*
X149500000Y-50000000D03*
X150500000Y-51000000D03*
X161499999Y-72500000D03*
X161500000Y-71500000D03*
X161500000Y-73500001D03*
X158500001Y-70500000D03*
X159500000Y-73500000D03*
X159499999Y-71500000D03*
X158500000Y-69500000D03*
X160500000Y-71000000D03*
X161500000Y-69499999D03*
X160500000Y-74000000D03*
X158500000Y-72500000D03*
X160500000Y-70000000D03*
X161500000Y-70500000D03*
X160500000Y-73000000D03*
X159499999Y-70500000D03*
X158500000Y-73500000D03*
X160500000Y-72000000D03*
X159500000Y-69500000D03*
X159500000Y-72500000D03*
X158500000Y-71500000D03*
X161499999Y-77500000D03*
X161500000Y-76500000D03*
X161500000Y-78500001D03*
X158500001Y-75500000D03*
X159500000Y-78500000D03*
X159499999Y-76500000D03*
X158500000Y-74500000D03*
X160500000Y-76000000D03*
X161500000Y-74499999D03*
X160500000Y-79000000D03*
X158500000Y-77500000D03*
X160500000Y-75000000D03*
X161500000Y-75500000D03*
X160500000Y-78000000D03*
X159499999Y-75500000D03*
X158500000Y-78500000D03*
X160500000Y-77000000D03*
X159500000Y-74500000D03*
X159500000Y-77500000D03*
X158500000Y-76500000D03*
X161499999Y-83000000D03*
X161500000Y-82000000D03*
X161500000Y-84000001D03*
X158500001Y-81000000D03*
X159500000Y-84000000D03*
X159499999Y-82000000D03*
X158500000Y-80000000D03*
X160500000Y-81500000D03*
X161500000Y-79999999D03*
X160500000Y-84500000D03*
X158500000Y-83000000D03*
X160500000Y-80500000D03*
X161500000Y-81000000D03*
X160500000Y-83500000D03*
X159499999Y-81000000D03*
X158500000Y-84000000D03*
X160500000Y-82500000D03*
X159500000Y-80000000D03*
X159500000Y-83000000D03*
X158500000Y-82000000D03*
X147500000Y-95999999D03*
X148500000Y-96000000D03*
X146500000Y-96000000D03*
X149500000Y-93000001D03*
X146500000Y-94000000D03*
X148500000Y-94000000D03*
X150500000Y-93000000D03*
X149000000Y-95000000D03*
X150500000Y-96000000D03*
X146000000Y-95000000D03*
X147500000Y-93000000D03*
X150000000Y-95000000D03*
X149500000Y-96000000D03*
X147000000Y-95000000D03*
X149500000Y-93999999D03*
X146500000Y-93000000D03*
X148000000Y-95000000D03*
X150500000Y-94000000D03*
X147500000Y-94000000D03*
X148500000Y-93000000D03*
X142500000Y-95999999D03*
X143500000Y-96000000D03*
X141500000Y-96000000D03*
X144500000Y-93000001D03*
X141500000Y-94000000D03*
X143500000Y-94000000D03*
X145500000Y-93000000D03*
X144000000Y-95000000D03*
X145500000Y-96000000D03*
X141000000Y-95000000D03*
X142500000Y-93000000D03*
X145000000Y-95000000D03*
X144500000Y-96000000D03*
X142000000Y-95000000D03*
X144500000Y-93999999D03*
X141500000Y-93000000D03*
X143000000Y-95000000D03*
X145500000Y-94000000D03*
X142500000Y-94000000D03*
X143500000Y-93000000D03*
X137500000Y-95999999D03*
X138500000Y-96000000D03*
X136500000Y-96000000D03*
X139500000Y-93000001D03*
X136500000Y-94000000D03*
X138500000Y-94000000D03*
X140500000Y-93000000D03*
X139000000Y-95000000D03*
X140500000Y-96000000D03*
X136000000Y-95000000D03*
X137500000Y-93000000D03*
X140000000Y-95000000D03*
X139500000Y-96000000D03*
X137000000Y-95000000D03*
X139500000Y-93999999D03*
X136500000Y-93000000D03*
X138000000Y-95000000D03*
X140500000Y-94000000D03*
X137500000Y-94000000D03*
X138500000Y-93000000D03*
X109000000Y-93000001D03*
X108000000Y-93000000D03*
X110000001Y-93000000D03*
X107000000Y-95999999D03*
X110000000Y-95000000D03*
X108000000Y-95000001D03*
X106000000Y-96000000D03*
X107500000Y-94000000D03*
X105999999Y-93000000D03*
X110500000Y-94000000D03*
X109000000Y-96000000D03*
X106500000Y-94000000D03*
X107000000Y-93000000D03*
X109500000Y-94000000D03*
X107000000Y-95000001D03*
X110000000Y-96000000D03*
X108500000Y-94000000D03*
X106000000Y-95000000D03*
X109000000Y-95000000D03*
X108000000Y-96000000D03*
X104000000Y-93000001D03*
X103000000Y-93000000D03*
X105000001Y-93000000D03*
X102000000Y-95999999D03*
X105000000Y-95000000D03*
X103000000Y-95000001D03*
X101000000Y-96000000D03*
X102500000Y-94000000D03*
X100999999Y-93000000D03*
X105500000Y-94000000D03*
X104000000Y-96000000D03*
X101500000Y-94000000D03*
X102000000Y-93000000D03*
X104500000Y-94000000D03*
X102000000Y-95000001D03*
X105000000Y-96000000D03*
X103500000Y-94000000D03*
X101000000Y-95000000D03*
X104000000Y-95000000D03*
X103000000Y-96000000D03*
X77000000Y-82999999D03*
X78000000Y-83000000D03*
X76000000Y-83000000D03*
X79000000Y-80000001D03*
X76000000Y-81000000D03*
X78000000Y-81000000D03*
X80000000Y-80000000D03*
X78500000Y-82000000D03*
X80000000Y-83000000D03*
X75500000Y-82000000D03*
X77000000Y-80000000D03*
X79500000Y-82000000D03*
X79000000Y-83000000D03*
X76500000Y-82000000D03*
X79000000Y-80999999D03*
X76000000Y-80000000D03*
X77500000Y-82000000D03*
X80000000Y-81000000D03*
X77000000Y-81000000D03*
X78000000Y-80000000D03*
X77000000Y-78999999D03*
X78000000Y-79000000D03*
X76000000Y-79000000D03*
X79000000Y-76000001D03*
X76000000Y-77000000D03*
X78000000Y-77000000D03*
X80000000Y-76000000D03*
X78500000Y-78000000D03*
X80000000Y-79000000D03*
X75500000Y-78000000D03*
X77000000Y-76000000D03*
X79500000Y-78000000D03*
X79000000Y-79000000D03*
X76500000Y-78000000D03*
X79000000Y-76999999D03*
X76000000Y-76000000D03*
X77500000Y-78000000D03*
X80000000Y-77000000D03*
X77000000Y-77000000D03*
X78000000Y-76000000D03*
X76000000Y-75000000D03*
X78000000Y-75000000D03*
X77000000Y-74999999D03*
X79000000Y-72000001D03*
X79000000Y-70000000D03*
X80000000Y-70000000D03*
X76999999Y-70000000D03*
X79500000Y-71000000D03*
X76500000Y-71000000D03*
X77500000Y-71000000D03*
X75500000Y-71000000D03*
X76000000Y-73000000D03*
X80000000Y-72000000D03*
X78000000Y-73000000D03*
X78000000Y-70000000D03*
X78500000Y-71000000D03*
X80000000Y-61000000D03*
X80000000Y-63000000D03*
X79500000Y-62000000D03*
X78500000Y-65000001D03*
X76500000Y-65000000D03*
X76999999Y-61000000D03*
X78000000Y-66000000D03*
X75500000Y-62000000D03*
X76000000Y-66000000D03*
X78000000Y-64000000D03*
X79000000Y-66000000D03*
X77000000Y-65999999D03*
X76000000Y-64000000D03*
X76000000Y-61000000D03*
X79000000Y-63000001D03*
X76000000Y-63000000D03*
X78000000Y-61000000D03*
X78500000Y-62000000D03*
X77000000Y-63000000D03*
X76500000Y-62000000D03*
X79000000Y-61000000D03*
X77500000Y-62000000D03*
X78000000Y-63000000D03*
X78500000Y-68000000D03*
X80000000Y-64000000D03*
X76000000Y-67000000D03*
X77000000Y-69000000D03*
X79500000Y-65000001D03*
X79000000Y-64000000D03*
X78000000Y-69000000D03*
X77500000Y-65000000D03*
X80000000Y-66000000D03*
X77000000Y-64000000D03*
X78000000Y-67000000D03*
X75500000Y-65000000D03*
X76000000Y-69000000D03*
X78500000Y-74000000D03*
X79000000Y-75000000D03*
X76500000Y-74000000D03*
X79000000Y-72999999D03*
X77500000Y-74000000D03*
X80000000Y-73000000D03*
X80000000Y-75000000D03*
X77000000Y-73000000D03*
X75500000Y-74000000D03*
X79500000Y-74000000D03*
X77000000Y-67000000D03*
X77000000Y-72000000D03*
X76000000Y-70000000D03*
X78000000Y-72000000D03*
X75500000Y-68000000D03*
X76000000Y-72000000D03*
X79000000Y-69000000D03*
X76500001Y-68000000D03*
X79000000Y-67000000D03*
X79500000Y-68000000D03*
X77500000Y-68000000D03*
X80000000Y-67000000D03*
X80000000Y-69000000D03*
X132500000Y-49000000D03*
X132500000Y-51000000D03*
X132500000Y-50000000D03*
X135500000Y-52000000D03*
X137500000Y-52000000D03*
X137500000Y-53000000D03*
X137500000Y-50000000D03*
X136500000Y-52500000D03*
X136500000Y-49500000D03*
X136500000Y-50500000D03*
X136500000Y-48500000D03*
X134500000Y-49000000D03*
X135500000Y-53000000D03*
X134500000Y-51000000D03*
X137500000Y-51000000D03*
X136500000Y-51500000D03*
X146500000Y-53000000D03*
X144500000Y-53000000D03*
X145500000Y-52500000D03*
X142500000Y-51500000D03*
X142500000Y-49500000D03*
X146500000Y-50000000D03*
X141500000Y-51000000D03*
X145500000Y-48500000D03*
X141500000Y-49000000D03*
X143500000Y-51000000D03*
X141500000Y-52000000D03*
X141500000Y-50000000D03*
X143500000Y-49000000D03*
X146500000Y-49000000D03*
X144500000Y-52000000D03*
X144500000Y-49000000D03*
X146500000Y-51000000D03*
X145500000Y-51500000D03*
X144500000Y-50000000D03*
X145500000Y-49500000D03*
X146500000Y-52000000D03*
X145500000Y-50500000D03*
X144500000Y-51000000D03*
X139500000Y-51500000D03*
X143500000Y-53000000D03*
X140500000Y-49000000D03*
X138500000Y-50000000D03*
X142500000Y-52500000D03*
X143500000Y-52000000D03*
X138500000Y-51000000D03*
X142500000Y-50500000D03*
X141500000Y-53000000D03*
X143500000Y-50000000D03*
X140500000Y-51000000D03*
X142500000Y-48500000D03*
X138500000Y-49000000D03*
X133500000Y-51500000D03*
X132500000Y-52000000D03*
X133500000Y-49500000D03*
X134500000Y-52000000D03*
X133500000Y-50500000D03*
X134500000Y-53000000D03*
X132500000Y-53000000D03*
X134500000Y-50000000D03*
X133500000Y-48500000D03*
X133500000Y-52500000D03*
X140500000Y-50000000D03*
X135500000Y-50000000D03*
X137500000Y-49000000D03*
X135500000Y-51000000D03*
X139500000Y-48500000D03*
X135500000Y-49000000D03*
X138500000Y-52000000D03*
X139500000Y-49500000D03*
X140500000Y-52000000D03*
X139500000Y-52500000D03*
X139500000Y-50500000D03*
X140500000Y-53000000D03*
X138500000Y-53000000D03*
X117500000Y-49000000D03*
X117500000Y-51000000D03*
X117500000Y-50000000D03*
X120500000Y-52000000D03*
X122500000Y-52000000D03*
X122500000Y-53000000D03*
X122500000Y-50000000D03*
X121500000Y-52500000D03*
X121500000Y-49500000D03*
X121500000Y-50500000D03*
X121500000Y-48500000D03*
X119500000Y-49000000D03*
X120500000Y-53000000D03*
X119500000Y-51000000D03*
X122500000Y-51000000D03*
X121500000Y-51500000D03*
X131500000Y-53000000D03*
X129500000Y-53000000D03*
X130500000Y-52500000D03*
X127500000Y-51500000D03*
X127500000Y-49500000D03*
X131500000Y-50000000D03*
X126500000Y-51000000D03*
X130500000Y-48500000D03*
X126500000Y-49000000D03*
X128500000Y-51000000D03*
X126500000Y-52000000D03*
X126500000Y-50000000D03*
X128500000Y-49000000D03*
X131500000Y-49000000D03*
X129500000Y-52000000D03*
X129500000Y-49000000D03*
X131500000Y-51000000D03*
X130500000Y-51500000D03*
X129500000Y-50000000D03*
X130500000Y-49500000D03*
X131500000Y-52000000D03*
X130500000Y-50500000D03*
X129500000Y-51000000D03*
X124500000Y-51500000D03*
X128500000Y-53000000D03*
X125500000Y-49000000D03*
X123500000Y-50000000D03*
X127500000Y-52500000D03*
X128500000Y-52000000D03*
X123500000Y-51000000D03*
X127500000Y-50500000D03*
X126500000Y-53000000D03*
X128500000Y-50000000D03*
X125500000Y-51000000D03*
X127500000Y-48500000D03*
X123500000Y-49000000D03*
X118500000Y-51500000D03*
X117500000Y-52000000D03*
X118500000Y-49500000D03*
X119500000Y-52000000D03*
X118500000Y-50500000D03*
X119500000Y-53000000D03*
X117500000Y-53000000D03*
X119500000Y-50000000D03*
X118500000Y-48500000D03*
X118500000Y-52500000D03*
X125500000Y-50000000D03*
X120500000Y-50000000D03*
X122500000Y-49000000D03*
X120500000Y-51000000D03*
X124500000Y-48500000D03*
X120500000Y-49000000D03*
X123500000Y-52000000D03*
X124500000Y-49500000D03*
X125500000Y-52000000D03*
X124500000Y-52500000D03*
X124500000Y-50500000D03*
X125500000Y-53000000D03*
X123500000Y-53000000D03*
X114500000Y-49000000D03*
X114500000Y-51000000D03*
X114500000Y-50000000D03*
X116500000Y-49000000D03*
X116500000Y-51000000D03*
X115500000Y-51500000D03*
X114500000Y-52000000D03*
X115500000Y-49500000D03*
X116500000Y-52000000D03*
X115500000Y-50500000D03*
X116500000Y-53000000D03*
X114500000Y-53000000D03*
X116500000Y-50000000D03*
X115500000Y-48500000D03*
X115500000Y-52500000D03*
X111500000Y-49000000D03*
X111500000Y-51000000D03*
X111500000Y-50000000D03*
X113500000Y-49000000D03*
X113500000Y-51000000D03*
X112500000Y-51500000D03*
X111500000Y-52000000D03*
X112500000Y-49500000D03*
X113500000Y-52000000D03*
X112500000Y-50500000D03*
X113500000Y-53000000D03*
X111500000Y-53000000D03*
X113500000Y-50000000D03*
X112500000Y-48500000D03*
X112500000Y-52500000D03*
X108500000Y-49000000D03*
X108500000Y-51000000D03*
X108500000Y-50000000D03*
X110500000Y-49000000D03*
X110500000Y-51000000D03*
X109500000Y-51500000D03*
X108500000Y-52000000D03*
X109500000Y-49500000D03*
X110500000Y-52000000D03*
X109500000Y-50500000D03*
X110500000Y-53000000D03*
X108500000Y-53000000D03*
X110500000Y-50000000D03*
X109500000Y-48500000D03*
X109500000Y-52500000D03*
X105500000Y-49000000D03*
X105500000Y-51000000D03*
X105500000Y-50000000D03*
X107500000Y-49000000D03*
X107500000Y-51000000D03*
X106500000Y-51500000D03*
X105500000Y-52000000D03*
X106500000Y-49500000D03*
X107500000Y-52000000D03*
X106500000Y-50500000D03*
X107500000Y-53000000D03*
X105500000Y-53000000D03*
X107500000Y-50000000D03*
X106500000Y-48500000D03*
X106500000Y-52500000D03*
X104500000Y-49000000D03*
X104500000Y-51000000D03*
X104500000Y-50000000D03*
X104500000Y-52000000D03*
X104500000Y-53000000D03*
X103500000Y-48500000D03*
X103500000Y-50500000D03*
X103500000Y-49500000D03*
X103500000Y-51500000D03*
X103500000Y-52500000D03*
X102500000Y-53000000D03*
X102500000Y-52000000D03*
X102500000Y-51000000D03*
X102500000Y-50000000D03*
X102500000Y-49000000D03*
X140000000Y-57000000D03*
X141000000Y-57000000D03*
X139000000Y-58000000D03*
X138500000Y-59000000D03*
X138500000Y-60000000D03*
X139000000Y-61000000D03*
X139000000Y-62000000D03*
X139000000Y-63000000D03*
X139000000Y-64000000D03*
X139000000Y-65000000D03*
X139000000Y-66000000D03*
X139000000Y-67000000D03*
X138500000Y-68000000D03*
X138500000Y-69000000D03*
X145000000Y-71000000D03*
X144000000Y-71000000D03*
X143500000Y-70500000D03*
X143500000Y-69500000D03*
X143000000Y-69000000D03*
X142500000Y-68500000D03*
X142000000Y-67500000D03*
X142000000Y-66500000D03*
X142000000Y-65500000D03*
X142000000Y-64500000D03*
X142000000Y-63500000D03*
X142000000Y-61500000D03*
X150000000Y-57000000D03*
X149000000Y-57000000D03*
X148000000Y-57000000D03*
X155000000Y-57000000D03*
X152000000Y-57000000D03*
X154000000Y-57000000D03*
X151000000Y-57000000D03*
X153000000Y-57000000D03*
X146000000Y-57000000D03*
X142000000Y-57000000D03*
X144000000Y-57000000D03*
X143000000Y-57000000D03*
X147000000Y-57000000D03*
X145000000Y-57000000D03*
X156000000Y-57000000D03*
X157000000Y-57000000D03*
X159000000Y-57000000D03*
X158000000Y-57000000D03*
X150000000Y-62500000D03*
X149000000Y-62500000D03*
X148000000Y-62500000D03*
X155000000Y-62500000D03*
X152000000Y-62500000D03*
X154000000Y-62500000D03*
X151000000Y-62500000D03*
X153000000Y-62500000D03*
X146000000Y-62500000D03*
X142000000Y-62500000D03*
X144000000Y-62500000D03*
X143000000Y-62500000D03*
X147000000Y-62500000D03*
X145000000Y-62500000D03*
X156000000Y-62500000D03*
X157000000Y-62500000D03*
X159000000Y-62500000D03*
X158000000Y-62500000D03*
X153000000Y-58000000D03*
X152000000Y-58000000D03*
X151000000Y-58000000D03*
X158000000Y-58000000D03*
X155000000Y-58000000D03*
X157000000Y-58000000D03*
X154000000Y-58000000D03*
X156000000Y-58000000D03*
X149000000Y-58000000D03*
X145000000Y-58000000D03*
X147000000Y-58000000D03*
X146000000Y-58000000D03*
X150000000Y-58000000D03*
X148000000Y-58000000D03*
X159000000Y-58000000D03*
X160000000Y-58000000D03*
X162000000Y-58000000D03*
X161000000Y-58000000D03*
X162000000Y-61500000D03*
X161000000Y-61500000D03*
X160000000Y-61500000D03*
X159000000Y-61500000D03*
X158000000Y-61500000D03*
X157000000Y-61500000D03*
X156000000Y-61500000D03*
X155000000Y-61500000D03*
X154000000Y-61500000D03*
X153000000Y-61500000D03*
X152000000Y-61500000D03*
X151000000Y-61500000D03*
X150000000Y-61500000D03*
X149000000Y-61500000D03*
X148000000Y-61500000D03*
X147000000Y-61500000D03*
X146000000Y-61500000D03*
X145000000Y-61500000D03*
X154000000Y-64500000D03*
X156000000Y-67000000D03*
X156000000Y-70000000D03*
X152000000Y-81500000D03*
X154500000Y-83500000D03*
X157000000Y-81500000D03*
X137500000Y-69000000D03*
X132500000Y-69000000D03*
X125500000Y-76500000D03*
X121000000Y-76500000D03*
X123000000Y-78500000D03*
X118500000Y-80000000D03*
X118500000Y-77000000D03*
X124500000Y-89500000D03*
X128500000Y-89500000D03*
X128500000Y-93500000D03*
X124500000Y-93500000D03*
X119500000Y-93500000D03*
X123500000Y-93500000D03*
X123000000Y-89500000D03*
X119500000Y-89500000D03*
X97000000Y-90000000D03*
X99500000Y-92000000D03*
X98500000Y-82500000D03*
X98500000Y-79500000D03*
X95000000Y-74000000D03*
X115500000Y-73500000D03*
%TD*%
D28*
%TO.N,+10V*%
X148000000Y-79500000D02*
X135827500Y-91672500D01*
X148000000Y-72000000D02*
X148000000Y-79500000D01*
X149000000Y-72000000D02*
X148000000Y-72000000D01*
X135827500Y-91672500D02*
X131740000Y-91672500D01*
X149036401Y-71963599D02*
X149000000Y-72000000D01*
X150915000Y-71963599D02*
X149036401Y-71963599D01*
X151012500Y-71866099D02*
X150915000Y-71963599D01*
D29*
%TO.N,GND*%
X94730000Y-74270000D02*
X95000000Y-74000000D01*
X94730000Y-76275000D02*
X94730000Y-74270000D01*
%TO.N,/Coax*%
X143550001Y-59750000D02*
X161000000Y-59750000D01*
%TO.N,/Out1*%
X140409000Y-59790999D02*
X140449999Y-59750000D01*
X140409000Y-68899998D02*
X140409000Y-59790999D01*
%TO.N,/Vin+*%
X124125000Y-73375000D02*
X124146700Y-73353300D01*
X123000000Y-73375000D02*
X124125000Y-73375000D01*
X124146700Y-73353300D02*
X124095300Y-73353300D01*
X127099300Y-73353300D02*
X124146700Y-73353300D01*
X127099300Y-73353300D02*
X144629000Y-73353300D01*
D30*
X144529700Y-73254000D02*
X144629000Y-73353300D01*
D29*
X122879000Y-73254000D02*
X123000000Y-73375000D01*
X120115000Y-73254000D02*
X122879000Y-73254000D01*
%TO.N,Net-(U1-VOUT)*%
X113628500Y-72404500D02*
X116165500Y-72404500D01*
X116165500Y-72404500D02*
X117015000Y-73254000D01*
%TO.N,/Vin-*%
X140409000Y-72000000D02*
X135118000Y-72000000D01*
X142500000Y-72000000D02*
X140409000Y-72000000D01*
X143191999Y-72691999D02*
X142500000Y-72000000D01*
X144629000Y-72691999D02*
X143191999Y-72691999D01*
%TO.N,/Out1*%
X141399998Y-68899998D02*
X140409000Y-68899998D01*
X142500000Y-70000000D02*
X141399998Y-68899998D01*
X142500000Y-71000000D02*
X142500000Y-70000000D01*
X143542001Y-72042001D02*
X142500000Y-71000000D01*
X144629000Y-72042001D02*
X143542001Y-72042001D01*
D31*
%TO.N,Net-(D1-K)*%
X91500000Y-95000000D02*
X97000000Y-95000000D01*
%TO.N,Net-(D1-A)*%
X91500000Y-78500000D02*
X91500000Y-92460000D01*
X92190000Y-77810000D02*
X91500000Y-78500000D01*
X92190000Y-76000000D02*
X92190000Y-77810000D01*
%TO.N,+3.3V*%
X96500000Y-52000000D02*
X96500000Y-52500000D01*
X93500000Y-49000000D02*
X96500000Y-52000000D01*
X88000000Y-49000000D02*
X93500000Y-49000000D01*
X86500000Y-50500000D02*
X88000000Y-49000000D01*
X88000000Y-56500000D02*
X86500000Y-55000000D01*
X88000000Y-71500000D02*
X88000000Y-56500000D01*
X90000000Y-73500000D02*
X88000000Y-71500000D01*
X91934999Y-73500000D02*
X90000000Y-73500000D01*
X93460000Y-75025001D02*
X91934999Y-73500000D01*
X86500000Y-55000000D02*
X86500000Y-50500000D01*
X93460000Y-76000000D02*
X93460000Y-75025001D01*
D30*
%TO.N,/SWCLK*%
X91420000Y-67920000D02*
X91420000Y-52500000D01*
X92190000Y-68690000D02*
X91420000Y-67920000D01*
X92190000Y-71050000D02*
X92190000Y-68690000D01*
%TO.N,/SWDIO*%
X93959999Y-67959999D02*
X93959999Y-52500000D01*
X93460000Y-68459998D02*
X93959999Y-67959999D01*
X93460000Y-71050000D02*
X93460000Y-68459998D01*
%TO.N,/SYNC*%
X96624000Y-69376000D02*
X102081000Y-69376000D01*
X96000000Y-70000000D02*
X96624000Y-69376000D01*
X96000000Y-71050000D02*
X96000000Y-70000000D01*
%TO.N,/SCLK*%
X97057000Y-73443000D02*
X102021000Y-73443000D01*
X96000000Y-74500000D02*
X97057000Y-73443000D01*
X96000000Y-76000000D02*
X96000000Y-74500000D01*
%TO.N,GND*%
X115054500Y-73054500D02*
X115500000Y-73500000D01*
X113628500Y-73054500D02*
X115054500Y-73054500D01*
%TO.N,Net-(U1-DIN)*%
X109292893Y-66292893D02*
G75*
G03*
X108585786Y-66000010I-707093J-707107D01*
G01*
X112500000Y-69914214D02*
G75*
G03*
X112207114Y-69207100I-1000000J14D01*
G01*
%TO.N,Net-(U1-~{SYNC})*%
X108904500Y-72404500D02*
X111003500Y-72404500D01*
X105876000Y-69376000D02*
X108904500Y-72404500D01*
X105181000Y-69376000D02*
X105876000Y-69376000D01*
%TO.N,Net-(U1-DIN)*%
X112500000Y-72704500D02*
G75*
G02*
X111500000Y-73704500I-1000000J0D01*
G01*
X112500000Y-69914214D02*
X112500000Y-72704500D01*
X111500000Y-73704500D02*
X111003500Y-73704500D01*
X109292893Y-66292893D02*
X112207107Y-69207107D01*
X105121000Y-66000000D02*
X108585786Y-66000000D01*
%TO.N,Net-(U1-SCLK)*%
X105509500Y-73054500D02*
X105121000Y-73443000D01*
X111003500Y-73054500D02*
X105509500Y-73054500D01*
%TO.N,/MOSI*%
X94730000Y-68270000D02*
X97000000Y-66000000D01*
X94730000Y-71050000D02*
X94730000Y-68270000D01*
X97000000Y-66000000D02*
X102021000Y-66000000D01*
%TO.N,Net-(U4-IN2-)*%
X150915000Y-72691999D02*
X150915000Y-73342001D01*
%TO.N,Net-(U4-IN2+)*%
X154500000Y-75550001D02*
X154500000Y-78449999D01*
X152941998Y-73991999D02*
X154500000Y-75550001D01*
X150915000Y-73991999D02*
X152941998Y-73991999D01*
D28*
%TO.N,+10V*%
X151012500Y-67062500D02*
X151075000Y-67000000D01*
X151012500Y-70000000D02*
X151012500Y-67062500D01*
X152949999Y-72449999D02*
X154500000Y-72449999D01*
X152366099Y-71866099D02*
X152949999Y-72449999D01*
X151012500Y-71866099D02*
X152366099Y-71866099D01*
X151012500Y-70000000D02*
X151012500Y-71866099D01*
D31*
%TO.N,+3.3V*%
X93437500Y-79500000D02*
X93437500Y-82500000D01*
X93460000Y-79477500D02*
X93437500Y-79500000D01*
X93460000Y-76000000D02*
X93460000Y-79477500D01*
%TD*%
%TA.AperFunction,Conductor*%
%TO.N,GND*%
G36*
X158502702Y-48000617D02*
G01*
X158886771Y-48017386D01*
X158897506Y-48018326D01*
X159275971Y-48068152D01*
X159286597Y-48070025D01*
X159659284Y-48152648D01*
X159669710Y-48155442D01*
X160033765Y-48270227D01*
X160043911Y-48273920D01*
X160396578Y-48420000D01*
X160406369Y-48424566D01*
X160744942Y-48600816D01*
X160754310Y-48606224D01*
X161076244Y-48811318D01*
X161085105Y-48817523D01*
X161387930Y-49049889D01*
X161396217Y-49056843D01*
X161677635Y-49314715D01*
X161685284Y-49322364D01*
X161943156Y-49603782D01*
X161950110Y-49612069D01*
X162182476Y-49914894D01*
X162188681Y-49923755D01*
X162393775Y-50245689D01*
X162399183Y-50255057D01*
X162575430Y-50593623D01*
X162580002Y-50603427D01*
X162726075Y-50956078D01*
X162729775Y-50966244D01*
X162844554Y-51330278D01*
X162847354Y-51340727D01*
X162929971Y-51713389D01*
X162931849Y-51724042D01*
X162981671Y-52102473D01*
X162982614Y-52113249D01*
X162999382Y-52497297D01*
X162999500Y-52502706D01*
X162999500Y-54126000D01*
X162979815Y-54193039D01*
X162927011Y-54238794D01*
X162875500Y-54250000D01*
X161250000Y-54250000D01*
X161250000Y-56750000D01*
X162875500Y-56750000D01*
X162942539Y-56769685D01*
X162988294Y-56822489D01*
X162999500Y-56874000D01*
X162999500Y-58375500D01*
X162979815Y-58442539D01*
X162927011Y-58488294D01*
X162875500Y-58499500D01*
X158412129Y-58499500D01*
X158412123Y-58499501D01*
X158352516Y-58505908D01*
X158217671Y-58556202D01*
X158217664Y-58556206D01*
X158102455Y-58642452D01*
X158102452Y-58642455D01*
X158016206Y-58757664D01*
X158016202Y-58757671D01*
X157965908Y-58892517D01*
X157959501Y-58952116D01*
X157959500Y-58952135D01*
X157959500Y-58975500D01*
X157939815Y-59042539D01*
X157887011Y-59088294D01*
X157835500Y-59099500D01*
X144814982Y-59099500D01*
X144747943Y-59079815D01*
X144702188Y-59027011D01*
X144691624Y-58988101D01*
X144690000Y-58972203D01*
X144689999Y-58972200D01*
X144683344Y-58952116D01*
X144634815Y-58805666D01*
X144542713Y-58656344D01*
X144418657Y-58532288D01*
X144269335Y-58440186D01*
X144102798Y-58385001D01*
X144102796Y-58385000D01*
X144000011Y-58374500D01*
X143099999Y-58374500D01*
X143099981Y-58374501D01*
X142997204Y-58385000D01*
X142997201Y-58385001D01*
X142830669Y-58440185D01*
X142830664Y-58440187D01*
X142681343Y-58532289D01*
X142557290Y-58656342D01*
X142465188Y-58805663D01*
X142465187Y-58805666D01*
X142410002Y-58972203D01*
X142410002Y-58972204D01*
X142410001Y-58972204D01*
X142399501Y-59074983D01*
X142399501Y-60425001D01*
X142399502Y-60425018D01*
X142410001Y-60527796D01*
X142410002Y-60527799D01*
X142465186Y-60694331D01*
X142465188Y-60694336D01*
X142494790Y-60742328D01*
X142557289Y-60843656D01*
X142681345Y-60967712D01*
X142830667Y-61059814D01*
X142997204Y-61114999D01*
X143099992Y-61125500D01*
X144000009Y-61125499D01*
X144000017Y-61125498D01*
X144000020Y-61125498D01*
X144066469Y-61118710D01*
X144102798Y-61114999D01*
X144269335Y-61059814D01*
X144418657Y-60967712D01*
X144542713Y-60843656D01*
X144634815Y-60694334D01*
X144690000Y-60527797D01*
X144691624Y-60511898D01*
X144718019Y-60447207D01*
X144775199Y-60407055D01*
X144814982Y-60400500D01*
X157835501Y-60400500D01*
X157902540Y-60420185D01*
X157948295Y-60472989D01*
X157959501Y-60524500D01*
X157959501Y-60547876D01*
X157965908Y-60607483D01*
X158016202Y-60742328D01*
X158016206Y-60742335D01*
X158102452Y-60857544D01*
X158102455Y-60857547D01*
X158217664Y-60943793D01*
X158217671Y-60943797D01*
X158352517Y-60994091D01*
X158352516Y-60994091D01*
X158359444Y-60994835D01*
X158412127Y-61000500D01*
X162875500Y-61000499D01*
X162942539Y-61020184D01*
X162988294Y-61072988D01*
X162999500Y-61124499D01*
X162999500Y-62626000D01*
X162979815Y-62693039D01*
X162927011Y-62738794D01*
X162875500Y-62750000D01*
X161250000Y-62750000D01*
X161250000Y-65250000D01*
X162875500Y-65250000D01*
X162942539Y-65269685D01*
X162988294Y-65322489D01*
X162999500Y-65374000D01*
X162999500Y-92707293D01*
X162999382Y-92712702D01*
X162982614Y-93096750D01*
X162981671Y-93107526D01*
X162931849Y-93485957D01*
X162929971Y-93496610D01*
X162847354Y-93869272D01*
X162844554Y-93879721D01*
X162729775Y-94243755D01*
X162726075Y-94253921D01*
X162580002Y-94606572D01*
X162575430Y-94616376D01*
X162399183Y-94954942D01*
X162393775Y-94964310D01*
X162188681Y-95286244D01*
X162182476Y-95295105D01*
X161950110Y-95597930D01*
X161943156Y-95606217D01*
X161685284Y-95887635D01*
X161677635Y-95895284D01*
X161396217Y-96153156D01*
X161387930Y-96160110D01*
X161085105Y-96392476D01*
X161076244Y-96398681D01*
X160754310Y-96603775D01*
X160744942Y-96609183D01*
X160406376Y-96785430D01*
X160396572Y-96790002D01*
X160043921Y-96936075D01*
X160033755Y-96939775D01*
X159669721Y-97054554D01*
X159659272Y-97057354D01*
X159286610Y-97139971D01*
X159275957Y-97141849D01*
X158897526Y-97191671D01*
X158886750Y-97192614D01*
X158502703Y-97209382D01*
X158497294Y-97209500D01*
X79502706Y-97209500D01*
X79497297Y-97209382D01*
X79113249Y-97192614D01*
X79102473Y-97191671D01*
X78724042Y-97141849D01*
X78713389Y-97139971D01*
X78340727Y-97057354D01*
X78330278Y-97054554D01*
X77966244Y-96939775D01*
X77956078Y-96936075D01*
X77603427Y-96790002D01*
X77593623Y-96785430D01*
X77255057Y-96609183D01*
X77245689Y-96603775D01*
X76923755Y-96398681D01*
X76914894Y-96392476D01*
X76612069Y-96160110D01*
X76603782Y-96153156D01*
X76322364Y-95895284D01*
X76314715Y-95887635D01*
X76056843Y-95606217D01*
X76049889Y-95597930D01*
X75817523Y-95295105D01*
X75811318Y-95286244D01*
X75606224Y-94964310D01*
X75600816Y-94954942D01*
X75424569Y-94616376D01*
X75419997Y-94606572D01*
X75273920Y-94253911D01*
X75270224Y-94243755D01*
X75155442Y-93879710D01*
X75152648Y-93869284D01*
X75070025Y-93496597D01*
X75068152Y-93485971D01*
X75018326Y-93107506D01*
X75017386Y-93096771D01*
X75000618Y-92712702D01*
X75000500Y-92707293D01*
X75000500Y-55068996D01*
X85799499Y-55068996D01*
X85826418Y-55204322D01*
X85826421Y-55204332D01*
X85879222Y-55331807D01*
X85955887Y-55446545D01*
X85955888Y-55446546D01*
X87263181Y-56753837D01*
X87296666Y-56815160D01*
X87299500Y-56841518D01*
X87299500Y-71431006D01*
X87299500Y-71568994D01*
X87299500Y-71568996D01*
X87299499Y-71568996D01*
X87326418Y-71704322D01*
X87326421Y-71704332D01*
X87379222Y-71831807D01*
X87455887Y-71946545D01*
X89553454Y-74044112D01*
X89653353Y-74110862D01*
X89653354Y-74110862D01*
X89653355Y-74110863D01*
X89668189Y-74120775D01*
X89668194Y-74120777D01*
X89750569Y-74154898D01*
X89795672Y-74173580D01*
X89795676Y-74173580D01*
X89795677Y-74173581D01*
X89931004Y-74200500D01*
X89931007Y-74200500D01*
X91593480Y-74200500D01*
X91622920Y-74209144D01*
X91652907Y-74215668D01*
X91657922Y-74219422D01*
X91660519Y-74220185D01*
X91681161Y-74236819D01*
X91816695Y-74372353D01*
X91850180Y-74433676D01*
X91845196Y-74503368D01*
X91803324Y-74559301D01*
X91786264Y-74569196D01*
X91786317Y-74569285D01*
X91779602Y-74573255D01*
X91779602Y-74573256D01*
X91778819Y-74573719D01*
X91638137Y-74656917D01*
X91638129Y-74656923D01*
X91521923Y-74773129D01*
X91521917Y-74773137D01*
X91438255Y-74914603D01*
X91438254Y-74914606D01*
X91392402Y-75072426D01*
X91392401Y-75072432D01*
X91389500Y-75109298D01*
X91389500Y-77440701D01*
X91392401Y-77477567D01*
X91392402Y-77477573D01*
X91403318Y-77515143D01*
X91403119Y-77585012D01*
X91371923Y-77637419D01*
X90955888Y-78053453D01*
X90955887Y-78053454D01*
X90879222Y-78168192D01*
X90826421Y-78295667D01*
X90826418Y-78295679D01*
X90801305Y-78421934D01*
X90801304Y-78421940D01*
X90799500Y-78431007D01*
X90799500Y-91174648D01*
X90779815Y-91241687D01*
X90748385Y-91274966D01*
X90587641Y-91391752D01*
X90587636Y-91391756D01*
X90431756Y-91547636D01*
X90431752Y-91547641D01*
X90302187Y-91725974D01*
X90202104Y-91922393D01*
X90202103Y-91922396D01*
X90133985Y-92132047D01*
X90099500Y-92349778D01*
X90099500Y-92570221D01*
X90133985Y-92787952D01*
X90202103Y-92997603D01*
X90202104Y-92997606D01*
X90270122Y-93131096D01*
X90291144Y-93172354D01*
X90302187Y-93194025D01*
X90431752Y-93372358D01*
X90431756Y-93372363D01*
X90481928Y-93422535D01*
X90515413Y-93483858D01*
X90510429Y-93553550D01*
X90468557Y-93609483D01*
X90437581Y-93626398D01*
X90357669Y-93656203D01*
X90357664Y-93656206D01*
X90242455Y-93742452D01*
X90242452Y-93742455D01*
X90156206Y-93857664D01*
X90156202Y-93857671D01*
X90105908Y-93992517D01*
X90099501Y-94052116D01*
X90099501Y-94052123D01*
X90099500Y-94052135D01*
X90099500Y-95947870D01*
X90099501Y-95947876D01*
X90105908Y-96007483D01*
X90156202Y-96142328D01*
X90156206Y-96142335D01*
X90242452Y-96257544D01*
X90242455Y-96257547D01*
X90357664Y-96343793D01*
X90357671Y-96343797D01*
X90492517Y-96394091D01*
X90492516Y-96394091D01*
X90499444Y-96394835D01*
X90552127Y-96400500D01*
X92447872Y-96400499D01*
X92507483Y-96394091D01*
X92642331Y-96343796D01*
X92757546Y-96257546D01*
X92843796Y-96142331D01*
X92894091Y-96007483D01*
X92900500Y-95947873D01*
X92900500Y-95824500D01*
X92920185Y-95757461D01*
X92972989Y-95711706D01*
X93024500Y-95700500D01*
X95609362Y-95700500D01*
X95676401Y-95720185D01*
X95714899Y-95759401D01*
X95782288Y-95868656D01*
X95906344Y-95992712D01*
X96055666Y-96084814D01*
X96222203Y-96139999D01*
X96324991Y-96150500D01*
X97675008Y-96150499D01*
X97777797Y-96139999D01*
X97944334Y-96084814D01*
X98093656Y-95992712D01*
X98217712Y-95868656D01*
X98309814Y-95719334D01*
X98364999Y-95552797D01*
X98375500Y-95450009D01*
X98375499Y-94549992D01*
X98364999Y-94447203D01*
X98309814Y-94280666D01*
X98217712Y-94131344D01*
X98093656Y-94007288D01*
X97944334Y-93915186D01*
X97777797Y-93860001D01*
X97777795Y-93860000D01*
X97675010Y-93849500D01*
X96324998Y-93849500D01*
X96324981Y-93849501D01*
X96222203Y-93860000D01*
X96222200Y-93860001D01*
X96055668Y-93915185D01*
X96055663Y-93915187D01*
X95906342Y-94007289D01*
X95782289Y-94131342D01*
X95782288Y-94131344D01*
X95723281Y-94227011D01*
X95714901Y-94240597D01*
X95662953Y-94287321D01*
X95609362Y-94299500D01*
X93024499Y-94299500D01*
X92957460Y-94279815D01*
X92911705Y-94227011D01*
X92900499Y-94175500D01*
X92900499Y-94052129D01*
X92900498Y-94052123D01*
X92900497Y-94052116D01*
X92894091Y-93992517D01*
X92891296Y-93985024D01*
X92843797Y-93857671D01*
X92843793Y-93857664D01*
X92757547Y-93742455D01*
X92757544Y-93742452D01*
X92642335Y-93656206D01*
X92642328Y-93656202D01*
X92562419Y-93626398D01*
X92506485Y-93584527D01*
X92482068Y-93519062D01*
X92496920Y-93450789D01*
X92518069Y-93422537D01*
X92568242Y-93372365D01*
X92697815Y-93194022D01*
X92797895Y-92997606D01*
X92866015Y-92787951D01*
X92900500Y-92570222D01*
X92900500Y-92349984D01*
X95625001Y-92349984D01*
X95635494Y-92452695D01*
X95690641Y-92619117D01*
X95690643Y-92619122D01*
X95782684Y-92768343D01*
X95906654Y-92892313D01*
X96055875Y-92984354D01*
X96055880Y-92984356D01*
X96222302Y-93039503D01*
X96222309Y-93039504D01*
X96325019Y-93049997D01*
X96749999Y-93049997D01*
X97250000Y-93049997D01*
X97674972Y-93049997D01*
X97674986Y-93049996D01*
X97777697Y-93039503D01*
X97944119Y-92984356D01*
X97944124Y-92984354D01*
X98093345Y-92892313D01*
X98217315Y-92768343D01*
X98309356Y-92619122D01*
X98309358Y-92619117D01*
X98364505Y-92452695D01*
X98364506Y-92452688D01*
X98374999Y-92349984D01*
X98375000Y-92349971D01*
X98375000Y-92149998D01*
X97250000Y-92149998D01*
X97250000Y-93049997D01*
X96749999Y-93049997D01*
X96750000Y-93049996D01*
X96750000Y-92149998D01*
X95625001Y-92149998D01*
X95625001Y-92349984D01*
X92900500Y-92349984D01*
X92900500Y-92349778D01*
X92866015Y-92132049D01*
X92797895Y-91922394D01*
X92797895Y-91922393D01*
X92730701Y-91790520D01*
X92697815Y-91725978D01*
X92658961Y-91672500D01*
X92568247Y-91547641D01*
X92568243Y-91547636D01*
X92470618Y-91450011D01*
X95625000Y-91450011D01*
X95625000Y-91649998D01*
X96750000Y-91649998D01*
X97250000Y-91649998D01*
X98374999Y-91649998D01*
X98374999Y-91450026D01*
X98374998Y-91450011D01*
X98364505Y-91347300D01*
X98309358Y-91180878D01*
X98309356Y-91180873D01*
X98217315Y-91031652D01*
X98093345Y-90907682D01*
X97944124Y-90815641D01*
X97944119Y-90815639D01*
X97777697Y-90760492D01*
X97777690Y-90760491D01*
X97674986Y-90749998D01*
X97250000Y-90749998D01*
X97250000Y-91649998D01*
X96750000Y-91649998D01*
X96750000Y-90749998D01*
X96325028Y-90749998D01*
X96325012Y-90749999D01*
X96222302Y-90760492D01*
X96055880Y-90815639D01*
X96055875Y-90815641D01*
X95906654Y-90907682D01*
X95782684Y-91031652D01*
X95690643Y-91180873D01*
X95690641Y-91180878D01*
X95635494Y-91347300D01*
X95635493Y-91347307D01*
X95625000Y-91450011D01*
X92470618Y-91450011D01*
X92412363Y-91391756D01*
X92412358Y-91391752D01*
X92251615Y-91274966D01*
X92208949Y-91219636D01*
X92200500Y-91174648D01*
X92200500Y-89051402D01*
X92220185Y-88984363D01*
X92272989Y-88938608D01*
X92342147Y-88928664D01*
X92376009Y-88938607D01*
X92434541Y-88965338D01*
X92501580Y-88985023D01*
X92501584Y-88985024D01*
X92644000Y-89005500D01*
X111870500Y-89005500D01*
X111937539Y-89025185D01*
X111983294Y-89077989D01*
X111994500Y-89129500D01*
X111994500Y-90598269D01*
X111994500Y-93376000D01*
X111994501Y-93376009D01*
X112006052Y-93483450D01*
X112006054Y-93483462D01*
X112017260Y-93534972D01*
X112051383Y-93637497D01*
X112051386Y-93637503D01*
X112129171Y-93758537D01*
X112129179Y-93758548D01*
X112174923Y-93811340D01*
X112174926Y-93811343D01*
X112174930Y-93811347D01*
X112283664Y-93905567D01*
X112283667Y-93905568D01*
X112283668Y-93905569D01*
X112378536Y-93948895D01*
X112414541Y-93965338D01*
X112481580Y-93985023D01*
X112481584Y-93985024D01*
X112624000Y-94005500D01*
X112624003Y-94005500D01*
X114867496Y-94005500D01*
X114885478Y-94005179D01*
X114885488Y-94005178D01*
X114885523Y-94005178D01*
X114894369Y-94004862D01*
X114912386Y-94003896D01*
X115052978Y-93973312D01*
X115118442Y-93948895D01*
X115244717Y-93879944D01*
X115346457Y-93778207D01*
X115388329Y-93722274D01*
X115388335Y-93722266D01*
X115457288Y-93595985D01*
X115465920Y-93556298D01*
X115472303Y-93543081D01*
X115486290Y-93527621D01*
X115496283Y-93509320D01*
X115509260Y-93502233D01*
X115519180Y-93491270D01*
X115539307Y-93485826D01*
X115557606Y-93475834D01*
X115583967Y-93472999D01*
X117418782Y-93472999D01*
X117485821Y-93492684D01*
X117531576Y-93545488D01*
X117537757Y-93562060D01*
X117544628Y-93585459D01*
X117559909Y-93637502D01*
X117559912Y-93637507D01*
X117637694Y-93758537D01*
X117637702Y-93758548D01*
X117683446Y-93811340D01*
X117683449Y-93811343D01*
X117683453Y-93811347D01*
X117792187Y-93905567D01*
X117792190Y-93905568D01*
X117792191Y-93905569D01*
X117887059Y-93948895D01*
X117923064Y-93965338D01*
X117990103Y-93985023D01*
X117990107Y-93985024D01*
X118132523Y-94005500D01*
X118132526Y-94005500D01*
X118375990Y-94005500D01*
X118376000Y-94005500D01*
X118483456Y-93993947D01*
X118534967Y-93982741D01*
X118569197Y-93971347D01*
X118637497Y-93948616D01*
X118637501Y-93948613D01*
X118637504Y-93948613D01*
X118758543Y-93870825D01*
X118811347Y-93825070D01*
X118905567Y-93716336D01*
X118965338Y-93585459D01*
X118985023Y-93518420D01*
X118985024Y-93518416D01*
X119005500Y-93376000D01*
X119005500Y-93008390D01*
X118987400Y-92874331D01*
X118969958Y-92810917D01*
X118969957Y-92810914D01*
X118969956Y-92810911D01*
X118928130Y-92712702D01*
X118916955Y-92686461D01*
X118826527Y-92574549D01*
X118775327Y-92527006D01*
X118775326Y-92527005D01*
X118657035Y-92445105D01*
X118657033Y-92445104D01*
X118520456Y-92399847D01*
X118520458Y-92399847D01*
X118492945Y-92394921D01*
X118451680Y-92387532D01*
X118451685Y-92387532D01*
X118420232Y-92386450D01*
X118353910Y-92364470D01*
X118309999Y-92310123D01*
X118300499Y-92262523D01*
X118300499Y-91554514D01*
X119779999Y-91554514D01*
X119779999Y-91790485D01*
X119810798Y-92024414D01*
X119871869Y-92252337D01*
X119962159Y-92470319D01*
X119962164Y-92470328D01*
X120080143Y-92674671D01*
X120080144Y-92674672D01*
X120142720Y-92756223D01*
X120978957Y-91919987D01*
X121003977Y-91980390D01*
X121075111Y-92086851D01*
X121165648Y-92177388D01*
X121272109Y-92248522D01*
X121332510Y-92273541D01*
X120496274Y-93109777D01*
X120577826Y-93172354D01*
X120577827Y-93172355D01*
X120782170Y-93290334D01*
X120782179Y-93290339D01*
X121000162Y-93380629D01*
X121000160Y-93380629D01*
X121228084Y-93441700D01*
X121462013Y-93472499D01*
X121462028Y-93472500D01*
X121697970Y-93472500D01*
X121697984Y-93472499D01*
X121931913Y-93441700D01*
X122159836Y-93380629D01*
X122377818Y-93290339D01*
X122377827Y-93290334D01*
X122582180Y-93172350D01*
X122663722Y-93109779D01*
X122663722Y-93109776D01*
X121827486Y-92273541D01*
X121887889Y-92248522D01*
X121994350Y-92177388D01*
X122084887Y-92086851D01*
X122156021Y-91980390D01*
X122181040Y-91919987D01*
X123017275Y-92756223D01*
X123017278Y-92756223D01*
X123079849Y-92674681D01*
X123197833Y-92470328D01*
X123197838Y-92470319D01*
X123288128Y-92252337D01*
X123349199Y-92024414D01*
X123379998Y-91790485D01*
X123379999Y-91790471D01*
X123379999Y-91554528D01*
X123379998Y-91554514D01*
X124860000Y-91554514D01*
X124860000Y-91790485D01*
X124890799Y-92024414D01*
X124951870Y-92252337D01*
X125042160Y-92470319D01*
X125042165Y-92470328D01*
X125160144Y-92674671D01*
X125160145Y-92674672D01*
X125222721Y-92756223D01*
X126058958Y-91919987D01*
X126083978Y-91980390D01*
X126155112Y-92086851D01*
X126245649Y-92177388D01*
X126352110Y-92248522D01*
X126412511Y-92273541D01*
X125576275Y-93109777D01*
X125657827Y-93172354D01*
X125657828Y-93172355D01*
X125862171Y-93290334D01*
X125862180Y-93290339D01*
X126080163Y-93380629D01*
X126080161Y-93380629D01*
X126308085Y-93441700D01*
X126542014Y-93472499D01*
X126542029Y-93472500D01*
X126777971Y-93472500D01*
X126777985Y-93472499D01*
X127011914Y-93441700D01*
X127239837Y-93380629D01*
X127457819Y-93290339D01*
X127457828Y-93290334D01*
X127662181Y-93172350D01*
X127743723Y-93109779D01*
X127743723Y-93109776D01*
X126907487Y-92273541D01*
X126967890Y-92248522D01*
X127074351Y-92177388D01*
X127164888Y-92086851D01*
X127236022Y-91980390D01*
X127261041Y-91919988D01*
X128097276Y-92756223D01*
X128097279Y-92756223D01*
X128159850Y-92674681D01*
X128277834Y-92470328D01*
X128277839Y-92470319D01*
X128368129Y-92252337D01*
X128429200Y-92024414D01*
X128459999Y-91790485D01*
X128460000Y-91790471D01*
X128460000Y-91554521D01*
X128459997Y-91554495D01*
X129939500Y-91554495D01*
X129939500Y-91790504D01*
X129939501Y-91790520D01*
X129970293Y-92024414D01*
X129970307Y-92024514D01*
X129999121Y-92132048D01*
X130031394Y-92252493D01*
X130121714Y-92470545D01*
X130121719Y-92470556D01*
X130179262Y-92570222D01*
X130239727Y-92674950D01*
X130239729Y-92674953D01*
X130239730Y-92674954D01*
X130383406Y-92862197D01*
X130383412Y-92862204D01*
X130550295Y-93029087D01*
X130550302Y-93029093D01*
X130660306Y-93113501D01*
X130737550Y-93172773D01*
X130868918Y-93248618D01*
X130941943Y-93290780D01*
X130941948Y-93290782D01*
X130941951Y-93290784D01*
X131160007Y-93381106D01*
X131387986Y-93442193D01*
X131621989Y-93473000D01*
X131621996Y-93473000D01*
X131858004Y-93473000D01*
X131858011Y-93473000D01*
X132092014Y-93442193D01*
X132319993Y-93381106D01*
X132538049Y-93290784D01*
X132742450Y-93172773D01*
X132929699Y-93029092D01*
X133096592Y-92862199D01*
X133240273Y-92674950D01*
X133277772Y-92609999D01*
X133328339Y-92561784D01*
X133385159Y-92548000D01*
X135913731Y-92548000D01*
X135913732Y-92547999D01*
X136082874Y-92514355D01*
X136231735Y-92452695D01*
X136242198Y-92448361D01*
X136242198Y-92448360D01*
X136242205Y-92448358D01*
X136385599Y-92352545D01*
X146738157Y-81999987D01*
X153125001Y-81999987D01*
X153135494Y-82102698D01*
X153190641Y-82269120D01*
X153190643Y-82269125D01*
X153282684Y-82418346D01*
X153406654Y-82542316D01*
X153555875Y-82634357D01*
X153555880Y-82634359D01*
X153722302Y-82689506D01*
X153722309Y-82689507D01*
X153825019Y-82700000D01*
X154249999Y-82700000D01*
X154750000Y-82700000D01*
X155174972Y-82700000D01*
X155174986Y-82699999D01*
X155277697Y-82689506D01*
X155444119Y-82634359D01*
X155444124Y-82634357D01*
X155593345Y-82542316D01*
X155717315Y-82418346D01*
X155809356Y-82269125D01*
X155809358Y-82269120D01*
X155864505Y-82102698D01*
X155864506Y-82102691D01*
X155874999Y-81999987D01*
X155875000Y-81999974D01*
X155875000Y-81800001D01*
X154750000Y-81800001D01*
X154750000Y-82700000D01*
X154249999Y-82700000D01*
X154250000Y-82699999D01*
X154250000Y-81800001D01*
X153125001Y-81800001D01*
X153125001Y-81999987D01*
X146738157Y-81999987D01*
X147638130Y-81100014D01*
X153125000Y-81100014D01*
X153125000Y-81300001D01*
X154250000Y-81300001D01*
X154750000Y-81300001D01*
X155874999Y-81300001D01*
X155874999Y-81100029D01*
X155874998Y-81100014D01*
X155864505Y-80997303D01*
X155809358Y-80830881D01*
X155809356Y-80830876D01*
X155717315Y-80681655D01*
X155593345Y-80557685D01*
X155444124Y-80465644D01*
X155444119Y-80465642D01*
X155277697Y-80410495D01*
X155277690Y-80410494D01*
X155174986Y-80400001D01*
X154750000Y-80400001D01*
X154750000Y-81300001D01*
X154250000Y-81300001D01*
X154250000Y-80400001D01*
X153825028Y-80400001D01*
X153825012Y-80400002D01*
X153722302Y-80410495D01*
X153555880Y-80465642D01*
X153555875Y-80465644D01*
X153406654Y-80557685D01*
X153282684Y-80681655D01*
X153190643Y-80830876D01*
X153190641Y-80830881D01*
X153135494Y-80997303D01*
X153135493Y-80997310D01*
X153125000Y-81100014D01*
X147638130Y-81100014D01*
X148680045Y-80058099D01*
X148689389Y-80044114D01*
X148775858Y-79914705D01*
X148841855Y-79755374D01*
X148875500Y-79586229D01*
X148875500Y-72999500D01*
X148895185Y-72932461D01*
X148947989Y-72886706D01*
X148999500Y-72875500D01*
X149086231Y-72875500D01*
X149086232Y-72875499D01*
X149170266Y-72858784D01*
X149257251Y-72841482D01*
X149281442Y-72839099D01*
X149440400Y-72839099D01*
X149507439Y-72858784D01*
X149553194Y-72911588D01*
X149563690Y-72949846D01*
X149563908Y-72951880D01*
X149572034Y-72973666D01*
X149577018Y-73043358D01*
X149572035Y-73060331D01*
X149563909Y-73082116D01*
X149563909Y-73082117D01*
X149563909Y-73082118D01*
X149557500Y-73141728D01*
X149557500Y-73141735D01*
X149557500Y-73141736D01*
X149557500Y-73542271D01*
X149557501Y-73542277D01*
X149563908Y-73601884D01*
X149572033Y-73623667D01*
X149577017Y-73693359D01*
X149572034Y-73710330D01*
X149565635Y-73727489D01*
X149563909Y-73732116D01*
X149557500Y-73791726D01*
X149557500Y-73791733D01*
X149557500Y-73791734D01*
X149557500Y-74192269D01*
X149557501Y-74192275D01*
X149563908Y-74251882D01*
X149614202Y-74386727D01*
X149614206Y-74386734D01*
X149700452Y-74501943D01*
X149700455Y-74501946D01*
X149815664Y-74588192D01*
X149815671Y-74588196D01*
X149950517Y-74638490D01*
X149950516Y-74638490D01*
X149957444Y-74639234D01*
X150010127Y-74644899D01*
X151819872Y-74644898D01*
X151879483Y-74638490D01*
X151981830Y-74600317D01*
X152025163Y-74592499D01*
X152641901Y-74592499D01*
X152708940Y-74612184D01*
X152729582Y-74628818D01*
X153089902Y-74989138D01*
X153123387Y-75050461D01*
X153125580Y-75089415D01*
X153124500Y-75099987D01*
X153124500Y-76000002D01*
X153124501Y-76000020D01*
X153135000Y-76102797D01*
X153135001Y-76102800D01*
X153173188Y-76218039D01*
X153190186Y-76269335D01*
X153282288Y-76418657D01*
X153406344Y-76542713D01*
X153555666Y-76634815D01*
X153722203Y-76690000D01*
X153788103Y-76696732D01*
X153852794Y-76723128D01*
X153892945Y-76780308D01*
X153899500Y-76820090D01*
X153899500Y-77179910D01*
X153879815Y-77246949D01*
X153827011Y-77292704D01*
X153788102Y-77303268D01*
X153722202Y-77310000D01*
X153722200Y-77310000D01*
X153555668Y-77365184D01*
X153555663Y-77365186D01*
X153406342Y-77457288D01*
X153282289Y-77581341D01*
X153190187Y-77730662D01*
X153190186Y-77730665D01*
X153135001Y-77897202D01*
X153135001Y-77897203D01*
X153135000Y-77897203D01*
X153124500Y-77999982D01*
X153124500Y-78900000D01*
X153124501Y-78900018D01*
X153135000Y-79002795D01*
X153135001Y-79002798D01*
X153144305Y-79030875D01*
X153190186Y-79169333D01*
X153282288Y-79318655D01*
X153406344Y-79442711D01*
X153555666Y-79534813D01*
X153722203Y-79589998D01*
X153824991Y-79600499D01*
X155175008Y-79600498D01*
X155277797Y-79589998D01*
X155444334Y-79534813D01*
X155593656Y-79442711D01*
X155717712Y-79318655D01*
X155809814Y-79169333D01*
X155864999Y-79002796D01*
X155875500Y-78900008D01*
X155875499Y-77999991D01*
X155872345Y-77969119D01*
X155864999Y-77897202D01*
X155864998Y-77897199D01*
X155833683Y-77802697D01*
X155809814Y-77730665D01*
X155717712Y-77581343D01*
X155593656Y-77457287D01*
X155444334Y-77365185D01*
X155277797Y-77310000D01*
X155277794Y-77309999D01*
X155211897Y-77303267D01*
X155147205Y-77276870D01*
X155107054Y-77219689D01*
X155100500Y-77179909D01*
X155100500Y-76820089D01*
X155120185Y-76753050D01*
X155172989Y-76707295D01*
X155211897Y-76696731D01*
X155277797Y-76690000D01*
X155444334Y-76634815D01*
X155593656Y-76542713D01*
X155717712Y-76418657D01*
X155809814Y-76269335D01*
X155864999Y-76102798D01*
X155875500Y-76000010D01*
X155875499Y-75099993D01*
X155874418Y-75089415D01*
X155864999Y-74997204D01*
X155864998Y-74997201D01*
X155862326Y-74989138D01*
X155809814Y-74830667D01*
X155717712Y-74681345D01*
X155593656Y-74557289D01*
X155444334Y-74465187D01*
X155277797Y-74410002D01*
X155277795Y-74410001D01*
X155175016Y-74399501D01*
X155175009Y-74399501D01*
X154250098Y-74399501D01*
X154183059Y-74379816D01*
X154162417Y-74363182D01*
X153879054Y-74079819D01*
X153594172Y-73794938D01*
X153560688Y-73733616D01*
X153565672Y-73663925D01*
X153607543Y-73607991D01*
X153673008Y-73583574D01*
X153715520Y-73588885D01*
X153715586Y-73588581D01*
X153719090Y-73589331D01*
X153720857Y-73589552D01*
X153722203Y-73589998D01*
X153824991Y-73600499D01*
X155175008Y-73600498D01*
X155277797Y-73589998D01*
X155444334Y-73534813D01*
X155593656Y-73442711D01*
X155717712Y-73318655D01*
X155809814Y-73169333D01*
X155864999Y-73002796D01*
X155875500Y-72900008D01*
X155875499Y-71999991D01*
X155873208Y-71977567D01*
X155864999Y-71897202D01*
X155864998Y-71897199D01*
X155846615Y-71841724D01*
X155809814Y-71730665D01*
X155717712Y-71581343D01*
X155593656Y-71457287D01*
X155444334Y-71365185D01*
X155277797Y-71310000D01*
X155277795Y-71309999D01*
X155235916Y-71305721D01*
X155171225Y-71279324D01*
X155131074Y-71222143D01*
X155128212Y-71152332D01*
X155142982Y-71117266D01*
X155234353Y-70969130D01*
X155234358Y-70969119D01*
X155289505Y-70802697D01*
X155289506Y-70802690D01*
X155299999Y-70699986D01*
X155300000Y-70699973D01*
X155300000Y-70250000D01*
X152975001Y-70250000D01*
X152975001Y-70699986D01*
X152985494Y-70802697D01*
X153040641Y-70969119D01*
X153040643Y-70969124D01*
X153051122Y-70986112D01*
X153069562Y-71053505D01*
X153048639Y-71120168D01*
X152994997Y-71164938D01*
X152925667Y-71173599D01*
X152876692Y-71154311D01*
X152780810Y-71090244D01*
X152780797Y-71090237D01*
X152621477Y-71024245D01*
X152621465Y-71024242D01*
X152452331Y-70990599D01*
X152452328Y-70990599D01*
X152274487Y-70990599D01*
X152207448Y-70970914D01*
X152161693Y-70918110D01*
X152151749Y-70848952D01*
X152156778Y-70827605D01*
X152164999Y-70802797D01*
X152175500Y-70700009D01*
X152175499Y-69300013D01*
X152975000Y-69300013D01*
X152975000Y-69750000D01*
X153887500Y-69750000D01*
X153887500Y-68606705D01*
X154387500Y-68606705D01*
X154387500Y-69750000D01*
X155299999Y-69750000D01*
X155299999Y-69300028D01*
X155299998Y-69300013D01*
X155289505Y-69197302D01*
X155234358Y-69030880D01*
X155234356Y-69030875D01*
X155142315Y-68881654D01*
X155018345Y-68757684D01*
X154869124Y-68665643D01*
X154869119Y-68665641D01*
X154755052Y-68627843D01*
X154697607Y-68588070D01*
X154670784Y-68523554D01*
X154683099Y-68454778D01*
X154730642Y-68403579D01*
X154759036Y-68392442D01*
X154758769Y-68391636D01*
X154931619Y-68334358D01*
X154931624Y-68334356D01*
X155080845Y-68242315D01*
X155204815Y-68118345D01*
X155296856Y-67969124D01*
X155296858Y-67969119D01*
X155352005Y-67802697D01*
X155352006Y-67802690D01*
X155362499Y-67699986D01*
X155362500Y-67699973D01*
X155362500Y-67250000D01*
X154450000Y-67250000D01*
X154450000Y-68409709D01*
X154471805Y-68449642D01*
X154466821Y-68519334D01*
X154430036Y-68571248D01*
X154387500Y-68606705D01*
X153887500Y-68606705D01*
X153887500Y-68590289D01*
X153886288Y-68588070D01*
X153865695Y-68550360D01*
X153865988Y-68546269D01*
X153867612Y-68523554D01*
X153870678Y-68480668D01*
X153870678Y-68480666D01*
X153870679Y-68480665D01*
X153895984Y-68446862D01*
X153912549Y-68424733D01*
X153912550Y-68424732D01*
X153912551Y-68424732D01*
X153924661Y-68420215D01*
X153932831Y-68417167D01*
X153950000Y-68399998D01*
X153950000Y-67250000D01*
X153037501Y-67250000D01*
X153037501Y-67699986D01*
X153047994Y-67802697D01*
X153103141Y-67969119D01*
X153103143Y-67969124D01*
X153195184Y-68118345D01*
X153319154Y-68242315D01*
X153468375Y-68334356D01*
X153468380Y-68334358D01*
X153582447Y-68372156D01*
X153639892Y-68411928D01*
X153666715Y-68476444D01*
X153654400Y-68545220D01*
X153606857Y-68596420D01*
X153578464Y-68607560D01*
X153578731Y-68608364D01*
X153405880Y-68665641D01*
X153405875Y-68665643D01*
X153256654Y-68757684D01*
X153132684Y-68881654D01*
X153040643Y-69030875D01*
X153040641Y-69030880D01*
X152985494Y-69197302D01*
X152985493Y-69197309D01*
X152975000Y-69300013D01*
X152175499Y-69300013D01*
X152175499Y-69299992D01*
X152164999Y-69197203D01*
X152109814Y-69030666D01*
X152017712Y-68881344D01*
X151924319Y-68787951D01*
X151890834Y-68726628D01*
X151888000Y-68700270D01*
X151888000Y-68353957D01*
X151907685Y-68286918D01*
X151946907Y-68248416D01*
X151956156Y-68242712D01*
X152080212Y-68118656D01*
X152172314Y-67969334D01*
X152227499Y-67802797D01*
X152238000Y-67700009D01*
X152237999Y-66300013D01*
X153037500Y-66300013D01*
X153037500Y-66750000D01*
X153950000Y-66750000D01*
X154450000Y-66750000D01*
X155362499Y-66750000D01*
X155362499Y-66300028D01*
X155362498Y-66300013D01*
X155352005Y-66197302D01*
X155296858Y-66030880D01*
X155296856Y-66030875D01*
X155204815Y-65881654D01*
X155080845Y-65757684D01*
X154931624Y-65665643D01*
X154931619Y-65665641D01*
X154765197Y-65610494D01*
X154765190Y-65610493D01*
X154662486Y-65600000D01*
X154450000Y-65600000D01*
X154450000Y-66750000D01*
X153950000Y-66750000D01*
X153950000Y-65600000D01*
X153737529Y-65600000D01*
X153737512Y-65600001D01*
X153634802Y-65610494D01*
X153468380Y-65665641D01*
X153468375Y-65665643D01*
X153319154Y-65757684D01*
X153195184Y-65881654D01*
X153103143Y-66030875D01*
X153103141Y-66030880D01*
X153047994Y-66197302D01*
X153047993Y-66197309D01*
X153037500Y-66300013D01*
X152237999Y-66300013D01*
X152237999Y-66299992D01*
X152227499Y-66197203D01*
X152172314Y-66030666D01*
X152080212Y-65881344D01*
X151956156Y-65757288D01*
X151863388Y-65700069D01*
X151806836Y-65665187D01*
X151806831Y-65665185D01*
X151805362Y-65664698D01*
X151640297Y-65610001D01*
X151640295Y-65610000D01*
X151537510Y-65599500D01*
X150612498Y-65599500D01*
X150612480Y-65599501D01*
X150509703Y-65610000D01*
X150509700Y-65610001D01*
X150343168Y-65665185D01*
X150343163Y-65665187D01*
X150193842Y-65757289D01*
X150069789Y-65881342D01*
X149977687Y-66030663D01*
X149977685Y-66030668D01*
X149977615Y-66030880D01*
X149922501Y-66197203D01*
X149922501Y-66197204D01*
X149922500Y-66197204D01*
X149912000Y-66299983D01*
X149912000Y-67700001D01*
X149912001Y-67700018D01*
X149922500Y-67802796D01*
X149922501Y-67802799D01*
X149977685Y-67969331D01*
X149977687Y-67969336D01*
X149983943Y-67979478D01*
X150069596Y-68118345D01*
X150069789Y-68118657D01*
X150100681Y-68149549D01*
X150134166Y-68210872D01*
X150137000Y-68237230D01*
X150137000Y-68700270D01*
X150117315Y-68767309D01*
X150100681Y-68787951D01*
X150007289Y-68881342D01*
X149915187Y-69030663D01*
X149915185Y-69030668D01*
X149915115Y-69030880D01*
X149860001Y-69197203D01*
X149860001Y-69197204D01*
X149860000Y-69197204D01*
X149849500Y-69299983D01*
X149849500Y-70700001D01*
X149849501Y-70700018D01*
X149860000Y-70802796D01*
X149868218Y-70827594D01*
X149900527Y-70925096D01*
X149902929Y-70994923D01*
X149867198Y-71054965D01*
X149804677Y-71086158D01*
X149782821Y-71088099D01*
X148950169Y-71088099D01*
X148779150Y-71122117D01*
X148754959Y-71124500D01*
X147913768Y-71124500D01*
X147744633Y-71158143D01*
X147744621Y-71158146D01*
X147585301Y-71224138D01*
X147585288Y-71224145D01*
X147441901Y-71319954D01*
X147441897Y-71319957D01*
X147319957Y-71441897D01*
X147319954Y-71441901D01*
X147224145Y-71585288D01*
X147224138Y-71585301D01*
X147158146Y-71744621D01*
X147158143Y-71744633D01*
X147124500Y-71913766D01*
X147124500Y-79085994D01*
X147104815Y-79153033D01*
X147088181Y-79173675D01*
X135501175Y-90760681D01*
X135439852Y-90794166D01*
X135413494Y-90797000D01*
X133385159Y-90797000D01*
X133318120Y-90777315D01*
X133277772Y-90735000D01*
X133240277Y-90670056D01*
X133240266Y-90670041D01*
X133096593Y-90482802D01*
X133096587Y-90482795D01*
X132929704Y-90315912D01*
X132929697Y-90315906D01*
X132742454Y-90172230D01*
X132742453Y-90172229D01*
X132742450Y-90172227D01*
X132660957Y-90125177D01*
X132538056Y-90054219D01*
X132538045Y-90054214D01*
X132319993Y-89963894D01*
X132092010Y-89902806D01*
X131858020Y-89872001D01*
X131858017Y-89872000D01*
X131858011Y-89872000D01*
X131621989Y-89872000D01*
X131621983Y-89872000D01*
X131621979Y-89872001D01*
X131387989Y-89902806D01*
X131160006Y-89963894D01*
X130941954Y-90054214D01*
X130941943Y-90054219D01*
X130737545Y-90172230D01*
X130550302Y-90315906D01*
X130550295Y-90315912D01*
X130383412Y-90482795D01*
X130383406Y-90482802D01*
X130239730Y-90670045D01*
X130239727Y-90670049D01*
X130239727Y-90670050D01*
X130235750Y-90676939D01*
X130121719Y-90874443D01*
X130121714Y-90874454D01*
X130031394Y-91092506D01*
X129970306Y-91320489D01*
X129939501Y-91554479D01*
X129939500Y-91554495D01*
X128459997Y-91554495D01*
X128429200Y-91320585D01*
X128368129Y-91092662D01*
X128277839Y-90874680D01*
X128277834Y-90874671D01*
X128159855Y-90670328D01*
X128159854Y-90670327D01*
X128097277Y-90588775D01*
X127261041Y-91425011D01*
X127236022Y-91364610D01*
X127164888Y-91258149D01*
X127074351Y-91167612D01*
X126967890Y-91096478D01*
X126907488Y-91071458D01*
X127743723Y-90235221D01*
X127662172Y-90172645D01*
X127662171Y-90172644D01*
X127457828Y-90054665D01*
X127457819Y-90054660D01*
X127239836Y-89964370D01*
X127239838Y-89964370D01*
X127011914Y-89903299D01*
X126777985Y-89872500D01*
X126542014Y-89872500D01*
X126308085Y-89903299D01*
X126080162Y-89964370D01*
X125862180Y-90054660D01*
X125862171Y-90054665D01*
X125657828Y-90172644D01*
X125657818Y-90172650D01*
X125576275Y-90235220D01*
X125576275Y-90235221D01*
X126412512Y-91071458D01*
X126352110Y-91096478D01*
X126245649Y-91167612D01*
X126155112Y-91258149D01*
X126083978Y-91364610D01*
X126058958Y-91425011D01*
X125222721Y-90588775D01*
X125222720Y-90588775D01*
X125160150Y-90670318D01*
X125160144Y-90670328D01*
X125042165Y-90874671D01*
X125042160Y-90874680D01*
X124951870Y-91092662D01*
X124890799Y-91320585D01*
X124860000Y-91554514D01*
X123379998Y-91554514D01*
X123349199Y-91320585D01*
X123288128Y-91092662D01*
X123197838Y-90874680D01*
X123197833Y-90874671D01*
X123079854Y-90670328D01*
X123079853Y-90670327D01*
X123017276Y-90588775D01*
X122181040Y-91425011D01*
X122156021Y-91364610D01*
X122084887Y-91258149D01*
X121994350Y-91167612D01*
X121887889Y-91096478D01*
X121827487Y-91071458D01*
X122663722Y-90235221D01*
X122582171Y-90172645D01*
X122582170Y-90172644D01*
X122377827Y-90054665D01*
X122377818Y-90054660D01*
X122159835Y-89964370D01*
X122159837Y-89964370D01*
X121931913Y-89903299D01*
X121697984Y-89872500D01*
X121462013Y-89872500D01*
X121228084Y-89903299D01*
X121000161Y-89964370D01*
X120782179Y-90054660D01*
X120782170Y-90054665D01*
X120577827Y-90172644D01*
X120577817Y-90172650D01*
X120496274Y-90235220D01*
X120496274Y-90235221D01*
X121332511Y-91071458D01*
X121272109Y-91096478D01*
X121165648Y-91167612D01*
X121075111Y-91258149D01*
X121003977Y-91364610D01*
X120978957Y-91425011D01*
X120142720Y-90588775D01*
X120142719Y-90588775D01*
X120080149Y-90670318D01*
X120080143Y-90670328D01*
X119962164Y-90874671D01*
X119962159Y-90874680D01*
X119871869Y-91092662D01*
X119810798Y-91320585D01*
X119779999Y-91554514D01*
X118300499Y-91554514D01*
X118300499Y-91083700D01*
X118320184Y-91016661D01*
X118372988Y-90970906D01*
X118424499Y-90959700D01*
X118430293Y-90959700D01*
X118430297Y-90959700D01*
X118499455Y-90949756D01*
X118637504Y-90909221D01*
X118758543Y-90831433D01*
X118811347Y-90785678D01*
X118905567Y-90676944D01*
X118965338Y-90546067D01*
X118985023Y-90479028D01*
X118985024Y-90479024D01*
X119005500Y-90336608D01*
X119005500Y-85624000D01*
X118993947Y-85516544D01*
X118982741Y-85465033D01*
X118982637Y-85464722D01*
X118948616Y-85362502D01*
X118948613Y-85362496D01*
X118870828Y-85241462D01*
X118870825Y-85241457D01*
X118870820Y-85241451D01*
X118825076Y-85188659D01*
X118825072Y-85188656D01*
X118825070Y-85188653D01*
X118716336Y-85094433D01*
X118716333Y-85094431D01*
X118716331Y-85094430D01*
X118585465Y-85034664D01*
X118585460Y-85034662D01*
X118585459Y-85034662D01*
X118518420Y-85014977D01*
X118518422Y-85014977D01*
X118518417Y-85014976D01*
X118470944Y-85008150D01*
X118376000Y-84994500D01*
X118375998Y-84994500D01*
X115632786Y-84994500D01*
X115565747Y-84974815D01*
X115519992Y-84922011D01*
X115508788Y-84869854D01*
X115514181Y-83834353D01*
X115527024Y-81368461D01*
X115547056Y-81301530D01*
X115600098Y-81256051D01*
X115669307Y-81246468D01*
X115716118Y-81263573D01*
X115830875Y-81334356D01*
X115830880Y-81334358D01*
X115997302Y-81389505D01*
X115997309Y-81389506D01*
X116100019Y-81399999D01*
X116312499Y-81399999D01*
X116812500Y-81399999D01*
X117024972Y-81399999D01*
X117024986Y-81399998D01*
X117127697Y-81389505D01*
X117294119Y-81334358D01*
X117294124Y-81334356D01*
X117443345Y-81242315D01*
X117567315Y-81118345D01*
X117659356Y-80969124D01*
X117659358Y-80969119D01*
X117714505Y-80802697D01*
X117714506Y-80802690D01*
X117724999Y-80699986D01*
X117725000Y-80699973D01*
X117725000Y-80250000D01*
X116812500Y-80250000D01*
X116812500Y-81399999D01*
X116312499Y-81399999D01*
X116312500Y-81399998D01*
X116312500Y-78600000D01*
X116812500Y-78600000D01*
X116812500Y-79750000D01*
X117724999Y-79750000D01*
X117724999Y-79300028D01*
X117724998Y-79300013D01*
X117714505Y-79197302D01*
X117659358Y-79030880D01*
X117659356Y-79030875D01*
X117567315Y-78881654D01*
X117443345Y-78757684D01*
X117294124Y-78665643D01*
X117294119Y-78665641D01*
X117180052Y-78627843D01*
X117122607Y-78588070D01*
X117095784Y-78523554D01*
X117108099Y-78454778D01*
X117155642Y-78403579D01*
X117184036Y-78392442D01*
X117183769Y-78391636D01*
X117356619Y-78334358D01*
X117356624Y-78334356D01*
X117505845Y-78242315D01*
X117629815Y-78118345D01*
X117721856Y-77969124D01*
X117721858Y-77969119D01*
X117777005Y-77802697D01*
X117777006Y-77802690D01*
X117787499Y-77699986D01*
X117787500Y-77699973D01*
X117787500Y-77250000D01*
X116875000Y-77250000D01*
X116875000Y-78409709D01*
X116896805Y-78449642D01*
X116891821Y-78519334D01*
X116849949Y-78575267D01*
X116829668Y-78582831D01*
X116812500Y-78600000D01*
X116312500Y-78600000D01*
X116312500Y-78590289D01*
X116311288Y-78588070D01*
X116290695Y-78550360D01*
X116291063Y-78545220D01*
X116292612Y-78523554D01*
X116295678Y-78480668D01*
X116295678Y-78480666D01*
X116295679Y-78480665D01*
X116328312Y-78437073D01*
X116337549Y-78424733D01*
X116337550Y-78424732D01*
X116337551Y-78424732D01*
X116349661Y-78420215D01*
X116357831Y-78417167D01*
X116375000Y-78399998D01*
X116375000Y-76962486D01*
X121600001Y-76962486D01*
X121610494Y-77065197D01*
X121665641Y-77231619D01*
X121665643Y-77231624D01*
X121757684Y-77380845D01*
X121881654Y-77504815D01*
X122030875Y-77596856D01*
X122030880Y-77596858D01*
X122197302Y-77652005D01*
X122197309Y-77652006D01*
X122300019Y-77662499D01*
X122749999Y-77662499D01*
X123250000Y-77662499D01*
X123699972Y-77662499D01*
X123699986Y-77662498D01*
X123802697Y-77652005D01*
X123969119Y-77596858D01*
X123969124Y-77596856D01*
X124118345Y-77504815D01*
X124242315Y-77380845D01*
X124334356Y-77231624D01*
X124334358Y-77231619D01*
X124389505Y-77065197D01*
X124389506Y-77065190D01*
X124399999Y-76962486D01*
X124400000Y-76962473D01*
X124400000Y-76750000D01*
X123250000Y-76750000D01*
X123250000Y-77662499D01*
X122749999Y-77662499D01*
X122750000Y-77662498D01*
X122750000Y-76750000D01*
X121600001Y-76750000D01*
X121600001Y-76962486D01*
X116375000Y-76962486D01*
X116375000Y-76750000D01*
X116875000Y-76750000D01*
X117787499Y-76750000D01*
X117787499Y-76300028D01*
X117787498Y-76300013D01*
X117777006Y-76197304D01*
X117735937Y-76073369D01*
X117735936Y-76073366D01*
X117724056Y-76037513D01*
X121600000Y-76037513D01*
X121600000Y-76250000D01*
X122750000Y-76250000D01*
X123250000Y-76250000D01*
X124399999Y-76250000D01*
X124399999Y-76037528D01*
X124399998Y-76037513D01*
X124389505Y-75934802D01*
X124334358Y-75768380D01*
X124334356Y-75768375D01*
X124242315Y-75619154D01*
X124118345Y-75495184D01*
X123969124Y-75403143D01*
X123969119Y-75403141D01*
X123802697Y-75347994D01*
X123802690Y-75347993D01*
X123699986Y-75337500D01*
X123250000Y-75337500D01*
X123250000Y-76250000D01*
X122750000Y-76250000D01*
X122750000Y-75337500D01*
X122300028Y-75337500D01*
X122300012Y-75337501D01*
X122197302Y-75347994D01*
X122030880Y-75403141D01*
X122030875Y-75403143D01*
X121881654Y-75495184D01*
X121757684Y-75619154D01*
X121665643Y-75768375D01*
X121665641Y-75768380D01*
X121610494Y-75934802D01*
X121610493Y-75934809D01*
X121600000Y-76037513D01*
X117724056Y-76037513D01*
X117721859Y-76030882D01*
X117721856Y-76030875D01*
X117629815Y-75881654D01*
X117505845Y-75757684D01*
X117356624Y-75665643D01*
X117356619Y-75665641D01*
X117190197Y-75610494D01*
X117190190Y-75610493D01*
X117087486Y-75600000D01*
X116875000Y-75600000D01*
X116875000Y-76750000D01*
X116375000Y-76750000D01*
X116375000Y-75600000D01*
X116162529Y-75600000D01*
X116162512Y-75600001D01*
X116059802Y-75610494D01*
X115893380Y-75665641D01*
X115893371Y-75665645D01*
X115745899Y-75756607D01*
X115678507Y-75775047D01*
X115611844Y-75754124D01*
X115567074Y-75700482D01*
X115556805Y-75650425D01*
X115564165Y-74237427D01*
X115553822Y-74133025D01*
X115549267Y-74110863D01*
X115549056Y-74110906D01*
X115545744Y-74093859D01*
X115545772Y-74093854D01*
X115545251Y-74091324D01*
X115545124Y-74090666D01*
X115545141Y-74090481D01*
X115543773Y-74082129D01*
X115542190Y-74069243D01*
X115541883Y-74068532D01*
X115533474Y-74049070D01*
X115529091Y-74037329D01*
X115511860Y-73982899D01*
X115493391Y-73953002D01*
X115487087Y-73941470D01*
X115486037Y-73939280D01*
X115485122Y-73937163D01*
X115481395Y-73931093D01*
X115456149Y-73889976D01*
X115456137Y-73889959D01*
X115448565Y-73877626D01*
X115443658Y-73871722D01*
X115440390Y-73866946D01*
X115440114Y-73866098D01*
X115437229Y-73862086D01*
X115436244Y-73860491D01*
X115419402Y-73840339D01*
X115393089Y-73808854D01*
X115384481Y-73800521D01*
X115356610Y-73766986D01*
X115356608Y-73766984D01*
X115349919Y-73760942D01*
X115349893Y-73760920D01*
X115328038Y-73743895D01*
X115316562Y-73733756D01*
X115295351Y-73712545D01*
X115295339Y-73712533D01*
X115276695Y-73694814D01*
X115276687Y-73694806D01*
X115274365Y-73692710D01*
X115274353Y-73692699D01*
X115252286Y-73674685D01*
X115235301Y-73660819D01*
X115215404Y-73646167D01*
X115215387Y-73646156D01*
X115173451Y-73618383D01*
X115166877Y-73615663D01*
X115166877Y-73615662D01*
X115158802Y-73612320D01*
X115125662Y-73592768D01*
X115065907Y-73573879D01*
X115060959Y-73571832D01*
X115040512Y-73563370D01*
X115039312Y-73563065D01*
X115038848Y-73562946D01*
X115038835Y-73562943D01*
X115003421Y-73553916D01*
X115003421Y-73553917D01*
X114999995Y-73553045D01*
X114988472Y-73549403D01*
X114980537Y-73548094D01*
X114975381Y-73546783D01*
X114975380Y-73546782D01*
X114975377Y-73546782D01*
X114972694Y-73546099D01*
X114972687Y-73546098D01*
X114964108Y-73545180D01*
X114957158Y-73544237D01*
X114933877Y-73540404D01*
X114933852Y-73540400D01*
X114919460Y-73538027D01*
X114917830Y-73537994D01*
X114917186Y-73537790D01*
X114916788Y-73537782D01*
X114915105Y-73537628D01*
X114915133Y-73537314D01*
X114908513Y-73536223D01*
X114908697Y-73535106D01*
X114851210Y-73516933D01*
X114806552Y-73463198D01*
X114801855Y-73449698D01*
X114801044Y-73447740D01*
X114801044Y-73447738D01*
X114792162Y-73426297D01*
X114784694Y-73356828D01*
X114792164Y-73331390D01*
X114800555Y-73311132D01*
X114800555Y-73311131D01*
X114815999Y-73193830D01*
X114816000Y-73193816D01*
X114816000Y-73179000D01*
X114835685Y-73111961D01*
X114888489Y-73066206D01*
X114940000Y-73055000D01*
X115740500Y-73055000D01*
X115807539Y-73074685D01*
X115853294Y-73127489D01*
X115864500Y-73179000D01*
X115864500Y-73929001D01*
X115864501Y-73929019D01*
X115875000Y-74031796D01*
X115875001Y-74031799D01*
X115930185Y-74198331D01*
X115930187Y-74198336D01*
X115953924Y-74236819D01*
X116022288Y-74347656D01*
X116146344Y-74471712D01*
X116295666Y-74563814D01*
X116462203Y-74618999D01*
X116564991Y-74629500D01*
X117465008Y-74629499D01*
X117465016Y-74629498D01*
X117465019Y-74629498D01*
X117533847Y-74622467D01*
X117567797Y-74618999D01*
X117734334Y-74563814D01*
X117883656Y-74471712D01*
X118007712Y-74347656D01*
X118099814Y-74198334D01*
X118154999Y-74031797D01*
X118165500Y-73929009D01*
X118165499Y-72578992D01*
X118165498Y-72578983D01*
X118964500Y-72578983D01*
X118964500Y-73929001D01*
X118964501Y-73929018D01*
X118975000Y-74031796D01*
X118975001Y-74031799D01*
X119030185Y-74198331D01*
X119030187Y-74198336D01*
X119053924Y-74236819D01*
X119122288Y-74347656D01*
X119246344Y-74471712D01*
X119395666Y-74563814D01*
X119562203Y-74618999D01*
X119664991Y-74629500D01*
X120565008Y-74629499D01*
X120565016Y-74629498D01*
X120565019Y-74629498D01*
X120633847Y-74622467D01*
X120667797Y-74618999D01*
X120834334Y-74563814D01*
X120983656Y-74471712D01*
X121107712Y-74347656D01*
X121199814Y-74198334D01*
X121254999Y-74031797D01*
X121256623Y-74015898D01*
X121257617Y-74013460D01*
X121257243Y-74010853D01*
X121270742Y-73981292D01*
X121283018Y-73951207D01*
X121285173Y-73949693D01*
X121286268Y-73947297D01*
X121313604Y-73929729D01*
X121340198Y-73911055D01*
X121343511Y-73910508D01*
X121345046Y-73909523D01*
X121379981Y-73904500D01*
X121508599Y-73904500D01*
X121575638Y-73924185D01*
X121621393Y-73976989D01*
X121626300Y-73989485D01*
X121643757Y-74042165D01*
X121665184Y-74106829D01*
X121665187Y-74106836D01*
X121680267Y-74131284D01*
X121757288Y-74256156D01*
X121881344Y-74380212D01*
X122030666Y-74472314D01*
X122197203Y-74527499D01*
X122299991Y-74538000D01*
X123700008Y-74537999D01*
X123802797Y-74527499D01*
X123969334Y-74472314D01*
X124118656Y-74380212D01*
X124242712Y-74256156D01*
X124334814Y-74106834D01*
X124340791Y-74088793D01*
X124380564Y-74031350D01*
X124445081Y-74004528D01*
X124458497Y-74003800D01*
X127035231Y-74003800D01*
X143148000Y-74003800D01*
X143215039Y-74023485D01*
X143260794Y-74076289D01*
X143272000Y-74127800D01*
X143272000Y-74192243D01*
X143278401Y-74251771D01*
X143278403Y-74251778D01*
X143328645Y-74386485D01*
X143328649Y-74386492D01*
X143414809Y-74501586D01*
X143414812Y-74501589D01*
X143529904Y-74587748D01*
X143529913Y-74587753D01*
X143664620Y-74637995D01*
X143664627Y-74637997D01*
X143724155Y-74644398D01*
X143724172Y-74644399D01*
X144476600Y-74644399D01*
X144476600Y-74141499D01*
X144479150Y-74132813D01*
X144477862Y-74123852D01*
X144488840Y-74099811D01*
X144496285Y-74074460D01*
X144503125Y-74068532D01*
X144506887Y-74060296D01*
X144529121Y-74046006D01*
X144549089Y-74028705D01*
X144559603Y-74026417D01*
X144565665Y-74022522D01*
X144600596Y-74017499D01*
X144657401Y-74017499D01*
X144724439Y-74037184D01*
X144770194Y-74089988D01*
X144781400Y-74141499D01*
X144781400Y-74644399D01*
X145533828Y-74644399D01*
X145533844Y-74644398D01*
X145593372Y-74637997D01*
X145593379Y-74637995D01*
X145728086Y-74587753D01*
X145728096Y-74587748D01*
X145843187Y-74501589D01*
X145843190Y-74501586D01*
X145929350Y-74386492D01*
X145929354Y-74386485D01*
X145979596Y-74251778D01*
X145979598Y-74251771D01*
X145985999Y-74192243D01*
X145986000Y-74192226D01*
X145986000Y-74144399D01*
X145855626Y-74144399D01*
X145826788Y-74135931D01*
X145797351Y-74129852D01*
X145793609Y-74126188D01*
X145788587Y-74124714D01*
X145768907Y-74102003D01*
X145747427Y-74080971D01*
X145746259Y-74075865D01*
X145742832Y-74071910D01*
X145738555Y-74042165D01*
X145731855Y-74012859D01*
X145733633Y-74007933D01*
X145732888Y-74002752D01*
X145745373Y-73975413D01*
X145755580Y-73947140D01*
X145760603Y-73942063D01*
X145761913Y-73939196D01*
X145780272Y-73921922D01*
X145780817Y-73921504D01*
X145843546Y-73874546D01*
X145845369Y-73872110D01*
X145854502Y-73865122D01*
X145879752Y-73855399D01*
X145903498Y-73842433D01*
X145917271Y-73840952D01*
X145919705Y-73840015D01*
X145921855Y-73840459D01*
X145929856Y-73839599D01*
X145986000Y-73839599D01*
X145986000Y-73791771D01*
X145985999Y-73791754D01*
X145979597Y-73732221D01*
X145979597Y-73732219D01*
X145975916Y-73722350D01*
X145970929Y-73652659D01*
X145975914Y-73635681D01*
X145980091Y-73624483D01*
X145986500Y-73564873D01*
X145986499Y-73141728D01*
X145980091Y-73082117D01*
X145971965Y-73060333D01*
X145966980Y-72990643D01*
X145971963Y-72973672D01*
X145980091Y-72951882D01*
X145986500Y-72892272D01*
X145986499Y-72491727D01*
X145980091Y-72432116D01*
X145979028Y-72429267D01*
X145971967Y-72410335D01*
X145966981Y-72340644D01*
X145971963Y-72323673D01*
X145980091Y-72301884D01*
X145986500Y-72242274D01*
X145986499Y-71841729D01*
X145980091Y-71782118D01*
X145979286Y-71779961D01*
X145929797Y-71647272D01*
X145929793Y-71647265D01*
X145843547Y-71532056D01*
X145843544Y-71532053D01*
X145728335Y-71445807D01*
X145728328Y-71445803D01*
X145593482Y-71395509D01*
X145593483Y-71395509D01*
X145533883Y-71389102D01*
X145533881Y-71389101D01*
X145533873Y-71389101D01*
X145533865Y-71389101D01*
X143860409Y-71389101D01*
X143793370Y-71369416D01*
X143772728Y-71352782D01*
X143186819Y-70766873D01*
X143153334Y-70705550D01*
X143150500Y-70679192D01*
X143150500Y-69935928D01*
X143125502Y-69810261D01*
X143125501Y-69810260D01*
X143125501Y-69810256D01*
X143076465Y-69691873D01*
X143036273Y-69631721D01*
X143015954Y-69601310D01*
X143005279Y-69585333D01*
X143005277Y-69585331D01*
X141814672Y-68394725D01*
X141809963Y-68390861D01*
X141811437Y-68389063D01*
X141773260Y-68343362D01*
X141769260Y-68332900D01*
X141754619Y-68288716D01*
X141718814Y-68180664D01*
X141626712Y-68031342D01*
X141502656Y-67907286D01*
X141353334Y-67815184D01*
X141186797Y-67759999D01*
X141182965Y-67759607D01*
X141170894Y-67758374D01*
X141106203Y-67731976D01*
X141066053Y-67674794D01*
X141059500Y-67635016D01*
X141059500Y-64797844D01*
X157960000Y-64797844D01*
X157966401Y-64857372D01*
X157966403Y-64857379D01*
X158016645Y-64992086D01*
X158016649Y-64992093D01*
X158102809Y-65107187D01*
X158102812Y-65107190D01*
X158217906Y-65193350D01*
X158217913Y-65193354D01*
X158352620Y-65243596D01*
X158352627Y-65243598D01*
X158412155Y-65249999D01*
X158412172Y-65250000D01*
X160750000Y-65250000D01*
X160750000Y-64250000D01*
X157960000Y-64250000D01*
X157960000Y-64797844D01*
X141059500Y-64797844D01*
X141059500Y-63202155D01*
X157960000Y-63202155D01*
X157960000Y-63750000D01*
X160750000Y-63750000D01*
X160750000Y-62750000D01*
X158412155Y-62750000D01*
X158352627Y-62756401D01*
X158352620Y-62756403D01*
X158217913Y-62806645D01*
X158217906Y-62806649D01*
X158102812Y-62892809D01*
X158102809Y-62892812D01*
X158016649Y-63007906D01*
X158016645Y-63007913D01*
X157966403Y-63142620D01*
X157966401Y-63142627D01*
X157960000Y-63202155D01*
X141059500Y-63202155D01*
X141059500Y-61185749D01*
X141079185Y-61118710D01*
X141131989Y-61072955D01*
X141144473Y-61068051D01*
X141169333Y-61059814D01*
X141318655Y-60967712D01*
X141442711Y-60843656D01*
X141534813Y-60694334D01*
X141589998Y-60527797D01*
X141600499Y-60425009D01*
X141600498Y-59074992D01*
X141589998Y-58972203D01*
X141534813Y-58805666D01*
X141442711Y-58656344D01*
X141318655Y-58532288D01*
X141169333Y-58440186D01*
X141002796Y-58385001D01*
X141002794Y-58385000D01*
X140900009Y-58374500D01*
X139999997Y-58374500D01*
X139999979Y-58374501D01*
X139897202Y-58385000D01*
X139897199Y-58385001D01*
X139730667Y-58440185D01*
X139730662Y-58440187D01*
X139581341Y-58532289D01*
X139457288Y-58656342D01*
X139365186Y-58805663D01*
X139365185Y-58805666D01*
X139310000Y-58972203D01*
X139310000Y-58972204D01*
X139309999Y-58972204D01*
X139299499Y-59074983D01*
X139299499Y-60425001D01*
X139299500Y-60425018D01*
X139309999Y-60527796D01*
X139310000Y-60527799D01*
X139365184Y-60694331D01*
X139365186Y-60694336D01*
X139394788Y-60742328D01*
X139457287Y-60843656D01*
X139581343Y-60967712D01*
X139699597Y-61040651D01*
X139746321Y-61092597D01*
X139758500Y-61146189D01*
X139758500Y-67635016D01*
X139738815Y-67702055D01*
X139686011Y-67747810D01*
X139647107Y-67758374D01*
X139631200Y-67759999D01*
X139464668Y-67815183D01*
X139464663Y-67815185D01*
X139315342Y-67907287D01*
X139191289Y-68031340D01*
X139099187Y-68180661D01*
X139099185Y-68180666D01*
X139091076Y-68205139D01*
X139044001Y-68347201D01*
X139044001Y-68347202D01*
X139044000Y-68347202D01*
X139033500Y-68449981D01*
X139033500Y-69349999D01*
X139033501Y-69350017D01*
X139044000Y-69452794D01*
X139044001Y-69452797D01*
X139099185Y-69619329D01*
X139099187Y-69619334D01*
X139106828Y-69631722D01*
X139191288Y-69768654D01*
X139315344Y-69892710D01*
X139464666Y-69984812D01*
X139631203Y-70039997D01*
X139733991Y-70050498D01*
X141084008Y-70050497D01*
X141186797Y-70039997D01*
X141353334Y-69984812D01*
X141400719Y-69955584D01*
X141468109Y-69937144D01*
X141534773Y-69958066D01*
X141553496Y-69973442D01*
X141813181Y-70233127D01*
X141846666Y-70294450D01*
X141849500Y-70320808D01*
X141849500Y-71056357D01*
X141829815Y-71123396D01*
X141777011Y-71169151D01*
X141707853Y-71179095D01*
X141644297Y-71150070D01*
X141628239Y-71133274D01*
X141626715Y-71131347D01*
X141502657Y-71007289D01*
X141502656Y-71007288D01*
X141353334Y-70915186D01*
X141186797Y-70860001D01*
X141186795Y-70860000D01*
X141084010Y-70849500D01*
X139733998Y-70849500D01*
X139733981Y-70849501D01*
X139631203Y-70860000D01*
X139631200Y-70860001D01*
X139464668Y-70915185D01*
X139464663Y-70915187D01*
X139315342Y-71007289D01*
X139191289Y-71131342D01*
X139095395Y-71286813D01*
X139093600Y-71285706D01*
X139054313Y-71330337D01*
X138988092Y-71349500D01*
X136538908Y-71349500D01*
X136471869Y-71329815D01*
X136433363Y-71285728D01*
X136431605Y-71286813D01*
X136426986Y-71279324D01*
X136335712Y-71131344D01*
X136211656Y-71007288D01*
X136062334Y-70915186D01*
X135895797Y-70860001D01*
X135895795Y-70860000D01*
X135793010Y-70849500D01*
X134442998Y-70849500D01*
X134442981Y-70849501D01*
X134340203Y-70860000D01*
X134340200Y-70860001D01*
X134173668Y-70915185D01*
X134173663Y-70915187D01*
X134024342Y-71007289D01*
X133900289Y-71131342D01*
X133808187Y-71280663D01*
X133808185Y-71280668D01*
X133785377Y-71349500D01*
X133753001Y-71447203D01*
X133753001Y-71447204D01*
X133753000Y-71447204D01*
X133742500Y-71549983D01*
X133742500Y-72450001D01*
X133742501Y-72450019D01*
X133753000Y-72552794D01*
X133753012Y-72552847D01*
X133753009Y-72552880D01*
X133753689Y-72559532D01*
X133752502Y-72559653D01*
X133747794Y-72622522D01*
X133705736Y-72678315D01*
X133640191Y-72702513D01*
X133631758Y-72702800D01*
X124440803Y-72702800D01*
X124373764Y-72683115D01*
X124335264Y-72643896D01*
X124278225Y-72551421D01*
X124242712Y-72493844D01*
X124118656Y-72369788D01*
X124008569Y-72301886D01*
X123969336Y-72277687D01*
X123969331Y-72277685D01*
X123966847Y-72276862D01*
X123802797Y-72222501D01*
X123802795Y-72222500D01*
X123700010Y-72212000D01*
X122299998Y-72212000D01*
X122299981Y-72212001D01*
X122197203Y-72222500D01*
X122197200Y-72222501D01*
X122030668Y-72277685D01*
X122030663Y-72277687D01*
X121881342Y-72369789D01*
X121757289Y-72493842D01*
X121747753Y-72509301D01*
X121725982Y-72544598D01*
X121718396Y-72551421D01*
X121714158Y-72560703D01*
X121692858Y-72574391D01*
X121674036Y-72591321D01*
X121662400Y-72593965D01*
X121655380Y-72598477D01*
X121620445Y-72603500D01*
X121379981Y-72603500D01*
X121312942Y-72583815D01*
X121267187Y-72531011D01*
X121256623Y-72492101D01*
X121254999Y-72476203D01*
X121254998Y-72476200D01*
X121246319Y-72450008D01*
X121199814Y-72309666D01*
X121107712Y-72160344D01*
X120983656Y-72036288D01*
X120838159Y-71946545D01*
X120834336Y-71944187D01*
X120834331Y-71944185D01*
X120823772Y-71940686D01*
X120667797Y-71889001D01*
X120667795Y-71889000D01*
X120565010Y-71878500D01*
X119664998Y-71878500D01*
X119664980Y-71878501D01*
X119562203Y-71889000D01*
X119562200Y-71889001D01*
X119395668Y-71944185D01*
X119395663Y-71944187D01*
X119246342Y-72036289D01*
X119122289Y-72160342D01*
X119030187Y-72309663D01*
X119030185Y-72309668D01*
X119010263Y-72369789D01*
X118975001Y-72476203D01*
X118975001Y-72476204D01*
X118975000Y-72476204D01*
X118964500Y-72578983D01*
X118165498Y-72578983D01*
X118154999Y-72476203D01*
X118099814Y-72309666D01*
X118007712Y-72160344D01*
X117883656Y-72036288D01*
X117738159Y-71946545D01*
X117734336Y-71944187D01*
X117734331Y-71944185D01*
X117723772Y-71940686D01*
X117567797Y-71889001D01*
X117567795Y-71889000D01*
X117465016Y-71878500D01*
X116586769Y-71878500D01*
X116519730Y-71858815D01*
X116517879Y-71857603D01*
X116494123Y-71841730D01*
X116473627Y-71828035D01*
X116362771Y-71782117D01*
X116355244Y-71778999D01*
X116355238Y-71778997D01*
X116229571Y-71754000D01*
X116229569Y-71754000D01*
X114480823Y-71754000D01*
X114433370Y-71744561D01*
X114399827Y-71730667D01*
X114372762Y-71719456D01*
X114372760Y-71719455D01*
X114255370Y-71704001D01*
X114255367Y-71704000D01*
X114255361Y-71704000D01*
X114255354Y-71704000D01*
X113224500Y-71704000D01*
X113157461Y-71684315D01*
X113111706Y-71631511D01*
X113100500Y-71580000D01*
X113100500Y-69826580D01*
X113100490Y-69826440D01*
X113100491Y-69809320D01*
X113087612Y-69711489D01*
X113073110Y-69601314D01*
X113073109Y-69601311D01*
X113068827Y-69585331D01*
X113033317Y-69452797D01*
X113018812Y-69398659D01*
X113018810Y-69398654D01*
X112998651Y-69349984D01*
X133743001Y-69349984D01*
X133753494Y-69452695D01*
X133808641Y-69619117D01*
X133808643Y-69619122D01*
X133900684Y-69768343D01*
X134024654Y-69892313D01*
X134173875Y-69984354D01*
X134173880Y-69984356D01*
X134340302Y-70039503D01*
X134340309Y-70039504D01*
X134443019Y-70049997D01*
X134867999Y-70049997D01*
X135368000Y-70049997D01*
X135792972Y-70049997D01*
X135792986Y-70049996D01*
X135895697Y-70039503D01*
X136062119Y-69984356D01*
X136062124Y-69984354D01*
X136211345Y-69892313D01*
X136335315Y-69768343D01*
X136427356Y-69619122D01*
X136427358Y-69619117D01*
X136482505Y-69452695D01*
X136482506Y-69452688D01*
X136492999Y-69349984D01*
X136493000Y-69349971D01*
X136493000Y-69149998D01*
X135368000Y-69149998D01*
X135368000Y-70049997D01*
X134867999Y-70049997D01*
X134868000Y-70049996D01*
X134868000Y-69149998D01*
X133743001Y-69149998D01*
X133743001Y-69349984D01*
X112998651Y-69349984D01*
X112938524Y-69204819D01*
X112833624Y-69023122D01*
X112705905Y-68856672D01*
X112691959Y-68842725D01*
X112691937Y-68842701D01*
X112299247Y-68450011D01*
X133743000Y-68450011D01*
X133743000Y-68649998D01*
X134868000Y-68649998D01*
X135368000Y-68649998D01*
X136492999Y-68649998D01*
X136492999Y-68450026D01*
X136492998Y-68450011D01*
X136482505Y-68347300D01*
X136427358Y-68180878D01*
X136427356Y-68180873D01*
X136335315Y-68031652D01*
X136211345Y-67907682D01*
X136062124Y-67815641D01*
X136062119Y-67815639D01*
X135895697Y-67760492D01*
X135895690Y-67760491D01*
X135792986Y-67749998D01*
X135368000Y-67749998D01*
X135368000Y-68649998D01*
X134868000Y-68649998D01*
X134868000Y-67749998D01*
X134443028Y-67749998D01*
X134443012Y-67749999D01*
X134340302Y-67760492D01*
X134173880Y-67815639D01*
X134173875Y-67815641D01*
X134024654Y-67907682D01*
X133900684Y-68031652D01*
X133808643Y-68180873D01*
X133808641Y-68180878D01*
X133753494Y-68347300D01*
X133753493Y-68347307D01*
X133743000Y-68450011D01*
X112299247Y-68450011D01*
X109753832Y-65904596D01*
X109753813Y-65904562D01*
X109643339Y-65794091D01*
X109643335Y-65794087D01*
X109476887Y-65666371D01*
X109476886Y-65666370D01*
X109476883Y-65666368D01*
X109295185Y-65561467D01*
X109101349Y-65481180D01*
X109101344Y-65481178D01*
X109101340Y-65481177D01*
X108898690Y-65426880D01*
X108898687Y-65426879D01*
X108690682Y-65399499D01*
X108690680Y-65399499D01*
X108585778Y-65399500D01*
X106391089Y-65399500D01*
X106324050Y-65379815D01*
X106278295Y-65327011D01*
X106267731Y-65288102D01*
X106263838Y-65249999D01*
X106260999Y-65222203D01*
X106205814Y-65055666D01*
X106113712Y-64906344D01*
X105989656Y-64782288D01*
X105840334Y-64690186D01*
X105673797Y-64635001D01*
X105673795Y-64635000D01*
X105571010Y-64624500D01*
X104670998Y-64624500D01*
X104670980Y-64624501D01*
X104568203Y-64635000D01*
X104568200Y-64635001D01*
X104401668Y-64690185D01*
X104401663Y-64690187D01*
X104252342Y-64782289D01*
X104128289Y-64906342D01*
X104036187Y-65055663D01*
X104036185Y-65055668D01*
X104008349Y-65139670D01*
X103981001Y-65222203D01*
X103981001Y-65222204D01*
X103981000Y-65222204D01*
X103970500Y-65324983D01*
X103970500Y-66675001D01*
X103970501Y-66675018D01*
X103981000Y-66777796D01*
X103981001Y-66777799D01*
X104036185Y-66944331D01*
X104036186Y-66944334D01*
X104128288Y-67093656D01*
X104252344Y-67217712D01*
X104401666Y-67309814D01*
X104568203Y-67364999D01*
X104670991Y-67375500D01*
X105571008Y-67375499D01*
X105571016Y-67375498D01*
X105571019Y-67375498D01*
X105627302Y-67369748D01*
X105673797Y-67364999D01*
X105840334Y-67309814D01*
X105989656Y-67217712D01*
X106113712Y-67093656D01*
X106205814Y-66944334D01*
X106260999Y-66777797D01*
X106263839Y-66750000D01*
X106267732Y-66711897D01*
X106294129Y-66647205D01*
X106351310Y-66607054D01*
X106391090Y-66600500D01*
X108512877Y-66600500D01*
X108512881Y-66600501D01*
X108577672Y-66600500D01*
X108593854Y-66601561D01*
X108673007Y-66611980D01*
X108704274Y-66620357D01*
X108769090Y-66647205D01*
X108770462Y-66647773D01*
X108798495Y-66663957D01*
X108827220Y-66685997D01*
X108860973Y-66711897D01*
X108861783Y-66712518D01*
X108873979Y-66723214D01*
X111776732Y-69625967D01*
X111787427Y-69638162D01*
X111836031Y-69701505D01*
X111852217Y-69729540D01*
X111879632Y-69795728D01*
X111888009Y-69826996D01*
X111898438Y-69906222D01*
X111899499Y-69922405D01*
X111899499Y-69994713D01*
X111899500Y-69994730D01*
X111899500Y-71598514D01*
X111879815Y-71665553D01*
X111827011Y-71711308D01*
X111757853Y-71721252D01*
X111751485Y-71719946D01*
X111630370Y-71704001D01*
X111630367Y-71704000D01*
X111630361Y-71704000D01*
X111630354Y-71704000D01*
X110376636Y-71704000D01*
X110259246Y-71719453D01*
X110259234Y-71719457D01*
X110113163Y-71779961D01*
X110106124Y-71784026D01*
X110105117Y-71782283D01*
X110050068Y-71803569D01*
X110039743Y-71804000D01*
X109204598Y-71804000D01*
X109137559Y-71784315D01*
X109116917Y-71767681D01*
X106367818Y-69018582D01*
X106334333Y-68957259D01*
X106331499Y-68930901D01*
X106331499Y-68700998D01*
X106331498Y-68700981D01*
X106320999Y-68598203D01*
X106320998Y-68598200D01*
X106312067Y-68571248D01*
X106265814Y-68431666D01*
X106173712Y-68282344D01*
X106049656Y-68158288D01*
X105900334Y-68066186D01*
X105733797Y-68011001D01*
X105733795Y-68011000D01*
X105631010Y-68000500D01*
X104730998Y-68000500D01*
X104730980Y-68000501D01*
X104628203Y-68011000D01*
X104628200Y-68011001D01*
X104461668Y-68066185D01*
X104461663Y-68066187D01*
X104312342Y-68158289D01*
X104188289Y-68282342D01*
X104096187Y-68431663D01*
X104096185Y-68431668D01*
X104090229Y-68449642D01*
X104041001Y-68598203D01*
X104041001Y-68598204D01*
X104041000Y-68598204D01*
X104030500Y-68700983D01*
X104030500Y-70051001D01*
X104030501Y-70051018D01*
X104041000Y-70153796D01*
X104041001Y-70153799D01*
X104079323Y-70269446D01*
X104096186Y-70320334D01*
X104188288Y-70469656D01*
X104312344Y-70593712D01*
X104461666Y-70685814D01*
X104628203Y-70740999D01*
X104730991Y-70751500D01*
X105631008Y-70751499D01*
X105631016Y-70751498D01*
X105631019Y-70751498D01*
X105687302Y-70745748D01*
X105733797Y-70740999D01*
X105900334Y-70685814D01*
X106049656Y-70593712D01*
X106059380Y-70583986D01*
X106120700Y-70550499D01*
X106190392Y-70555478D01*
X106234747Y-70583982D01*
X107893083Y-72242319D01*
X107926568Y-72303642D01*
X107921584Y-72373334D01*
X107879712Y-72429267D01*
X107814248Y-72453684D01*
X107805402Y-72454000D01*
X106247471Y-72454000D01*
X106180432Y-72434315D01*
X106141933Y-72395098D01*
X106113712Y-72349344D01*
X105989656Y-72225288D01*
X105884361Y-72160342D01*
X105840336Y-72133187D01*
X105840331Y-72133185D01*
X105838862Y-72132698D01*
X105673797Y-72078001D01*
X105673795Y-72078000D01*
X105571010Y-72067500D01*
X104670998Y-72067500D01*
X104670980Y-72067501D01*
X104568203Y-72078000D01*
X104568200Y-72078001D01*
X104401668Y-72133185D01*
X104401663Y-72133187D01*
X104252342Y-72225289D01*
X104128289Y-72349342D01*
X104036187Y-72498663D01*
X104036185Y-72498668D01*
X104027294Y-72525499D01*
X103981001Y-72665203D01*
X103981001Y-72665204D01*
X103981000Y-72665204D01*
X103970500Y-72767983D01*
X103970500Y-74118001D01*
X103970501Y-74118018D01*
X103981000Y-74220796D01*
X103981001Y-74220799D01*
X104036185Y-74387331D01*
X104036187Y-74387336D01*
X104047081Y-74404998D01*
X104128288Y-74536656D01*
X104252344Y-74660712D01*
X104401666Y-74752814D01*
X104568203Y-74807999D01*
X104670991Y-74818500D01*
X105571008Y-74818499D01*
X105571016Y-74818498D01*
X105571019Y-74818498D01*
X105627302Y-74812748D01*
X105673797Y-74807999D01*
X105840334Y-74752814D01*
X105989656Y-74660712D01*
X106113712Y-74536656D01*
X106205814Y-74387334D01*
X106260999Y-74220797D01*
X106271500Y-74118009D01*
X106271500Y-73779000D01*
X106291185Y-73711961D01*
X106343989Y-73666206D01*
X106395500Y-73655000D01*
X109691501Y-73655000D01*
X109758540Y-73674685D01*
X109804295Y-73727489D01*
X109815501Y-73779000D01*
X109815501Y-73843863D01*
X109830953Y-73961253D01*
X109830956Y-73961262D01*
X109891253Y-74106833D01*
X109891464Y-74107341D01*
X109987718Y-74232782D01*
X110113159Y-74329036D01*
X110259238Y-74389544D01*
X110376639Y-74405000D01*
X111370500Y-74404999D01*
X111437539Y-74424683D01*
X111483294Y-74477487D01*
X111494500Y-74528999D01*
X111494500Y-84870500D01*
X111474815Y-84937539D01*
X111422011Y-84983294D01*
X111370500Y-84994500D01*
X95629500Y-84994500D01*
X95562461Y-84974815D01*
X95516706Y-84922011D01*
X95505500Y-84870500D01*
X95505500Y-83855837D01*
X95525185Y-83788798D01*
X95577989Y-83743043D01*
X95647147Y-83733099D01*
X95694597Y-83750299D01*
X95830869Y-83834353D01*
X95830880Y-83834358D01*
X95997302Y-83889505D01*
X95997309Y-83889506D01*
X96100019Y-83899999D01*
X96312499Y-83899999D01*
X96812500Y-83899999D01*
X97024972Y-83899999D01*
X97024986Y-83899998D01*
X97127697Y-83889505D01*
X97294119Y-83834358D01*
X97294124Y-83834356D01*
X97443345Y-83742315D01*
X97567315Y-83618345D01*
X97659356Y-83469124D01*
X97659358Y-83469119D01*
X97714505Y-83302697D01*
X97714506Y-83302690D01*
X97724999Y-83199986D01*
X97725000Y-83199973D01*
X97725000Y-82750000D01*
X96812500Y-82750000D01*
X96812500Y-83899999D01*
X96312499Y-83899999D01*
X96312500Y-83899998D01*
X96312500Y-81099999D01*
X96300181Y-81087680D01*
X96266696Y-81026357D01*
X96271680Y-80956665D01*
X96300181Y-80912318D01*
X96312500Y-80899999D01*
X96812500Y-80899999D01*
X96824819Y-80912318D01*
X96858304Y-80973641D01*
X96853320Y-81043333D01*
X96824820Y-81087679D01*
X96812500Y-81099999D01*
X96812500Y-82250000D01*
X97724999Y-82250000D01*
X97724999Y-81800028D01*
X97724998Y-81800013D01*
X97714505Y-81697302D01*
X97659358Y-81530880D01*
X97659356Y-81530875D01*
X97567315Y-81381654D01*
X97443345Y-81257684D01*
X97294124Y-81165643D01*
X97294119Y-81165641D01*
X97149460Y-81117706D01*
X97092015Y-81077933D01*
X97065192Y-81013417D01*
X97077507Y-80944642D01*
X97125050Y-80893442D01*
X97149460Y-80882294D01*
X97294119Y-80834358D01*
X97294124Y-80834356D01*
X97443345Y-80742315D01*
X97567315Y-80618345D01*
X97659356Y-80469124D01*
X97659358Y-80469119D01*
X97714505Y-80302697D01*
X97714506Y-80302690D01*
X97724999Y-80199986D01*
X97725000Y-80199973D01*
X97725000Y-79750000D01*
X96812500Y-79750000D01*
X96812500Y-80899999D01*
X96312500Y-80899999D01*
X96312500Y-79250000D01*
X96812500Y-79250000D01*
X97724999Y-79250000D01*
X97724999Y-78800028D01*
X97724998Y-78800013D01*
X97714505Y-78697302D01*
X97659358Y-78530880D01*
X97659356Y-78530875D01*
X97567315Y-78381654D01*
X97443345Y-78257684D01*
X97294124Y-78165643D01*
X97294119Y-78165641D01*
X97127697Y-78110494D01*
X97127690Y-78110493D01*
X97024986Y-78100000D01*
X96812500Y-78100000D01*
X96812500Y-79250000D01*
X96312500Y-79250000D01*
X96312500Y-78098288D01*
X96332185Y-78031249D01*
X96379502Y-77988164D01*
X96390264Y-77982593D01*
X96410398Y-77976744D01*
X96551865Y-77893081D01*
X96668081Y-77776865D01*
X96751744Y-77635398D01*
X96797598Y-77477569D01*
X96800500Y-77440694D01*
X96800500Y-75109306D01*
X96797598Y-75072431D01*
X96775741Y-74997201D01*
X96751745Y-74914606D01*
X96751744Y-74914603D01*
X96751744Y-74914602D01*
X96682860Y-74798125D01*
X96665677Y-74730401D01*
X96687837Y-74664138D01*
X96701911Y-74647323D01*
X96811235Y-74538000D01*
X97116454Y-74232781D01*
X97269417Y-74079819D01*
X97330740Y-74046334D01*
X97357098Y-74043500D01*
X100750911Y-74043500D01*
X100817950Y-74063185D01*
X100863705Y-74115989D01*
X100874269Y-74154898D01*
X100881001Y-74220797D01*
X100881001Y-74220799D01*
X100936185Y-74387331D01*
X100936187Y-74387336D01*
X100947081Y-74404998D01*
X101028288Y-74536656D01*
X101152344Y-74660712D01*
X101301666Y-74752814D01*
X101468203Y-74807999D01*
X101570991Y-74818500D01*
X102471008Y-74818499D01*
X102471016Y-74818498D01*
X102471019Y-74818498D01*
X102527302Y-74812748D01*
X102573797Y-74807999D01*
X102740334Y-74752814D01*
X102889656Y-74660712D01*
X103013712Y-74536656D01*
X103105814Y-74387334D01*
X103160999Y-74220797D01*
X103171500Y-74118009D01*
X103171499Y-72767992D01*
X103160999Y-72665203D01*
X103105814Y-72498666D01*
X103013712Y-72349344D01*
X102889656Y-72225288D01*
X102784361Y-72160342D01*
X102740336Y-72133187D01*
X102740331Y-72133185D01*
X102738862Y-72132698D01*
X102573797Y-72078001D01*
X102573795Y-72078000D01*
X102471010Y-72067500D01*
X101570998Y-72067500D01*
X101570980Y-72067501D01*
X101468203Y-72078000D01*
X101468200Y-72078001D01*
X101301668Y-72133185D01*
X101301663Y-72133187D01*
X101152342Y-72225289D01*
X101028289Y-72349342D01*
X100936187Y-72498663D01*
X100936185Y-72498668D01*
X100927294Y-72525499D01*
X100888062Y-72643896D01*
X100881001Y-72665204D01*
X100881000Y-72665205D01*
X100874268Y-72731103D01*
X100847871Y-72795795D01*
X100790690Y-72835946D01*
X100750910Y-72842500D01*
X97143670Y-72842500D01*
X97143654Y-72842499D01*
X97136058Y-72842499D01*
X96977943Y-72842499D01*
X96917168Y-72858784D01*
X96825214Y-72883423D01*
X96825209Y-72883426D01*
X96688290Y-72962475D01*
X96688282Y-72962481D01*
X95519481Y-74131282D01*
X95519477Y-74131287D01*
X95475236Y-74207917D01*
X95475236Y-74207918D01*
X95440423Y-74268214D01*
X95440423Y-74268215D01*
X95399499Y-74420943D01*
X95399499Y-74420945D01*
X95399499Y-74509673D01*
X95379814Y-74576712D01*
X95327010Y-74622467D01*
X95257852Y-74632411D01*
X95212378Y-74616405D01*
X95140196Y-74573717D01*
X95140193Y-74573716D01*
X94982494Y-74527900D01*
X94982497Y-74527900D01*
X94980000Y-74527703D01*
X94980000Y-76151000D01*
X94960315Y-76218039D01*
X94907511Y-76263794D01*
X94856000Y-76275000D01*
X94604000Y-76275000D01*
X94536961Y-76255315D01*
X94491206Y-76202511D01*
X94480000Y-76151000D01*
X94480000Y-74527703D01*
X94477503Y-74527900D01*
X94319806Y-74573716D01*
X94319799Y-74573719D01*
X94192276Y-74649135D01*
X94124552Y-74666318D01*
X94058290Y-74644158D01*
X94026053Y-74611293D01*
X94018719Y-74600317D01*
X94004114Y-74578458D01*
X94004112Y-74578455D01*
X92381544Y-72955887D01*
X92266806Y-72879222D01*
X92139331Y-72826421D01*
X92139321Y-72826418D01*
X92003995Y-72799500D01*
X92003993Y-72799500D01*
X92003992Y-72799500D01*
X90341519Y-72799500D01*
X90274480Y-72779815D01*
X90253838Y-72763181D01*
X88736819Y-71246162D01*
X88703334Y-71184839D01*
X88700500Y-71158481D01*
X88700500Y-56431004D01*
X88673581Y-56295677D01*
X88673580Y-56295676D01*
X88673580Y-56295672D01*
X88673578Y-56295667D01*
X88620778Y-56168195D01*
X88620771Y-56168182D01*
X88544115Y-56053459D01*
X88544114Y-56053458D01*
X88446542Y-55955886D01*
X87236819Y-54746162D01*
X87203334Y-54684839D01*
X87200500Y-54658481D01*
X87200500Y-50841518D01*
X87220185Y-50774479D01*
X87236819Y-50753837D01*
X88253837Y-49736819D01*
X88315160Y-49703334D01*
X88341518Y-49700500D01*
X93158481Y-49700500D01*
X93225520Y-49720185D01*
X93246162Y-49736819D01*
X94527032Y-51017689D01*
X94560517Y-51079012D01*
X94555533Y-51148704D01*
X94513661Y-51204637D01*
X94448197Y-51229054D01*
X94401033Y-51223301D01*
X94276239Y-51182753D01*
X94114956Y-51157208D01*
X94066286Y-51149500D01*
X93853712Y-51149500D01*
X93805041Y-51157208D01*
X93643759Y-51182753D01*
X93441584Y-51248444D01*
X93252178Y-51344951D01*
X93080212Y-51469890D01*
X92929889Y-51620213D01*
X92804947Y-51792183D01*
X92800481Y-51800949D01*
X92752505Y-51851742D01*
X92684683Y-51868535D01*
X92618549Y-51845995D01*
X92579513Y-51800942D01*
X92575048Y-51792179D01*
X92450109Y-51620213D01*
X92299786Y-51469890D01*
X92127820Y-51344951D01*
X91938414Y-51248444D01*
X91938413Y-51248443D01*
X91938412Y-51248443D01*
X91736243Y-51182754D01*
X91736241Y-51182753D01*
X91736240Y-51182753D01*
X91574957Y-51157208D01*
X91526287Y-51149500D01*
X91313713Y-51149500D01*
X91265042Y-51157208D01*
X91103760Y-51182753D01*
X90901585Y-51248444D01*
X90712179Y-51344951D01*
X90540215Y-51469889D01*
X90426285Y-51583819D01*
X90364962Y-51617303D01*
X90295270Y-51612319D01*
X90239337Y-51570447D01*
X90222422Y-51539470D01*
X90173354Y-51407913D01*
X90173350Y-51407906D01*
X90087190Y-51292812D01*
X90087187Y-51292809D01*
X89972093Y-51206649D01*
X89972086Y-51206645D01*
X89837379Y-51156403D01*
X89837372Y-51156401D01*
X89777844Y-51150000D01*
X89130000Y-51150000D01*
X89130000Y-52066988D01*
X89072993Y-52034075D01*
X88945826Y-52000000D01*
X88814174Y-52000000D01*
X88687007Y-52034075D01*
X88630000Y-52066988D01*
X88630000Y-51150000D01*
X87982155Y-51150000D01*
X87922627Y-51156401D01*
X87922620Y-51156403D01*
X87787913Y-51206645D01*
X87787906Y-51206649D01*
X87672812Y-51292809D01*
X87672809Y-51292812D01*
X87586649Y-51407906D01*
X87586645Y-51407913D01*
X87536403Y-51542620D01*
X87536401Y-51542627D01*
X87530000Y-51602155D01*
X87530000Y-52250000D01*
X88446988Y-52250000D01*
X88414075Y-52307007D01*
X88380000Y-52434174D01*
X88380000Y-52565826D01*
X88414075Y-52692993D01*
X88446988Y-52750000D01*
X87530000Y-52750000D01*
X87530000Y-53397844D01*
X87536401Y-53457372D01*
X87536403Y-53457379D01*
X87586645Y-53592086D01*
X87586649Y-53592093D01*
X87672809Y-53707187D01*
X87672812Y-53707190D01*
X87787906Y-53793350D01*
X87787913Y-53793354D01*
X87922620Y-53843596D01*
X87922627Y-53843598D01*
X87982155Y-53849999D01*
X87982172Y-53850000D01*
X88630000Y-53850000D01*
X88630000Y-52933012D01*
X88687007Y-52965925D01*
X88814174Y-53000000D01*
X88945826Y-53000000D01*
X89072993Y-52965925D01*
X89130000Y-52933012D01*
X89130000Y-53850000D01*
X89777828Y-53850000D01*
X89777844Y-53849999D01*
X89837372Y-53843598D01*
X89837379Y-53843596D01*
X89972086Y-53793354D01*
X89972093Y-53793350D01*
X90087187Y-53707190D01*
X90087190Y-53707187D01*
X90173350Y-53592093D01*
X90173354Y-53592086D01*
X90222422Y-53460529D01*
X90264293Y-53404595D01*
X90329757Y-53380178D01*
X90398030Y-53395030D01*
X90426285Y-53416181D01*
X90540213Y-53530109D01*
X90712184Y-53655051D01*
X90712184Y-53655052D01*
X90751793Y-53675233D01*
X90802590Y-53723206D01*
X90819500Y-53785718D01*
X90819500Y-67833330D01*
X90819499Y-67833348D01*
X90819499Y-67999054D01*
X90819498Y-67999054D01*
X90860424Y-68151789D01*
X90860425Y-68151790D01*
X90883030Y-68190942D01*
X90883031Y-68190944D01*
X90939475Y-68288709D01*
X90939481Y-68288717D01*
X91058349Y-68407585D01*
X91058355Y-68407590D01*
X91553181Y-68902416D01*
X91567884Y-68929343D01*
X91584477Y-68955162D01*
X91585368Y-68961362D01*
X91586666Y-68963739D01*
X91589500Y-68990097D01*
X91589500Y-69154191D01*
X91569815Y-69221230D01*
X91553181Y-69241872D01*
X91521923Y-69273129D01*
X91521917Y-69273137D01*
X91438255Y-69414603D01*
X91438254Y-69414606D01*
X91392402Y-69572426D01*
X91392401Y-69572432D01*
X91389500Y-69609298D01*
X91389500Y-71940701D01*
X91392401Y-71977567D01*
X91392402Y-71977573D01*
X91438254Y-72135393D01*
X91438255Y-72135396D01*
X91521917Y-72276862D01*
X91521923Y-72276870D01*
X91638129Y-72393076D01*
X91638133Y-72393079D01*
X91638135Y-72393081D01*
X91779602Y-72476744D01*
X91821224Y-72488836D01*
X91937426Y-72522597D01*
X91937429Y-72522597D01*
X91937431Y-72522598D01*
X91974306Y-72525500D01*
X91974314Y-72525500D01*
X92405686Y-72525500D01*
X92405694Y-72525500D01*
X92442569Y-72522598D01*
X92442571Y-72522597D01*
X92442573Y-72522597D01*
X92484191Y-72510505D01*
X92600398Y-72476744D01*
X92741865Y-72393081D01*
X92741870Y-72393075D01*
X92748031Y-72388298D01*
X92749933Y-72390750D01*
X92798579Y-72364155D01*
X92868274Y-72369104D01*
X92900695Y-72389940D01*
X92901969Y-72388298D01*
X92908132Y-72393078D01*
X92908135Y-72393081D01*
X93049602Y-72476744D01*
X93091224Y-72488836D01*
X93207426Y-72522597D01*
X93207429Y-72522597D01*
X93207431Y-72522598D01*
X93244306Y-72525500D01*
X93244314Y-72525500D01*
X93675686Y-72525500D01*
X93675694Y-72525500D01*
X93712569Y-72522598D01*
X93712571Y-72522597D01*
X93712573Y-72522597D01*
X93754191Y-72510505D01*
X93870398Y-72476744D01*
X94011865Y-72393081D01*
X94011870Y-72393075D01*
X94018031Y-72388298D01*
X94019933Y-72390750D01*
X94068579Y-72364155D01*
X94138274Y-72369104D01*
X94170695Y-72389940D01*
X94171969Y-72388298D01*
X94178132Y-72393078D01*
X94178135Y-72393081D01*
X94319602Y-72476744D01*
X94361224Y-72488836D01*
X94477426Y-72522597D01*
X94477429Y-72522597D01*
X94477431Y-72522598D01*
X94514306Y-72525500D01*
X94514314Y-72525500D01*
X94945686Y-72525500D01*
X94945694Y-72525500D01*
X94982569Y-72522598D01*
X94982571Y-72522597D01*
X94982573Y-72522597D01*
X95024191Y-72510505D01*
X95140398Y-72476744D01*
X95281865Y-72393081D01*
X95281870Y-72393075D01*
X95288031Y-72388298D01*
X95289933Y-72390750D01*
X95338579Y-72364155D01*
X95408274Y-72369104D01*
X95440695Y-72389940D01*
X95441969Y-72388298D01*
X95448132Y-72393078D01*
X95448135Y-72393081D01*
X95589602Y-72476744D01*
X95631224Y-72488836D01*
X95747426Y-72522597D01*
X95747429Y-72522597D01*
X95747431Y-72522598D01*
X95784306Y-72525500D01*
X95784314Y-72525500D01*
X96215686Y-72525500D01*
X96215694Y-72525500D01*
X96252569Y-72522598D01*
X96252571Y-72522597D01*
X96252573Y-72522597D01*
X96294191Y-72510505D01*
X96410398Y-72476744D01*
X96551865Y-72393081D01*
X96668081Y-72276865D01*
X96751744Y-72135398D01*
X96797598Y-71977569D01*
X96800500Y-71940694D01*
X96800500Y-70100500D01*
X96820185Y-70033461D01*
X96872989Y-69987706D01*
X96924500Y-69976500D01*
X100810911Y-69976500D01*
X100877950Y-69996185D01*
X100923705Y-70048989D01*
X100934269Y-70087898D01*
X100941001Y-70153797D01*
X100941001Y-70153799D01*
X100979323Y-70269446D01*
X100996186Y-70320334D01*
X101088288Y-70469656D01*
X101212344Y-70593712D01*
X101361666Y-70685814D01*
X101528203Y-70740999D01*
X101630991Y-70751500D01*
X102531008Y-70751499D01*
X102531016Y-70751498D01*
X102531019Y-70751498D01*
X102587302Y-70745748D01*
X102633797Y-70740999D01*
X102800334Y-70685814D01*
X102949656Y-70593712D01*
X103073712Y-70469656D01*
X103165814Y-70320334D01*
X103220999Y-70153797D01*
X103231500Y-70051009D01*
X103231499Y-68700992D01*
X103220999Y-68598203D01*
X103165814Y-68431666D01*
X103073712Y-68282344D01*
X102949656Y-68158288D01*
X102800334Y-68066186D01*
X102633797Y-68011001D01*
X102633795Y-68011000D01*
X102531010Y-68000500D01*
X101630998Y-68000500D01*
X101630980Y-68000501D01*
X101528203Y-68011000D01*
X101528200Y-68011001D01*
X101361668Y-68066185D01*
X101361663Y-68066187D01*
X101212342Y-68158289D01*
X101088289Y-68282342D01*
X100996187Y-68431663D01*
X100996185Y-68431668D01*
X100990229Y-68449642D01*
X100943624Y-68590289D01*
X100941001Y-68598204D01*
X100941000Y-68598205D01*
X100934268Y-68664103D01*
X100907871Y-68728795D01*
X100850690Y-68768946D01*
X100810910Y-68775500D01*
X96544942Y-68775500D01*
X96392214Y-68816423D01*
X96370929Y-68828713D01*
X96370926Y-68828714D01*
X96255290Y-68895475D01*
X96255282Y-68895481D01*
X96162583Y-68988181D01*
X96101260Y-69021666D01*
X96074902Y-69024500D01*
X95784298Y-69024500D01*
X95747432Y-69027401D01*
X95747426Y-69027402D01*
X95589606Y-69073254D01*
X95589599Y-69073257D01*
X95517620Y-69115825D01*
X95449896Y-69133008D01*
X95383634Y-69110848D01*
X95339871Y-69056381D01*
X95330500Y-69009093D01*
X95330500Y-68570097D01*
X95350185Y-68503058D01*
X95366819Y-68482416D01*
X97212417Y-66636819D01*
X97273740Y-66603334D01*
X97300098Y-66600500D01*
X100750911Y-66600500D01*
X100817950Y-66620185D01*
X100863705Y-66672989D01*
X100874269Y-66711898D01*
X100881001Y-66777797D01*
X100881001Y-66777799D01*
X100936185Y-66944331D01*
X100936186Y-66944334D01*
X101028288Y-67093656D01*
X101152344Y-67217712D01*
X101301666Y-67309814D01*
X101468203Y-67364999D01*
X101570991Y-67375500D01*
X102471008Y-67375499D01*
X102471016Y-67375498D01*
X102471019Y-67375498D01*
X102527302Y-67369748D01*
X102573797Y-67364999D01*
X102740334Y-67309814D01*
X102889656Y-67217712D01*
X103013712Y-67093656D01*
X103105814Y-66944334D01*
X103160999Y-66777797D01*
X103171500Y-66675009D01*
X103171499Y-65324992D01*
X103163838Y-65250000D01*
X103160999Y-65222203D01*
X103160998Y-65222200D01*
X103122886Y-65107187D01*
X103105814Y-65055666D01*
X103013712Y-64906344D01*
X102889656Y-64782288D01*
X102740334Y-64690186D01*
X102573797Y-64635001D01*
X102573795Y-64635000D01*
X102471010Y-64624500D01*
X101570998Y-64624500D01*
X101570980Y-64624501D01*
X101468203Y-64635000D01*
X101468200Y-64635001D01*
X101301668Y-64690185D01*
X101301663Y-64690187D01*
X101152342Y-64782289D01*
X101028289Y-64906342D01*
X100936187Y-65055663D01*
X100936185Y-65055668D01*
X100908349Y-65139670D01*
X100881002Y-65222202D01*
X100881001Y-65222204D01*
X100881000Y-65222205D01*
X100874268Y-65288103D01*
X100847871Y-65352795D01*
X100790690Y-65392946D01*
X100750910Y-65399500D01*
X97086670Y-65399500D01*
X97086654Y-65399499D01*
X97079058Y-65399499D01*
X96920943Y-65399499D01*
X96768215Y-65440423D01*
X96768213Y-65440423D01*
X96768213Y-65440424D01*
X96631281Y-65519482D01*
X94772180Y-67378584D01*
X94710857Y-67412069D01*
X94641165Y-67407085D01*
X94585232Y-67365213D01*
X94560815Y-67299749D01*
X94560499Y-67290903D01*
X94560499Y-56297844D01*
X157960000Y-56297844D01*
X157966401Y-56357372D01*
X157966403Y-56357379D01*
X158016645Y-56492086D01*
X158016649Y-56492093D01*
X158102809Y-56607187D01*
X158102812Y-56607190D01*
X158217906Y-56693350D01*
X158217913Y-56693354D01*
X158352620Y-56743596D01*
X158352627Y-56743598D01*
X158412155Y-56749999D01*
X158412172Y-56750000D01*
X160750000Y-56750000D01*
X160750000Y-55750000D01*
X157960000Y-55750000D01*
X157960000Y-56297844D01*
X94560499Y-56297844D01*
X94560499Y-54702155D01*
X157960000Y-54702155D01*
X157960000Y-55250000D01*
X160750000Y-55250000D01*
X160750000Y-54250000D01*
X158412155Y-54250000D01*
X158352627Y-54256401D01*
X158352620Y-54256403D01*
X158217913Y-54306645D01*
X158217906Y-54306649D01*
X158102812Y-54392809D01*
X158102809Y-54392812D01*
X158016649Y-54507906D01*
X158016645Y-54507913D01*
X157966403Y-54642620D01*
X157966401Y-54642627D01*
X157960000Y-54702155D01*
X94560499Y-54702155D01*
X94560499Y-53785718D01*
X94580184Y-53718679D01*
X94628206Y-53675233D01*
X94667814Y-53655052D01*
X94667814Y-53655051D01*
X94667815Y-53655051D01*
X94759192Y-53588661D01*
X94839785Y-53530109D01*
X94839787Y-53530106D01*
X94839791Y-53530104D01*
X94990103Y-53379792D01*
X94990105Y-53379788D01*
X94990108Y-53379786D01*
X95115047Y-53207821D01*
X95115050Y-53207816D01*
X95119512Y-53199056D01*
X95167483Y-53148260D01*
X95235303Y-53131462D01*
X95301439Y-53153996D01*
X95340483Y-53199052D01*
X95344949Y-53207817D01*
X95469890Y-53379786D01*
X95620213Y-53530109D01*
X95792179Y-53655048D01*
X95792181Y-53655049D01*
X95792184Y-53655051D01*
X95981588Y-53751557D01*
X96183757Y-53817246D01*
X96393713Y-53850500D01*
X96393714Y-53850500D01*
X96606286Y-53850500D01*
X96606287Y-53850500D01*
X96816243Y-53817246D01*
X97018412Y-53751557D01*
X97207816Y-53655051D01*
X97294471Y-53592093D01*
X97379786Y-53530109D01*
X97379788Y-53530106D01*
X97379792Y-53530104D01*
X97530104Y-53379792D01*
X97530106Y-53379788D01*
X97530109Y-53379786D01*
X97655048Y-53207820D01*
X97655050Y-53207817D01*
X97655051Y-53207816D01*
X97751557Y-53018412D01*
X97817246Y-52816243D01*
X97850500Y-52606287D01*
X97850500Y-52393713D01*
X97817246Y-52183757D01*
X97751557Y-51981588D01*
X97655051Y-51792184D01*
X97655049Y-51792181D01*
X97655048Y-51792179D01*
X97530109Y-51620213D01*
X97379786Y-51469890D01*
X97207820Y-51344951D01*
X97018414Y-51248444D01*
X97018413Y-51248443D01*
X97018412Y-51248443D01*
X96816243Y-51182754D01*
X96816241Y-51182753D01*
X96816239Y-51182753D01*
X96686324Y-51162176D01*
X96623189Y-51132246D01*
X96618041Y-51127384D01*
X93946546Y-48455888D01*
X93946545Y-48455887D01*
X93831807Y-48379222D01*
X93704332Y-48326421D01*
X93704322Y-48326418D01*
X93568996Y-48299500D01*
X93568994Y-48299500D01*
X93568993Y-48299500D01*
X87931007Y-48299500D01*
X87931003Y-48299500D01*
X87822590Y-48321065D01*
X87822589Y-48321065D01*
X87809131Y-48323742D01*
X87795673Y-48326419D01*
X87769268Y-48337356D01*
X87742866Y-48348292D01*
X87742864Y-48348293D01*
X87742863Y-48348292D01*
X87668191Y-48379223D01*
X87668186Y-48379226D01*
X87604069Y-48422067D01*
X87604070Y-48422068D01*
X87553457Y-48455886D01*
X87553453Y-48455889D01*
X85955890Y-50053451D01*
X85955887Y-50053454D01*
X85936725Y-50082134D01*
X85879228Y-50168182D01*
X85879221Y-50168195D01*
X85826421Y-50295667D01*
X85826418Y-50295677D01*
X85799500Y-50431004D01*
X85799500Y-50431007D01*
X85799500Y-54931006D01*
X85799500Y-55068994D01*
X85799500Y-55068996D01*
X85799499Y-55068996D01*
X75000500Y-55068996D01*
X75000500Y-52502706D01*
X75000618Y-52497297D01*
X75003377Y-52434108D01*
X75017386Y-52113226D01*
X75018326Y-52102495D01*
X75068152Y-51724025D01*
X75070025Y-51713405D01*
X75152649Y-51340709D01*
X75155440Y-51330295D01*
X75270230Y-50966227D01*
X75273917Y-50956095D01*
X75420003Y-50603412D01*
X75424561Y-50593638D01*
X75600822Y-50255045D01*
X75606217Y-50245700D01*
X75811325Y-49923744D01*
X75817515Y-49914905D01*
X76049896Y-49612060D01*
X76056834Y-49603791D01*
X76314726Y-49322352D01*
X76322352Y-49314726D01*
X76603791Y-49056834D01*
X76612060Y-49049896D01*
X76914905Y-48817515D01*
X76923744Y-48811325D01*
X77245700Y-48606217D01*
X77255045Y-48600822D01*
X77593638Y-48424561D01*
X77603412Y-48420003D01*
X77956095Y-48273917D01*
X77966227Y-48270230D01*
X78330295Y-48155440D01*
X78340709Y-48152649D01*
X78713405Y-48070025D01*
X78724025Y-48068152D01*
X79102495Y-48018326D01*
X79113226Y-48017386D01*
X79497297Y-48000617D01*
X79502706Y-48000500D01*
X79565892Y-48000500D01*
X158434108Y-48000500D01*
X158497294Y-48000500D01*
X158502702Y-48000617D01*
G37*
%TD.AperFunction*%
%TD*%
%TA.AperFunction,Conductor*%
%TO.N,+3.3V*%
G36*
X92520000Y-83984463D02*
G01*
X92505203Y-83957365D01*
X92510187Y-83887673D01*
X92520000Y-83874564D01*
X92520000Y-83984463D01*
G37*
%TD.AperFunction*%
%TA.AperFunction,Conductor*%
G36*
X93653039Y-76294685D02*
G01*
X93698794Y-76347489D01*
X93710000Y-76399000D01*
X93710000Y-78081138D01*
X93690315Y-78148177D01*
X93687500Y-78151670D01*
X93687500Y-78350000D01*
X93187500Y-78350000D01*
X93187500Y-78043862D01*
X93207185Y-77976823D01*
X93210000Y-77973329D01*
X93210000Y-76399000D01*
X93229685Y-76331961D01*
X93282489Y-76286206D01*
X93334000Y-76275000D01*
X93586000Y-76275000D01*
X93653039Y-76294685D01*
G37*
%TD.AperFunction*%
%TD*%
%TA.AperFunction,Conductor*%
%TO.N,+3.3V*%
G36*
X113771539Y-73774684D02*
G01*
X113817294Y-73827488D01*
X113828500Y-73878999D01*
X113828500Y-74404499D01*
X114255324Y-74404499D01*
X114372628Y-74389057D01*
X114372633Y-74389055D01*
X114518585Y-74328600D01*
X114643924Y-74232424D01*
X114740101Y-74107085D01*
X114744163Y-74100050D01*
X114746698Y-74101513D01*
X114756554Y-74089269D01*
X114773184Y-74064526D01*
X114778224Y-74062347D01*
X114781670Y-74058068D01*
X114809959Y-74048635D01*
X114837322Y-74036812D01*
X114842740Y-74037704D01*
X114847953Y-74035967D01*
X114876849Y-74043325D01*
X114906262Y-74048173D01*
X114912071Y-74052295D01*
X114915661Y-74053210D01*
X114935555Y-74067860D01*
X114937897Y-74069975D01*
X114989711Y-74121789D01*
X115011079Y-74136066D01*
X115017784Y-74142122D01*
X115031527Y-74164505D01*
X115048369Y-74184657D01*
X115050616Y-74195593D01*
X115054343Y-74201663D01*
X115054117Y-74212632D01*
X115058672Y-74234794D01*
X114999999Y-85500000D01*
X115000000Y-85500000D01*
X118376000Y-85500000D01*
X118443039Y-85519685D01*
X118488794Y-85572489D01*
X118500000Y-85624000D01*
X118500000Y-90336608D01*
X118480315Y-90403647D01*
X118427511Y-90449402D01*
X118358353Y-90459346D01*
X118294797Y-90430321D01*
X118258294Y-90375613D01*
X118234357Y-90303378D01*
X118234356Y-90303375D01*
X118142315Y-90154154D01*
X118018345Y-90030184D01*
X117869124Y-89938143D01*
X117869119Y-89938141D01*
X117702697Y-89882994D01*
X117702690Y-89882993D01*
X117599986Y-89872500D01*
X116750000Y-89872500D01*
X116750000Y-91072498D01*
X116689598Y-91047479D01*
X116564019Y-91022500D01*
X116435981Y-91022500D01*
X116310402Y-91047479D01*
X116250000Y-91072498D01*
X116250000Y-89872500D01*
X115400028Y-89872500D01*
X115400012Y-89872501D01*
X115297302Y-89882994D01*
X115130880Y-89938141D01*
X115130875Y-89938143D01*
X114981654Y-90030184D01*
X114857684Y-90154154D01*
X114765643Y-90303375D01*
X114765641Y-90303380D01*
X114710494Y-90469802D01*
X114710493Y-90469809D01*
X114700000Y-90572513D01*
X114700000Y-91422500D01*
X115899999Y-91422500D01*
X115874979Y-91482902D01*
X115850000Y-91608481D01*
X115850000Y-91736519D01*
X115874979Y-91862098D01*
X115899999Y-91922500D01*
X114700001Y-91922500D01*
X114700001Y-92772486D01*
X114710494Y-92875197D01*
X114765641Y-93041619D01*
X114765643Y-93041624D01*
X114857684Y-93190845D01*
X114955158Y-93288319D01*
X114988643Y-93349642D01*
X114983659Y-93419334D01*
X114941787Y-93475267D01*
X114876323Y-93499684D01*
X114867477Y-93500000D01*
X112624000Y-93500000D01*
X112556961Y-93480315D01*
X112511206Y-93427511D01*
X112500000Y-93376000D01*
X112500000Y-88500000D01*
X92644000Y-88500000D01*
X92576961Y-88480315D01*
X92531206Y-88427511D01*
X92520000Y-88376000D01*
X92520000Y-83984463D01*
X92520000Y-83874564D01*
X92552059Y-83831740D01*
X92617523Y-83807323D01*
X92685796Y-83822175D01*
X92691466Y-83825469D01*
X92705869Y-83834353D01*
X92705880Y-83834358D01*
X92872302Y-83889505D01*
X92872309Y-83889506D01*
X92975019Y-83899999D01*
X93187499Y-83899999D01*
X93687500Y-83899999D01*
X93899972Y-83899999D01*
X93899986Y-83899998D01*
X94002697Y-83889505D01*
X94169119Y-83834358D01*
X94169124Y-83834356D01*
X94318345Y-83742315D01*
X94442315Y-83618345D01*
X94534356Y-83469124D01*
X94534358Y-83469119D01*
X94589505Y-83302697D01*
X94589506Y-83302690D01*
X94599999Y-83199986D01*
X94600000Y-83199973D01*
X94600000Y-82750000D01*
X93687500Y-82750000D01*
X93687500Y-83899999D01*
X93187499Y-83899999D01*
X93187500Y-83899998D01*
X93187500Y-81099999D01*
X93175181Y-81087680D01*
X93141696Y-81026357D01*
X93146680Y-80956665D01*
X93175181Y-80912318D01*
X93187500Y-80899999D01*
X93687500Y-80899999D01*
X93699819Y-80912318D01*
X93733304Y-80973641D01*
X93728320Y-81043333D01*
X93699820Y-81087679D01*
X93687500Y-81099999D01*
X93687500Y-82250000D01*
X94599999Y-82250000D01*
X94599999Y-81800028D01*
X94599998Y-81800013D01*
X94589505Y-81697302D01*
X94534358Y-81530880D01*
X94534356Y-81530875D01*
X94442315Y-81381654D01*
X94318345Y-81257684D01*
X94169124Y-81165643D01*
X94169119Y-81165641D01*
X94024460Y-81117706D01*
X93967015Y-81077933D01*
X93940192Y-81013417D01*
X93952507Y-80944642D01*
X94000050Y-80893442D01*
X94024460Y-80882294D01*
X94169119Y-80834358D01*
X94169124Y-80834356D01*
X94318345Y-80742315D01*
X94442315Y-80618345D01*
X94534356Y-80469124D01*
X94534358Y-80469119D01*
X94589505Y-80302697D01*
X94589506Y-80302690D01*
X94599999Y-80199986D01*
X94600000Y-80199973D01*
X94600000Y-79750000D01*
X93687500Y-79750000D01*
X93687500Y-80899999D01*
X93187500Y-80899999D01*
X93187500Y-79624000D01*
X93207185Y-79556961D01*
X93259989Y-79511206D01*
X93311500Y-79500000D01*
X93437500Y-79500000D01*
X93437500Y-79374000D01*
X93457185Y-79306961D01*
X93509989Y-79261206D01*
X93561500Y-79250000D01*
X94599999Y-79250000D01*
X94599999Y-78800028D01*
X94599998Y-78800013D01*
X94589505Y-78697302D01*
X94534357Y-78530877D01*
X94532271Y-78526403D01*
X94521780Y-78457325D01*
X94550301Y-78393542D01*
X94608779Y-78355303D01*
X94644654Y-78350000D01*
X94876000Y-78350000D01*
X94943039Y-78369685D01*
X94988794Y-78422489D01*
X95000000Y-78474000D01*
X95000000Y-85500000D01*
X112000000Y-85500000D01*
X112000000Y-80699986D01*
X112275001Y-80699986D01*
X112285494Y-80802697D01*
X112340641Y-80969119D01*
X112340643Y-80969124D01*
X112432684Y-81118345D01*
X112556654Y-81242315D01*
X112705875Y-81334356D01*
X112705880Y-81334358D01*
X112872302Y-81389505D01*
X112872309Y-81389506D01*
X112975019Y-81399999D01*
X113187499Y-81399999D01*
X113687500Y-81399999D01*
X113899972Y-81399999D01*
X113899986Y-81399998D01*
X114002697Y-81389505D01*
X114169119Y-81334358D01*
X114169124Y-81334356D01*
X114318345Y-81242315D01*
X114442315Y-81118345D01*
X114534356Y-80969124D01*
X114534358Y-80969119D01*
X114589505Y-80802697D01*
X114589506Y-80802690D01*
X114599999Y-80699986D01*
X114600000Y-80699973D01*
X114600000Y-80250000D01*
X113687500Y-80250000D01*
X113687500Y-81399999D01*
X113187499Y-81399999D01*
X113187500Y-81399998D01*
X113187500Y-80250000D01*
X112275001Y-80250000D01*
X112275001Y-80699986D01*
X112000000Y-80699986D01*
X112000000Y-79300013D01*
X112275000Y-79300013D01*
X112275000Y-79750000D01*
X113187500Y-79750000D01*
X113187500Y-78600000D01*
X113687500Y-78600000D01*
X113687500Y-79750000D01*
X114599999Y-79750000D01*
X114599999Y-79300028D01*
X114599998Y-79300013D01*
X114589505Y-79197302D01*
X114534358Y-79030880D01*
X114534356Y-79030875D01*
X114442315Y-78881654D01*
X114318345Y-78757684D01*
X114169124Y-78665643D01*
X114169119Y-78665641D01*
X114055052Y-78627843D01*
X113997607Y-78588070D01*
X113970784Y-78523554D01*
X113983099Y-78454778D01*
X114030642Y-78403579D01*
X114059036Y-78392442D01*
X114058769Y-78391636D01*
X114231619Y-78334358D01*
X114231624Y-78334356D01*
X114380845Y-78242315D01*
X114504815Y-78118345D01*
X114596856Y-77969124D01*
X114596858Y-77969119D01*
X114652005Y-77802697D01*
X114652006Y-77802690D01*
X114662499Y-77699986D01*
X114662500Y-77699973D01*
X114662500Y-77250000D01*
X113750000Y-77250000D01*
X113750000Y-78409709D01*
X113771805Y-78449642D01*
X113766821Y-78519334D01*
X113724949Y-78575267D01*
X113704668Y-78582831D01*
X113687500Y-78600000D01*
X113187500Y-78600000D01*
X113187500Y-78590289D01*
X113186288Y-78588070D01*
X113165695Y-78550360D01*
X113166063Y-78545220D01*
X113167612Y-78523554D01*
X113170678Y-78480668D01*
X113170678Y-78480666D01*
X113170679Y-78480665D01*
X113198360Y-78443688D01*
X113212549Y-78424733D01*
X113212550Y-78424732D01*
X113212551Y-78424732D01*
X113224661Y-78420215D01*
X113232831Y-78417167D01*
X113250000Y-78399998D01*
X113250000Y-77250000D01*
X112337501Y-77250000D01*
X112337501Y-77699986D01*
X112347994Y-77802697D01*
X112403141Y-77969119D01*
X112403143Y-77969124D01*
X112495184Y-78118345D01*
X112619154Y-78242315D01*
X112768375Y-78334356D01*
X112768380Y-78334358D01*
X112882447Y-78372156D01*
X112939892Y-78411928D01*
X112966715Y-78476444D01*
X112954400Y-78545220D01*
X112906857Y-78596420D01*
X112878464Y-78607560D01*
X112878731Y-78608364D01*
X112705880Y-78665641D01*
X112705875Y-78665643D01*
X112556654Y-78757684D01*
X112432684Y-78881654D01*
X112340643Y-79030875D01*
X112340641Y-79030880D01*
X112285494Y-79197302D01*
X112285493Y-79197309D01*
X112275000Y-79300013D01*
X112000000Y-79300013D01*
X112000000Y-76300013D01*
X112337500Y-76300013D01*
X112337500Y-76750000D01*
X113250000Y-76750000D01*
X113750000Y-76750000D01*
X114662499Y-76750000D01*
X114662499Y-76300028D01*
X114662498Y-76300013D01*
X114652005Y-76197302D01*
X114596858Y-76030880D01*
X114596856Y-76030875D01*
X114504815Y-75881654D01*
X114380845Y-75757684D01*
X114231624Y-75665643D01*
X114231619Y-75665641D01*
X114065197Y-75610494D01*
X114065190Y-75610493D01*
X113962486Y-75600000D01*
X113750000Y-75600000D01*
X113750000Y-76750000D01*
X113250000Y-76750000D01*
X113250000Y-75600000D01*
X113037529Y-75600000D01*
X113037512Y-75600001D01*
X112934802Y-75610494D01*
X112768380Y-75665641D01*
X112768375Y-75665643D01*
X112619154Y-75757684D01*
X112495184Y-75881654D01*
X112403143Y-76030875D01*
X112403141Y-76030880D01*
X112347994Y-76197302D01*
X112347993Y-76197309D01*
X112337500Y-76300013D01*
X112000000Y-76300013D01*
X112000000Y-74315349D01*
X112019685Y-74248310D01*
X112072489Y-74202555D01*
X112268997Y-74112813D01*
X112342818Y-74065370D01*
X112409857Y-74045686D01*
X112476897Y-74065370D01*
X112511132Y-74101271D01*
X112511954Y-74100641D01*
X112613075Y-74232424D01*
X112738413Y-74328600D01*
X112884365Y-74389054D01*
X112884369Y-74389055D01*
X113001676Y-74404499D01*
X113428499Y-74404499D01*
X113428500Y-74404498D01*
X113428500Y-73878999D01*
X113431050Y-73870313D01*
X113429762Y-73861352D01*
X113440740Y-73837311D01*
X113448185Y-73811960D01*
X113455025Y-73806032D01*
X113458787Y-73797796D01*
X113481021Y-73783506D01*
X113500989Y-73766205D01*
X113511503Y-73763917D01*
X113517565Y-73760022D01*
X113552496Y-73754999D01*
X113704501Y-73754999D01*
X113771539Y-73774684D01*
G37*
%TD.AperFunction*%
%TD*%
M02*
