%TF.GenerationSoftware,KiCad,Pcbnew,9.0.4*%
%TF.CreationDate,2026-09-27T17:38:48-05:00*%
%TF.ProjectId,Simple_DAC_implementation,53696d70-6c65-45f4-9441-435f696d706c,rev?*%
%TF.SameCoordinates,Original*%
%TF.FileFunction,Paste,Top*%
%TF.FilePolarity,Positive*%
%FSLAX46Y46*%
G04 Gerber Fmt 4.6, Leading zero omitted, Abs format (unit mm)*
G04 Created by KiCad (PCBNEW 9.0.4) date 2026-09-27 17:38:48*
%MOMM*%
%LPD*%
G01*
G04 APERTURE LIST*
G04 Aperture macros list*
%AMRoundRect*
0 Rectangle with rounded corners*
0 $1 Rounding radius*
0 $2 $3 $4 $5 $6 $7 $8 $9 X,Y pos of 4 corners*
0 Add a 4 corners polygon primitive as box body*
4,1,4,$2,$3,$4,$5,$6,$7,$8,$9,$2,$3,0*
0 Add four circle primitives for the rounded corners*
1,1,$1+$1,$2,$3*
1,1,$1+$1,$4,$5*
1,1,$1+$1,$6,$7*
1,1,$1+$1,$8,$9*
0 Add four rect primitives between the rounded corners*
20,1,$1+$1,$2,$3,$4,$5,0*
20,1,$1+$1,$4,$5,$6,$7,0*
20,1,$1+$1,$6,$7,$8,$9,0*
20,1,$1+$1,$8,$9,$2,$3,0*%
G04 Aperture macros list end*
%ADD10RoundRect,0.150000X0.150000X-1.100000X0.150000X1.100000X-0.150000X1.100000X-0.150000X-1.100000X0*%
%ADD11RoundRect,0.250000X-0.412500X-0.650000X0.412500X-0.650000X0.412500X0.650000X-0.412500X0.650000X0*%
%ADD12R,5.080000X1.500000*%
%ADD13RoundRect,0.250000X-0.625000X0.400000X-0.625000X-0.400000X0.625000X-0.400000X0.625000X0.400000X0*%
%ADD14RoundRect,0.250000X0.625000X-0.400000X0.625000X0.400000X-0.625000X0.400000X-0.625000X-0.400000X0*%
%ADD15RoundRect,0.250000X-0.400000X-0.625000X0.400000X-0.625000X0.400000X0.625000X-0.400000X0.625000X0*%
%ADD16R,1.714000X0.304800*%
%ADD17R,1.714000X0.327399*%
%ADD18RoundRect,0.100000X-0.587500X-0.100000X0.587500X-0.100000X0.587500X0.100000X-0.587500X0.100000X0*%
%ADD19RoundRect,0.250000X-0.650000X0.412500X-0.650000X-0.412500X0.650000X-0.412500X0.650000X0.412500X0*%
G04 APERTURE END LIST*
D10*
%TO.C,U2*%
X92190000Y-76275000D03*
X93460000Y-76275000D03*
X94730000Y-76275000D03*
X96000000Y-76275000D03*
X96000000Y-70775000D03*
X94730000Y-70775000D03*
X93460000Y-70775000D03*
X92190000Y-70775000D03*
%TD*%
D11*
%TO.C,C5*%
X154137500Y-70000000D03*
X151012500Y-70000000D03*
%TD*%
D12*
%TO.C,J2*%
X161000000Y-59750000D03*
X161000000Y-55500000D03*
X161000000Y-64000000D03*
%TD*%
D11*
%TO.C,C6*%
X154200000Y-67000000D03*
X151075000Y-67000000D03*
%TD*%
D13*
%TO.C,R5*%
X140409000Y-72000000D03*
X140409000Y-68899998D03*
%TD*%
%TO.C,R9*%
X154500000Y-75550001D03*
X154500000Y-72449999D03*
%TD*%
%TO.C,R8*%
X154500000Y-81550001D03*
X154500000Y-78449999D03*
%TD*%
D14*
%TO.C,R6*%
X135118000Y-68899998D03*
X135118000Y-72000000D03*
%TD*%
D15*
%TO.C,R10*%
X140449999Y-59750000D03*
X143550001Y-59750000D03*
%TD*%
D16*
%TO.C,U4*%
X150915000Y-72042001D03*
X150915000Y-72691999D03*
X150915000Y-73342001D03*
X150915000Y-73991999D03*
X144629000Y-73991999D03*
D17*
X144629000Y-73353300D03*
D16*
X144629000Y-72691999D03*
X144629000Y-72042001D03*
%TD*%
D15*
%TO.C,R1*%
X120115000Y-73254000D03*
X117015000Y-73254000D03*
%TD*%
D18*
%TO.C,U1*%
X111003500Y-72404500D03*
X111003500Y-73054500D03*
X111003500Y-73704500D03*
X113628500Y-73704500D03*
X113628500Y-73054500D03*
X113628500Y-72404500D03*
%TD*%
D14*
%TO.C,R7*%
X97000000Y-95000000D03*
X97000000Y-91899998D03*
%TD*%
D15*
%TO.C,R4*%
X102021000Y-66000000D03*
X105121000Y-66000000D03*
%TD*%
%TO.C,R3*%
X102081000Y-69376000D03*
X105181000Y-69376000D03*
%TD*%
%TO.C,R2*%
X102021000Y-73443000D03*
X105121000Y-73443000D03*
%TD*%
D19*
%TO.C,C7*%
X123000000Y-73375000D03*
X123000000Y-76500000D03*
%TD*%
D11*
%TO.C,C4*%
X113437500Y-80000000D03*
X116562500Y-80000000D03*
%TD*%
%TO.C,C3*%
X113500000Y-77000000D03*
X116625000Y-77000000D03*
%TD*%
%TO.C,C2*%
X93437500Y-82500000D03*
X96562500Y-82500000D03*
%TD*%
%TO.C,C1*%
X93437500Y-79500000D03*
X96562500Y-79500000D03*
%TD*%
M02*
