M48
; DRILL file {KiCad 9.0.4} date 2026-09-27T17:38:45-0500
; FORMAT={-:-/ absolute / metric / decimal}
; #@! TF.CreationDate,2026-09-27T17:38:45-05:00
; #@! TF.GenerationSoftware,Kicad,Pcbnew,9.0.4
; #@! TF.FileFunction,Plated,1,2,PTH
FMAT,2
METRIC
; #@! TA.AperFunction,Plated,PTH,ViaDrill
T1C0.300
; #@! TA.AperFunction,Plated,PTH,ComponentDrill
T2C0.900
; #@! TA.AperFunction,Plated,PTH,ComponentDrill
T3C1.000
; #@! TA.AperFunction,Plated,PTH,ComponentDrill
T4C1.300
; #@! TA.AperFunction,Plated,PTH,ComponentDrill
T5C5.000
%
G90
G05
T1
X75.5Y-62.0
X75.5Y-65.0
X75.5Y-68.0
X75.5Y-71.0
X75.5Y-74.0
X75.5Y-78.0
X75.5Y-82.0
X76.0Y-61.0
X76.0Y-63.0
X76.0Y-64.0
X76.0Y-66.0
X76.0Y-67.0
X76.0Y-69.0
X76.0Y-70.0
X76.0Y-72.0
X76.0Y-73.0
X76.0Y-75.0
X76.0Y-76.0
X76.0Y-77.0
X76.0Y-79.0
X76.0Y-80.0
X76.0Y-81.0
X76.0Y-83.0
X76.5Y-62.0
X76.5Y-65.0
X76.5Y-71.0
X76.5Y-74.0
X76.5Y-78.0
X76.5Y-82.0
X76.5Y-68.0
X77.0Y-61.0
X77.0Y-70.0
X77.0Y-63.0
X77.0Y-64.0
X77.0Y-66.0
X77.0Y-67.0
X77.0Y-69.0
X77.0Y-72.0
X77.0Y-73.0
X77.0Y-75.0
X77.0Y-76.0
X77.0Y-77.0
X77.0Y-79.0
X77.0Y-80.0
X77.0Y-81.0
X77.0Y-83.0
X77.5Y-62.0
X77.5Y-65.0
X77.5Y-68.0
X77.5Y-71.0
X77.5Y-74.0
X77.5Y-78.0
X77.5Y-82.0
X78.0Y-61.0
X78.0Y-63.0
X78.0Y-64.0
X78.0Y-66.0
X78.0Y-67.0
X78.0Y-69.0
X78.0Y-70.0
X78.0Y-72.0
X78.0Y-73.0
X78.0Y-75.0
X78.0Y-76.0
X78.0Y-77.0
X78.0Y-79.0
X78.0Y-80.0
X78.0Y-81.0
X78.0Y-83.0
X78.5Y-62.0
X78.5Y-65.0
X78.5Y-68.0
X78.5Y-71.0
X78.5Y-74.0
X78.5Y-78.0
X78.5Y-82.0
X79.0Y-61.0
X79.0Y-63.0
X79.0Y-64.0
X79.0Y-66.0
X79.0Y-67.0
X79.0Y-69.0
X79.0Y-70.0
X79.0Y-72.0
X79.0Y-73.0
X79.0Y-75.0
X79.0Y-76.0
X79.0Y-77.0
X79.0Y-79.0
X79.0Y-80.0
X79.0Y-81.0
X79.0Y-83.0
X79.5Y-62.0
X79.5Y-65.0
X79.5Y-68.0
X79.5Y-71.0
X79.5Y-74.0
X79.5Y-78.0
X79.5Y-82.0
X80.0Y-61.0
X80.0Y-63.0
X80.0Y-64.0
X80.0Y-66.0
X80.0Y-67.0
X80.0Y-69.0
X80.0Y-70.0
X80.0Y-72.0
X80.0Y-73.0
X80.0Y-75.0
X80.0Y-76.0
X80.0Y-77.0
X80.0Y-79.0
X80.0Y-80.0
X80.0Y-81.0
X80.0Y-83.0
X82.5Y-60.0
X82.5Y-62.5
X82.5Y-65.0
X82.5Y-67.5
X82.5Y-70.0
X82.5Y-72.5
X82.5Y-75.0
X82.5Y-77.5
X82.5Y-80.0
X82.5Y-82.5
X82.5Y-85.0
X85.0Y-57.5
X85.0Y-60.0
X85.0Y-62.5
X85.0Y-65.0
X85.0Y-67.5
X85.0Y-70.0
X85.0Y-72.5
X85.0Y-75.0
X85.0Y-77.5
X85.0Y-80.0
X85.0Y-82.5
X85.0Y-85.0
X87.5Y-75.0
X87.5Y-77.5
X87.5Y-80.0
X87.5Y-82.5
X87.5Y-85.0
X87.5Y-87.5
X87.5Y-90.0
X90.0Y-55.0
X90.0Y-57.5
X90.0Y-60.0
X90.0Y-62.5
X90.0Y-65.0
X90.0Y-67.5
X90.0Y-70.0
X90.0Y-75.0
X90.0Y-77.5
X90.0Y-80.0
X90.0Y-82.5
X90.0Y-85.0
X90.0Y-87.5
X90.0Y-90.0
X95.0Y-57.5
X95.0Y-60.0
X95.0Y-62.5
X95.0Y-65.0
X95.0Y-74.0
X97.0Y-90.0
X97.5Y-60.0
X97.5Y-62.5
X97.5Y-65.0
X97.5Y-75.0
X97.5Y-77.5
X98.5Y-79.5
X98.5Y-82.5
X99.5Y-92.0
X100.0Y-60.0
X100.0Y-62.5
X100.0Y-65.0
X100.0Y-75.0
X100.0Y-77.5
X100.0Y-80.0
X100.0Y-82.5
X101.0Y-93.0
X101.0Y-95.0
X101.0Y-96.0
X101.5Y-94.0
X102.0Y-93.0
X102.0Y-95.0
X102.0Y-96.0
X102.5Y-49.0
X102.5Y-50.0
X102.5Y-51.0
X102.5Y-52.0
X102.5Y-53.0
X102.5Y-60.0
X102.5Y-62.5
X102.5Y-77.5
X102.5Y-80.0
X102.5Y-82.5
X102.5Y-94.0
X103.0Y-93.0
X103.0Y-95.0
X103.0Y-96.0
X103.5Y-48.5
X103.5Y-49.5
X103.5Y-50.5
X103.5Y-51.5
X103.5Y-52.5
X103.5Y-94.0
X104.0Y-93.0
X104.0Y-95.0
X104.0Y-96.0
X104.5Y-49.0
X104.5Y-50.0
X104.5Y-51.0
X104.5Y-52.0
X104.5Y-53.0
X104.5Y-94.0
X105.0Y-60.0
X105.0Y-62.5
X105.0Y-77.5
X105.0Y-80.0
X105.0Y-82.5
X105.0Y-95.0
X105.0Y-96.0
X105.0Y-93.0
X105.5Y-49.0
X105.5Y-50.0
X105.5Y-51.0
X105.5Y-52.0
X105.5Y-53.0
X105.5Y-94.0
X106.0Y-93.0
X106.0Y-95.0
X106.0Y-96.0
X106.5Y-48.5
X106.5Y-49.5
X106.5Y-50.5
X106.5Y-51.5
X106.5Y-52.5
X106.5Y-94.0
X107.0Y-93.0
X107.0Y-95.0
X107.0Y-96.0
X107.5Y-49.0
X107.5Y-50.0
X107.5Y-51.0
X107.5Y-52.0
X107.5Y-53.0
X107.5Y-60.0
X107.5Y-62.5
X107.5Y-65.0
X107.5Y-77.5
X107.5Y-80.0
X107.5Y-82.5
X107.5Y-94.0
X108.0Y-93.0
X108.0Y-95.0
X108.0Y-96.0
X108.5Y-49.0
X108.5Y-50.0
X108.5Y-51.0
X108.5Y-52.0
X108.5Y-53.0
X108.5Y-94.0
X109.0Y-93.0
X109.0Y-95.0
X109.0Y-96.0
X109.5Y-48.5
X109.5Y-49.5
X109.5Y-50.5
X109.5Y-51.5
X109.5Y-52.5
X109.5Y-94.0
X110.0Y-60.0
X110.0Y-62.5
X110.0Y-65.0
X110.0Y-77.5
X110.0Y-80.0
X110.0Y-82.5
X110.0Y-95.0
X110.0Y-96.0
X110.0Y-93.0
X110.5Y-49.0
X110.5Y-50.0
X110.5Y-51.0
X110.5Y-52.0
X110.5Y-53.0
X110.5Y-94.0
X111.5Y-49.0
X111.5Y-50.0
X111.5Y-51.0
X111.5Y-52.0
X111.5Y-53.0
X112.5Y-48.5
X112.5Y-49.5
X112.5Y-50.5
X112.5Y-51.5
X112.5Y-52.5
X112.5Y-60.0
X112.5Y-62.5
X112.5Y-65.0
X112.5Y-67.5
X113.5Y-49.0
X113.5Y-50.0
X113.5Y-51.0
X113.5Y-52.0
X113.5Y-53.0
X114.5Y-49.0
X114.5Y-50.0
X114.5Y-51.0
X114.5Y-52.0
X114.5Y-53.0
X115.0Y-60.0
X115.0Y-62.5
X115.0Y-65.0
X115.0Y-67.5
X115.0Y-70.0
X115.5Y-48.5
X115.5Y-49.5
X115.5Y-50.5
X115.5Y-51.5
X115.5Y-52.5
X115.5Y-73.5
X116.5Y-49.0
X116.5Y-50.0
X116.5Y-51.0
X116.5Y-52.0
X116.5Y-53.0
X117.5Y-49.0
X117.5Y-50.0
X117.5Y-51.0
X117.5Y-52.0
X117.5Y-53.0
X117.5Y-60.0
X117.5Y-62.5
X117.5Y-65.0
X117.5Y-67.5
X117.5Y-70.0
X117.5Y-82.5
X118.5Y-48.5
X118.5Y-49.5
X118.5Y-50.5
X118.5Y-51.5
X118.5Y-52.5
X118.5Y-77.0
X118.5Y-80.0
X119.5Y-49.0
X119.5Y-50.0
X119.5Y-51.0
X119.5Y-52.0
X119.5Y-53.0
X119.5Y-89.5
X119.5Y-93.5
X120.0Y-60.0
X120.0Y-62.5
X120.0Y-65.0
X120.0Y-67.5
X120.0Y-70.0
X120.0Y-80.0
X120.0Y-82.5
X120.0Y-85.0
X120.5Y-49.0
X120.5Y-50.0
X120.5Y-51.0
X120.5Y-52.0
X120.5Y-53.0
X121.0Y-76.5
X121.5Y-48.5
X121.5Y-49.5
X121.5Y-50.5
X121.5Y-51.5
X121.5Y-52.5
X122.5Y-49.0
X122.5Y-50.0
X122.5Y-51.0
X122.5Y-52.0
X122.5Y-53.0
X122.5Y-60.0
X122.5Y-62.5
X122.5Y-65.0
X122.5Y-67.5
X122.5Y-70.0
X122.5Y-80.0
X122.5Y-82.5
X122.5Y-85.0
X123.0Y-78.5
X123.0Y-89.5
X123.5Y-49.0
X123.5Y-50.0
X123.5Y-51.0
X123.5Y-52.0
X123.5Y-53.0
X123.5Y-93.5
X124.5Y-48.5
X124.5Y-49.5
X124.5Y-50.5
X124.5Y-51.5
X124.5Y-52.5
X124.5Y-89.5
X124.5Y-93.5
X125.0Y-60.0
X125.0Y-62.5
X125.0Y-65.0
X125.0Y-67.5
X125.0Y-70.0
X125.0Y-80.0
X125.0Y-82.5
X125.0Y-85.0
X125.5Y-49.0
X125.5Y-50.0
X125.5Y-51.0
X125.5Y-52.0
X125.5Y-53.0
X125.5Y-76.5
X126.5Y-49.0
X126.5Y-50.0
X126.5Y-51.0
X126.5Y-52.0
X126.5Y-53.0
X127.5Y-48.5
X127.5Y-49.5
X127.5Y-50.5
X127.5Y-51.5
X127.5Y-52.5
X127.5Y-60.0
X127.5Y-62.5
X127.5Y-65.0
X127.5Y-67.5
X127.5Y-70.0
X127.5Y-77.5
X127.5Y-80.0
X127.5Y-82.5
X127.5Y-85.0
X128.5Y-49.0
X128.5Y-50.0
X128.5Y-51.0
X128.5Y-52.0
X128.5Y-53.0
X128.5Y-89.5
X128.5Y-93.5
X129.5Y-49.0
X129.5Y-50.0
X129.5Y-51.0
X129.5Y-52.0
X129.5Y-53.0
X130.0Y-60.0
X130.0Y-62.5
X130.0Y-65.0
X130.0Y-67.5
X130.0Y-77.5
X130.0Y-80.0
X130.0Y-82.5
X130.0Y-85.0
X130.5Y-48.5
X130.5Y-49.5
X130.5Y-50.5
X130.5Y-51.5
X130.5Y-52.5
X131.5Y-49.0
X131.5Y-50.0
X131.5Y-51.0
X131.5Y-52.0
X131.5Y-53.0
X132.5Y-49.0
X132.5Y-50.0
X132.5Y-51.0
X132.5Y-52.0
X132.5Y-53.0
X132.5Y-60.0
X132.5Y-62.5
X132.5Y-65.0
X132.5Y-67.5
X132.5Y-69.0
X132.5Y-77.5
X132.5Y-80.0
X132.5Y-82.5
X132.5Y-85.0
X133.5Y-48.5
X133.5Y-49.5
X133.5Y-50.5
X133.5Y-51.5
X133.5Y-52.5
X134.5Y-49.0
X134.5Y-50.0
X134.5Y-51.0
X134.5Y-52.0
X134.5Y-53.0
X135.0Y-60.0
X135.0Y-62.5
X135.0Y-65.0
X135.0Y-67.5
X135.0Y-75.0
X135.0Y-77.5
X135.0Y-80.0
X135.0Y-82.5
X135.0Y-85.0
X135.0Y-87.5
X135.5Y-49.0
X135.5Y-50.0
X135.5Y-51.0
X135.5Y-52.0
X135.5Y-53.0
X136.0Y-95.0
X136.5Y-48.5
X136.5Y-49.5
X136.5Y-50.5
X136.5Y-51.5
X136.5Y-52.5
X136.5Y-93.0
X136.5Y-94.0
X136.5Y-96.0
X137.0Y-95.0
X137.5Y-49.0
X137.5Y-50.0
X137.5Y-51.0
X137.5Y-52.0
X137.5Y-53.0
X137.5Y-60.0
X137.5Y-62.5
X137.5Y-65.0
X137.5Y-69.0
X137.5Y-75.0
X137.5Y-77.5
X137.5Y-80.0
X137.5Y-82.5
X137.5Y-85.0
X137.5Y-93.0
X137.5Y-94.0
X137.5Y-96.0
X138.0Y-95.0
X138.5Y-49.0
X138.5Y-50.0
X138.5Y-51.0
X138.5Y-52.0
X138.5Y-53.0
X138.5Y-59.0
X138.5Y-60.0
X138.5Y-68.0
X138.5Y-69.0
X138.5Y-93.0
X138.5Y-94.0
X138.5Y-96.0
X139.0Y-58.0
X139.0Y-61.0
X139.0Y-62.0
X139.0Y-63.0
X139.0Y-64.0
X139.0Y-65.0
X139.0Y-66.0
X139.0Y-67.0
X139.0Y-95.0
X139.5Y-48.5
X139.5Y-49.5
X139.5Y-50.5
X139.5Y-51.5
X139.5Y-52.5
X139.5Y-93.0
X139.5Y-94.0
X139.5Y-96.0
X140.0Y-57.0
X140.0Y-75.0
X140.0Y-77.5
X140.0Y-80.0
X140.0Y-82.5
X140.0Y-90.0
X140.0Y-95.0
X140.5Y-49.0
X140.5Y-50.0
X140.5Y-51.0
X140.5Y-52.0
X140.5Y-53.0
X140.5Y-93.0
X140.5Y-94.0
X140.5Y-96.0
X141.0Y-57.0
X141.0Y-95.0
X141.5Y-49.0
X141.5Y-50.0
X141.5Y-51.0
X141.5Y-52.0
X141.5Y-53.0
X141.5Y-93.0
X141.5Y-94.0
X141.5Y-96.0
X142.0Y-57.0
X142.0Y-61.5
X142.0Y-62.5
X142.0Y-63.5
X142.0Y-64.5
X142.0Y-65.5
X142.0Y-66.5
X142.0Y-67.5
X142.0Y-95.0
X142.5Y-48.5
X142.5Y-49.5
X142.5Y-50.5
X142.5Y-51.5
X142.5Y-52.5
X142.5Y-68.5
X142.5Y-75.0
X142.5Y-77.5
X142.5Y-80.0
X142.5Y-87.5
X142.5Y-90.0
X142.5Y-93.0
X142.5Y-94.0
X142.5Y-96.0
X143.0Y-57.0
X143.0Y-62.5
X143.0Y-69.0
X143.0Y-95.0
X143.5Y-49.0
X143.5Y-50.0
X143.5Y-51.0
X143.5Y-52.0
X143.5Y-53.0
X143.5Y-69.5
X143.5Y-70.5
X143.5Y-93.0
X143.5Y-94.0
X143.5Y-96.0
X144.0Y-57.0
X144.0Y-62.5
X144.0Y-71.0
X144.0Y-95.0
X144.5Y-49.0
X144.5Y-50.0
X144.5Y-51.0
X144.5Y-52.0
X144.5Y-53.0
X144.5Y-93.0
X144.5Y-94.0
X144.5Y-96.0
X145.0Y-57.0
X145.0Y-58.0
X145.0Y-61.5
X145.0Y-62.5
X145.0Y-71.0
X145.0Y-77.5
X145.0Y-85.0
X145.0Y-87.5
X145.0Y-90.0
X145.0Y-95.0
X145.5Y-48.5
X145.5Y-49.5
X145.5Y-50.5
X145.5Y-51.5
X145.5Y-52.5
X145.5Y-93.0
X145.5Y-94.0
X145.5Y-96.0
X146.0Y-57.0
X146.0Y-58.0
X146.0Y-61.5
X146.0Y-62.5
X146.0Y-95.0
X146.5Y-49.0
X146.5Y-50.0
X146.5Y-51.0
X146.5Y-52.0
X146.5Y-53.0
X146.5Y-93.0
X146.5Y-94.0
X146.5Y-96.0
X147.0Y-57.0
X147.0Y-58.0
X147.0Y-61.5
X147.0Y-62.5
X147.0Y-95.0
X147.5Y-49.0
X147.5Y-51.0
X147.5Y-52.0
X147.5Y-53.0
X147.5Y-82.5
X147.5Y-85.0
X147.5Y-87.5
X147.5Y-90.0
X147.5Y-93.0
X147.5Y-94.0
X147.5Y-96.0
X147.5Y-50.0
X148.0Y-57.0
X148.0Y-58.0
X148.0Y-61.5
X148.0Y-62.5
X148.0Y-95.0
X148.5Y-48.5
X148.5Y-49.5
X148.5Y-50.5
X148.5Y-51.5
X148.5Y-52.5
X148.5Y-93.0
X148.5Y-94.0
X148.5Y-96.0
X149.0Y-57.0
X149.0Y-58.0
X149.0Y-61.5
X149.0Y-62.5
X149.0Y-95.0
X149.5Y-49.0
X149.5Y-50.0
X149.5Y-53.0
X149.5Y-93.0
X149.5Y-94.0
X149.5Y-96.0
X149.5Y-51.0
X149.5Y-52.0
X150.0Y-57.0
X150.0Y-58.0
X150.0Y-61.5
X150.0Y-62.5
X150.0Y-77.5
X150.0Y-80.0
X150.0Y-82.5
X150.0Y-85.0
X150.0Y-87.5
X150.0Y-95.0
X150.5Y-52.0
X150.5Y-49.0
X150.5Y-50.0
X150.5Y-51.0
X150.5Y-53.0
X150.5Y-93.0
X150.5Y-94.0
X150.5Y-96.0
X151.0Y-57.0
X151.0Y-58.0
X151.0Y-61.5
X151.0Y-62.5
X151.5Y-48.5
X151.5Y-50.5
X151.5Y-51.5
X151.5Y-52.5
X151.5Y-49.5
X152.0Y-57.0
X152.0Y-58.0
X152.0Y-61.5
X152.0Y-62.5
X152.0Y-81.5
X152.5Y-49.5
X152.5Y-50.5
X152.5Y-48.5
X152.5Y-51.5
X152.5Y-52.5
X152.5Y-82.5
X152.5Y-85.0
X153.0Y-57.0
X153.0Y-58.0
X153.0Y-61.5
X153.0Y-62.5
X153.5Y-49.0
X153.5Y-50.0
X153.5Y-51.0
X153.5Y-52.0
X153.5Y-53.0
X154.0Y-57.0
X154.0Y-58.0
X154.0Y-61.5
X154.0Y-62.5
X154.0Y-64.5
X154.5Y-51.5
X154.5Y-48.5
X154.5Y-49.5
X154.5Y-50.5
X154.5Y-52.5
X154.5Y-83.5
X155.0Y-57.0
X155.0Y-58.0
X155.0Y-61.5
X155.0Y-62.5
X156.0Y-57.0
X156.0Y-58.0
X156.0Y-61.5
X156.0Y-62.5
X156.0Y-67.0
X156.0Y-70.0
X157.0Y-57.0
X157.0Y-58.0
X157.0Y-61.5
X157.0Y-62.5
X157.0Y-81.5
X157.5Y-55.5
X157.5Y-64.0
X158.0Y-57.0
X158.0Y-58.0
X158.0Y-61.5
X158.0Y-62.5
X158.5Y-69.5
X158.5Y-71.5
X158.5Y-72.5
X158.5Y-73.5
X158.5Y-74.5
X158.5Y-76.5
X158.5Y-77.5
X158.5Y-78.5
X158.5Y-80.0
X158.5Y-82.0
X158.5Y-83.0
X158.5Y-84.0
X158.5Y-70.5
X158.5Y-75.5
X158.5Y-81.0
X159.0Y-57.0
X159.0Y-58.0
X159.0Y-61.5
X159.0Y-62.5
X159.5Y-70.5
X159.5Y-71.5
X159.5Y-75.5
X159.5Y-76.5
X159.5Y-81.0
X159.5Y-82.0
X159.5Y-55.5
X159.5Y-64.0
X159.5Y-69.5
X159.5Y-72.5
X159.5Y-73.5
X159.5Y-74.5
X159.5Y-77.5
X159.5Y-78.5
X159.5Y-80.0
X159.5Y-83.0
X159.5Y-84.0
X160.0Y-58.0
X160.0Y-61.5
X160.5Y-70.0
X160.5Y-71.0
X160.5Y-72.0
X160.5Y-73.0
X160.5Y-74.0
X160.5Y-75.0
X160.5Y-76.0
X160.5Y-77.0
X160.5Y-78.0
X160.5Y-79.0
X160.5Y-80.5
X160.5Y-81.5
X160.5Y-82.5
X160.5Y-83.5
X160.5Y-84.5
X161.0Y-53.5
X161.0Y-55.5
X161.0Y-57.0
X161.0Y-58.0
X161.0Y-61.5
X161.0Y-62.5
X161.0Y-64.0
X161.0Y-66.0
X161.5Y-72.5
X161.5Y-77.5
X161.5Y-83.0
X161.5Y-69.5
X161.5Y-70.5
X161.5Y-71.5
X161.5Y-73.5
X161.5Y-74.5
X161.5Y-75.5
X161.5Y-76.5
X161.5Y-78.5
X161.5Y-80.0
X161.5Y-81.0
X161.5Y-82.0
X161.5Y-84.0
X162.0Y-58.0
X162.0Y-61.5
X162.5Y-55.5
X162.5Y-64.0
T2
X91.5Y-92.46
X91.5Y-95.0
T3
X88.88Y-52.5
X91.42Y-52.5
X93.96Y-52.5
X96.5Y-52.5
T4
X116.5Y-91.672
X121.58Y-91.672
X126.66Y-91.672
X131.74Y-91.672
T5
X80.5Y-53.5
X81.0Y-91.5
X156.5Y-91.0
M30
