%TF.GenerationSoftware,KiCad,Pcbnew,9.0.4*%
%TF.CreationDate,2026-09-27T17:38:48-05:00*%
%TF.ProjectId,Simple_DAC_implementation,53696d70-6c65-45f4-9441-435f696d706c,rev?*%
%TF.SameCoordinates,Original*%
%TF.FileFunction,Copper,L2,Bot*%
%TF.FilePolarity,Positive*%
%FSLAX46Y46*%
G04 Gerber Fmt 4.6, Leading zero omitted, Abs format (unit mm)*
G04 Created by KiCad (PCBNEW 9.0.4) date 2026-09-27 17:38:48*
%MOMM*%
%LPD*%
G01*
G04 APERTURE LIST*
G04 Aperture macros list*
%AMRoundRect*
0 Rectangle with rounded corners*
0 $1 Rounding radius*
0 $2 $3 $4 $5 $6 $7 $8 $9 X,Y pos of 4 corners*
0 Add a 4 corners polygon primitive as box body*
4,1,4,$2,$3,$4,$5,$6,$7,$8,$9,$2,$3,0*
0 Add four circle primitives for the rounded corners*
1,1,$1+$1,$2,$3*
1,1,$1+$1,$4,$5*
1,1,$1+$1,$6,$7*
1,1,$1+$1,$8,$9*
0 Add four rect primitives between the rounded corners*
20,1,$1+$1,$2,$3,$4,$5,0*
20,1,$1+$1,$4,$5,$6,$7,0*
20,1,$1+$1,$6,$7,$8,$9,0*
20,1,$1+$1,$8,$9,$2,$3,0*%
G04 Aperture macros list end*
%TA.AperFunction,ComponentPad*%
%ADD10R,1.700000X1.700000*%
%TD*%
%TA.AperFunction,ComponentPad*%
%ADD11C,1.700000*%
%TD*%
%TA.AperFunction,ComponentPad*%
%ADD12C,10.000000*%
%TD*%
%TA.AperFunction,SMDPad,CuDef*%
%ADD13R,5.080000X1.500000*%
%TD*%
%TA.AperFunction,ComponentPad*%
%ADD14RoundRect,0.250000X-1.050000X-1.050000X1.050000X-1.050000X1.050000X1.050000X-1.050000X1.050000X0*%
%TD*%
%TA.AperFunction,ComponentPad*%
%ADD15C,2.600000*%
%TD*%
%TA.AperFunction,ComponentPad*%
%ADD16R,1.800000X1.800000*%
%TD*%
%TA.AperFunction,ComponentPad*%
%ADD17C,1.800000*%
%TD*%
%TA.AperFunction,ViaPad*%
%ADD18C,0.600000*%
%TD*%
G04 APERTURE END LIST*
D10*
%TO.P,J3,1,Pin_1*%
%TO.N,GND*%
X88880000Y-52500000D03*
D11*
%TO.P,J3,2,Pin_2*%
%TO.N,/SWCLK*%
X91420000Y-52500000D03*
%TO.P,J3,3,Pin_3*%
%TO.N,/SWDIO*%
X93959999Y-52500000D03*
%TO.P,J3,4,Pin_4*%
%TO.N,+3.3V*%
X96500000Y-52500000D03*
%TD*%
D12*
%TO.P,H4,1,1*%
%TO.N,GND*%
X156500000Y-91000000D03*
%TD*%
%TO.P,H3,1,1*%
%TO.N,GND*%
X81000000Y-91500000D03*
%TD*%
%TO.P,H2,1,1*%
%TO.N,GND*%
X80500000Y-53500000D03*
%TD*%
D13*
%TO.P,J2,2,Ext*%
%TO.N,GND*%
X161000000Y-55500000D03*
X161000000Y-64000000D03*
%TD*%
D14*
%TO.P,J1,1,Pin_1*%
%TO.N,+3.3V*%
X116500000Y-91672500D03*
D15*
%TO.P,J1,2,Pin_2*%
%TO.N,GND*%
X121579999Y-91672500D03*
%TO.P,J1,3,Pin_3*%
X126660000Y-91672500D03*
%TO.P,J1,4,Pin_4*%
%TO.N,+10V*%
X131740000Y-91672500D03*
%TD*%
D16*
%TO.P,D1,1,K*%
%TO.N,Net-(D1-K)*%
X91500000Y-95000000D03*
D17*
%TO.P,D1,2,A*%
%TO.N,Net-(D1-A)*%
X91500000Y-92460000D03*
%TD*%
D18*
%TO.N,GND*%
X162500000Y-55500000D03*
X159500000Y-55500000D03*
X162500000Y-64000000D03*
X159500000Y-64000000D03*
X157500000Y-64000000D03*
X157500000Y-55500000D03*
X161000000Y-53500000D03*
X161000000Y-57000000D03*
X161000000Y-66000000D03*
X161000000Y-62500000D03*
X161000000Y-64000000D03*
X161000000Y-55500000D03*
X150000000Y-87500000D03*
X152500000Y-85000000D03*
X152500000Y-82500000D03*
X150000000Y-85000000D03*
X147500000Y-87500000D03*
X145000000Y-87500000D03*
X147500000Y-85000000D03*
X150000000Y-82500000D03*
X150000000Y-77500000D03*
X150000000Y-80000000D03*
X147500000Y-82500000D03*
X145000000Y-85000000D03*
X142500000Y-87500000D03*
X147500000Y-90000000D03*
X145000000Y-90000000D03*
X142500000Y-90000000D03*
X140000000Y-90000000D03*
X142500000Y-80000000D03*
X140000000Y-80000000D03*
X140000000Y-82500000D03*
X137500000Y-85000000D03*
X137500000Y-82500000D03*
X137500000Y-80000000D03*
X135000000Y-80000000D03*
X135000000Y-75000000D03*
X137500000Y-75000000D03*
X140000000Y-75000000D03*
X142500000Y-75000000D03*
X145000000Y-77500000D03*
X142500000Y-77500000D03*
X140000000Y-77500000D03*
X137500000Y-77500000D03*
X135000000Y-77500000D03*
X132500000Y-77500000D03*
X130000000Y-77500000D03*
X127500000Y-77500000D03*
X135000000Y-87500000D03*
X135000000Y-85000000D03*
X135000000Y-82500000D03*
X132500000Y-82500000D03*
X132500000Y-85000000D03*
X130000000Y-85000000D03*
X130000000Y-82500000D03*
X130000000Y-80000000D03*
X132500000Y-80000000D03*
X127500000Y-80000000D03*
X127500000Y-82500000D03*
X127500000Y-85000000D03*
X125000000Y-85000000D03*
X125000000Y-82500000D03*
X125000000Y-80000000D03*
X122500000Y-80000000D03*
X120000000Y-80000000D03*
X122500000Y-82500000D03*
X122500000Y-85000000D03*
X120000000Y-85000000D03*
X120000000Y-82500000D03*
X117500000Y-82500000D03*
X110000000Y-82500000D03*
X110000000Y-80000000D03*
X110000000Y-77500000D03*
X107500000Y-77500000D03*
X105000000Y-77500000D03*
X107500000Y-80000000D03*
X107500000Y-82500000D03*
X105000000Y-82500000D03*
X105000000Y-80000000D03*
X102500000Y-80000000D03*
X102500000Y-82500000D03*
X100000000Y-82500000D03*
X100000000Y-80000000D03*
X102500000Y-77500000D03*
X100000000Y-77500000D03*
X97500000Y-77500000D03*
X100000000Y-75000000D03*
X97500000Y-75000000D03*
X82500000Y-60000000D03*
X82500000Y-62500000D03*
X82500000Y-65000000D03*
X82500000Y-67500000D03*
X82500000Y-70000000D03*
X82500000Y-72500000D03*
X82500000Y-75000000D03*
X82500000Y-77500000D03*
X82500000Y-80000000D03*
X82500000Y-82500000D03*
X82500000Y-85000000D03*
X90000000Y-75000000D03*
X87500000Y-75000000D03*
X90000000Y-77500000D03*
X87500000Y-77500000D03*
X87500000Y-80000000D03*
X90000000Y-80000000D03*
X90000000Y-82500000D03*
X87500000Y-82500000D03*
X87500000Y-85000000D03*
X90000000Y-85000000D03*
X90000000Y-87500000D03*
X90000000Y-90000000D03*
X87500000Y-90000000D03*
X87500000Y-87500000D03*
X85000000Y-85000000D03*
X85000000Y-82500000D03*
X85000000Y-80000000D03*
X85000000Y-77500000D03*
X85000000Y-72500000D03*
X85000000Y-75000000D03*
X85000000Y-70000000D03*
X85000000Y-67500000D03*
X85000000Y-65000000D03*
X85000000Y-62500000D03*
X85000000Y-60000000D03*
X85000000Y-57500000D03*
X90000000Y-70000000D03*
X90000000Y-67500000D03*
X90000000Y-65000000D03*
X90000000Y-62500000D03*
X90000000Y-60000000D03*
X90000000Y-57500000D03*
X90000000Y-55000000D03*
X95000000Y-57500000D03*
X95000000Y-65000000D03*
X95000000Y-62500000D03*
X95000000Y-60000000D03*
X97500000Y-60000000D03*
X97500000Y-62500000D03*
X97500000Y-65000000D03*
X100000000Y-65000000D03*
X100000000Y-62500000D03*
X102500000Y-62500000D03*
X105000000Y-62500000D03*
X107500000Y-62500000D03*
X107500000Y-65000000D03*
X110000000Y-65000000D03*
X110000000Y-62500000D03*
X112500000Y-62500000D03*
X112500000Y-65000000D03*
X112500000Y-67500000D03*
X115000000Y-67500000D03*
X115000000Y-70000000D03*
X117500000Y-70000000D03*
X117500000Y-67500000D03*
X120000000Y-67500000D03*
X120000000Y-70000000D03*
X122500000Y-70000000D03*
X122500000Y-67500000D03*
X125000000Y-67500000D03*
X125000000Y-70000000D03*
X127500000Y-70000000D03*
X127500000Y-67500000D03*
X130000000Y-67500000D03*
X132500000Y-67500000D03*
X135000000Y-67500000D03*
X137500000Y-65000000D03*
X135000000Y-65000000D03*
X132500000Y-65000000D03*
X130000000Y-65000000D03*
X127500000Y-65000000D03*
X125000000Y-65000000D03*
X122500000Y-65000000D03*
X120000000Y-65000000D03*
X117500000Y-65000000D03*
X115000000Y-65000000D03*
X137500000Y-62500000D03*
X137500000Y-60000000D03*
X135000000Y-60000000D03*
X135000000Y-62500000D03*
X132500000Y-60000000D03*
X130000000Y-62500000D03*
X132500000Y-62500000D03*
X130000000Y-60000000D03*
X127500000Y-62500000D03*
X125000000Y-60000000D03*
X125000000Y-62500000D03*
X127500000Y-60000000D03*
X122500000Y-60000000D03*
X122500000Y-62500000D03*
X120000000Y-62500000D03*
X120000000Y-60000000D03*
X117500000Y-60000000D03*
X117500000Y-62500000D03*
X115000000Y-62500000D03*
X115000000Y-60000000D03*
X110000000Y-60000000D03*
X112500000Y-60000000D03*
X107500000Y-60000000D03*
X105000000Y-60000000D03*
X102500000Y-60000000D03*
X100000000Y-60000000D03*
X154499999Y-51500000D03*
X154500000Y-50500000D03*
X154500000Y-52500001D03*
X151500001Y-49500000D03*
X152500000Y-52500000D03*
X152499999Y-50500000D03*
X151500000Y-48500000D03*
X153500000Y-50000000D03*
X154500000Y-48499999D03*
X153500000Y-53000000D03*
X151500000Y-51500000D03*
X153500000Y-49000000D03*
X154500000Y-49500000D03*
X153500000Y-52000000D03*
X152499999Y-49500000D03*
X151500000Y-52500000D03*
X153500000Y-51000000D03*
X152500000Y-48500000D03*
X152500000Y-51500000D03*
X151500000Y-50500000D03*
X147500001Y-50000000D03*
X147500000Y-51000000D03*
X147500000Y-48999999D03*
X150499999Y-52000000D03*
X149500000Y-49000000D03*
X149500001Y-51000000D03*
X150500000Y-53000000D03*
X148500000Y-51500000D03*
X147500000Y-53000001D03*
X148500000Y-48500000D03*
X150500000Y-50000000D03*
X148500000Y-52500000D03*
X147500000Y-52000000D03*
X148500000Y-49500000D03*
X149500001Y-52000000D03*
X150500000Y-49000000D03*
X148500000Y-50500000D03*
X149500000Y-53000000D03*
X149500000Y-50000000D03*
X150500000Y-51000000D03*
X161499999Y-72500000D03*
X161500000Y-71500000D03*
X161500000Y-73500001D03*
X158500001Y-70500000D03*
X159500000Y-73500000D03*
X159499999Y-71500000D03*
X158500000Y-69500000D03*
X160500000Y-71000000D03*
X161500000Y-69499999D03*
X160500000Y-74000000D03*
X158500000Y-72500000D03*
X160500000Y-70000000D03*
X161500000Y-70500000D03*
X160500000Y-73000000D03*
X159499999Y-70500000D03*
X158500000Y-73500000D03*
X160500000Y-72000000D03*
X159500000Y-69500000D03*
X159500000Y-72500000D03*
X158500000Y-71500000D03*
X161499999Y-77500000D03*
X161500000Y-76500000D03*
X161500000Y-78500001D03*
X158500001Y-75500000D03*
X159500000Y-78500000D03*
X159499999Y-76500000D03*
X158500000Y-74500000D03*
X160500000Y-76000000D03*
X161500000Y-74499999D03*
X160500000Y-79000000D03*
X158500000Y-77500000D03*
X160500000Y-75000000D03*
X161500000Y-75500000D03*
X160500000Y-78000000D03*
X159499999Y-75500000D03*
X158500000Y-78500000D03*
X160500000Y-77000000D03*
X159500000Y-74500000D03*
X159500000Y-77500000D03*
X158500000Y-76500000D03*
X161499999Y-83000000D03*
X161500000Y-82000000D03*
X161500000Y-84000001D03*
X158500001Y-81000000D03*
X159500000Y-84000000D03*
X159499999Y-82000000D03*
X158500000Y-80000000D03*
X160500000Y-81500000D03*
X161500000Y-79999999D03*
X160500000Y-84500000D03*
X158500000Y-83000000D03*
X160500000Y-80500000D03*
X161500000Y-81000000D03*
X160500000Y-83500000D03*
X159499999Y-81000000D03*
X158500000Y-84000000D03*
X160500000Y-82500000D03*
X159500000Y-80000000D03*
X159500000Y-83000000D03*
X158500000Y-82000000D03*
X147500000Y-95999999D03*
X148500000Y-96000000D03*
X146500000Y-96000000D03*
X149500000Y-93000001D03*
X146500000Y-94000000D03*
X148500000Y-94000000D03*
X150500000Y-93000000D03*
X149000000Y-95000000D03*
X150500000Y-96000000D03*
X146000000Y-95000000D03*
X147500000Y-93000000D03*
X150000000Y-95000000D03*
X149500000Y-96000000D03*
X147000000Y-95000000D03*
X149500000Y-93999999D03*
X146500000Y-93000000D03*
X148000000Y-95000000D03*
X150500000Y-94000000D03*
X147500000Y-94000000D03*
X148500000Y-93000000D03*
X142500000Y-95999999D03*
X143500000Y-96000000D03*
X141500000Y-96000000D03*
X144500000Y-93000001D03*
X141500000Y-94000000D03*
X143500000Y-94000000D03*
X145500000Y-93000000D03*
X144000000Y-95000000D03*
X145500000Y-96000000D03*
X141000000Y-95000000D03*
X142500000Y-93000000D03*
X145000000Y-95000000D03*
X144500000Y-96000000D03*
X142000000Y-95000000D03*
X144500000Y-93999999D03*
X141500000Y-93000000D03*
X143000000Y-95000000D03*
X145500000Y-94000000D03*
X142500000Y-94000000D03*
X143500000Y-93000000D03*
X137500000Y-95999999D03*
X138500000Y-96000000D03*
X136500000Y-96000000D03*
X139500000Y-93000001D03*
X136500000Y-94000000D03*
X138500000Y-94000000D03*
X140500000Y-93000000D03*
X139000000Y-95000000D03*
X140500000Y-96000000D03*
X136000000Y-95000000D03*
X137500000Y-93000000D03*
X140000000Y-95000000D03*
X139500000Y-96000000D03*
X137000000Y-95000000D03*
X139500000Y-93999999D03*
X136500000Y-93000000D03*
X138000000Y-95000000D03*
X140500000Y-94000000D03*
X137500000Y-94000000D03*
X138500000Y-93000000D03*
X109000000Y-93000001D03*
X108000000Y-93000000D03*
X110000001Y-93000000D03*
X107000000Y-95999999D03*
X110000000Y-95000000D03*
X108000000Y-95000001D03*
X106000000Y-96000000D03*
X107500000Y-94000000D03*
X105999999Y-93000000D03*
X110500000Y-94000000D03*
X109000000Y-96000000D03*
X106500000Y-94000000D03*
X107000000Y-93000000D03*
X109500000Y-94000000D03*
X107000000Y-95000001D03*
X110000000Y-96000000D03*
X108500000Y-94000000D03*
X106000000Y-95000000D03*
X109000000Y-95000000D03*
X108000000Y-96000000D03*
X104000000Y-93000001D03*
X103000000Y-93000000D03*
X105000001Y-93000000D03*
X102000000Y-95999999D03*
X105000000Y-95000000D03*
X103000000Y-95000001D03*
X101000000Y-96000000D03*
X102500000Y-94000000D03*
X100999999Y-93000000D03*
X105500000Y-94000000D03*
X104000000Y-96000000D03*
X101500000Y-94000000D03*
X102000000Y-93000000D03*
X104500000Y-94000000D03*
X102000000Y-95000001D03*
X105000000Y-96000000D03*
X103500000Y-94000000D03*
X101000000Y-95000000D03*
X104000000Y-95000000D03*
X103000000Y-96000000D03*
X77000000Y-82999999D03*
X78000000Y-83000000D03*
X76000000Y-83000000D03*
X79000000Y-80000001D03*
X76000000Y-81000000D03*
X78000000Y-81000000D03*
X80000000Y-80000000D03*
X78500000Y-82000000D03*
X80000000Y-83000000D03*
X75500000Y-82000000D03*
X77000000Y-80000000D03*
X79500000Y-82000000D03*
X79000000Y-83000000D03*
X76500000Y-82000000D03*
X79000000Y-80999999D03*
X76000000Y-80000000D03*
X77500000Y-82000000D03*
X80000000Y-81000000D03*
X77000000Y-81000000D03*
X78000000Y-80000000D03*
X77000000Y-78999999D03*
X78000000Y-79000000D03*
X76000000Y-79000000D03*
X79000000Y-76000001D03*
X76000000Y-77000000D03*
X78000000Y-77000000D03*
X80000000Y-76000000D03*
X78500000Y-78000000D03*
X80000000Y-79000000D03*
X75500000Y-78000000D03*
X77000000Y-76000000D03*
X79500000Y-78000000D03*
X79000000Y-79000000D03*
X76500000Y-78000000D03*
X79000000Y-76999999D03*
X76000000Y-76000000D03*
X77500000Y-78000000D03*
X80000000Y-77000000D03*
X77000000Y-77000000D03*
X78000000Y-76000000D03*
X76000000Y-75000000D03*
X78000000Y-75000000D03*
X77000000Y-74999999D03*
X79000000Y-72000001D03*
X79000000Y-70000000D03*
X80000000Y-70000000D03*
X76999999Y-70000000D03*
X79500000Y-71000000D03*
X76500000Y-71000000D03*
X77500000Y-71000000D03*
X75500000Y-71000000D03*
X76000000Y-73000000D03*
X80000000Y-72000000D03*
X78000000Y-73000000D03*
X78000000Y-70000000D03*
X78500000Y-71000000D03*
X80000000Y-61000000D03*
X80000000Y-63000000D03*
X79500000Y-62000000D03*
X78500000Y-65000001D03*
X76500000Y-65000000D03*
X76999999Y-61000000D03*
X78000000Y-66000000D03*
X75500000Y-62000000D03*
X76000000Y-66000000D03*
X78000000Y-64000000D03*
X79000000Y-66000000D03*
X77000000Y-65999999D03*
X76000000Y-64000000D03*
X76000000Y-61000000D03*
X79000000Y-63000001D03*
X76000000Y-63000000D03*
X78000000Y-61000000D03*
X78500000Y-62000000D03*
X77000000Y-63000000D03*
X76500000Y-62000000D03*
X79000000Y-61000000D03*
X77500000Y-62000000D03*
X78000000Y-63000000D03*
X78500000Y-68000000D03*
X80000000Y-64000000D03*
X76000000Y-67000000D03*
X77000000Y-69000000D03*
X79500000Y-65000001D03*
X79000000Y-64000000D03*
X78000000Y-69000000D03*
X77500000Y-65000000D03*
X80000000Y-66000000D03*
X77000000Y-64000000D03*
X78000000Y-67000000D03*
X75500000Y-65000000D03*
X76000000Y-69000000D03*
X78500000Y-74000000D03*
X79000000Y-75000000D03*
X76500000Y-74000000D03*
X79000000Y-72999999D03*
X77500000Y-74000000D03*
X80000000Y-73000000D03*
X80000000Y-75000000D03*
X77000000Y-73000000D03*
X75500000Y-74000000D03*
X79500000Y-74000000D03*
X77000000Y-67000000D03*
X77000000Y-72000000D03*
X76000000Y-70000000D03*
X78000000Y-72000000D03*
X75500000Y-68000000D03*
X76000000Y-72000000D03*
X79000000Y-69000000D03*
X76500001Y-68000000D03*
X79000000Y-67000000D03*
X79500000Y-68000000D03*
X77500000Y-68000000D03*
X80000000Y-67000000D03*
X80000000Y-69000000D03*
X132500000Y-49000000D03*
X132500000Y-51000000D03*
X132500000Y-50000000D03*
X135500000Y-52000000D03*
X137500000Y-52000000D03*
X137500000Y-53000000D03*
X137500000Y-50000000D03*
X136500000Y-52500000D03*
X136500000Y-49500000D03*
X136500000Y-50500000D03*
X136500000Y-48500000D03*
X134500000Y-49000000D03*
X135500000Y-53000000D03*
X134500000Y-51000000D03*
X137500000Y-51000000D03*
X136500000Y-51500000D03*
X146500000Y-53000000D03*
X144500000Y-53000000D03*
X145500000Y-52500000D03*
X142500000Y-51500000D03*
X142500000Y-49500000D03*
X146500000Y-50000000D03*
X141500000Y-51000000D03*
X145500000Y-48500000D03*
X141500000Y-49000000D03*
X143500000Y-51000000D03*
X141500000Y-52000000D03*
X141500000Y-50000000D03*
X143500000Y-49000000D03*
X146500000Y-49000000D03*
X144500000Y-52000000D03*
X144500000Y-49000000D03*
X146500000Y-51000000D03*
X145500000Y-51500000D03*
X144500000Y-50000000D03*
X145500000Y-49500000D03*
X146500000Y-52000000D03*
X145500000Y-50500000D03*
X144500000Y-51000000D03*
X139500000Y-51500000D03*
X143500000Y-53000000D03*
X140500000Y-49000000D03*
X138500000Y-50000000D03*
X142500000Y-52500000D03*
X143500000Y-52000000D03*
X138500000Y-51000000D03*
X142500000Y-50500000D03*
X141500000Y-53000000D03*
X143500000Y-50000000D03*
X140500000Y-51000000D03*
X142500000Y-48500000D03*
X138500000Y-49000000D03*
X133500000Y-51500000D03*
X132500000Y-52000000D03*
X133500000Y-49500000D03*
X134500000Y-52000000D03*
X133500000Y-50500000D03*
X134500000Y-53000000D03*
X132500000Y-53000000D03*
X134500000Y-50000000D03*
X133500000Y-48500000D03*
X133500000Y-52500000D03*
X140500000Y-50000000D03*
X135500000Y-50000000D03*
X137500000Y-49000000D03*
X135500000Y-51000000D03*
X139500000Y-48500000D03*
X135500000Y-49000000D03*
X138500000Y-52000000D03*
X139500000Y-49500000D03*
X140500000Y-52000000D03*
X139500000Y-52500000D03*
X139500000Y-50500000D03*
X140500000Y-53000000D03*
X138500000Y-53000000D03*
X117500000Y-49000000D03*
X117500000Y-51000000D03*
X117500000Y-50000000D03*
X120500000Y-52000000D03*
X122500000Y-52000000D03*
X122500000Y-53000000D03*
X122500000Y-50000000D03*
X121500000Y-52500000D03*
X121500000Y-49500000D03*
X121500000Y-50500000D03*
X121500000Y-48500000D03*
X119500000Y-49000000D03*
X120500000Y-53000000D03*
X119500000Y-51000000D03*
X122500000Y-51000000D03*
X121500000Y-51500000D03*
X131500000Y-53000000D03*
X129500000Y-53000000D03*
X130500000Y-52500000D03*
X127500000Y-51500000D03*
X127500000Y-49500000D03*
X131500000Y-50000000D03*
X126500000Y-51000000D03*
X130500000Y-48500000D03*
X126500000Y-49000000D03*
X128500000Y-51000000D03*
X126500000Y-52000000D03*
X126500000Y-50000000D03*
X128500000Y-49000000D03*
X131500000Y-49000000D03*
X129500000Y-52000000D03*
X129500000Y-49000000D03*
X131500000Y-51000000D03*
X130500000Y-51500000D03*
X129500000Y-50000000D03*
X130500000Y-49500000D03*
X131500000Y-52000000D03*
X130500000Y-50500000D03*
X129500000Y-51000000D03*
X124500000Y-51500000D03*
X128500000Y-53000000D03*
X125500000Y-49000000D03*
X123500000Y-50000000D03*
X127500000Y-52500000D03*
X128500000Y-52000000D03*
X123500000Y-51000000D03*
X127500000Y-50500000D03*
X126500000Y-53000000D03*
X128500000Y-50000000D03*
X125500000Y-51000000D03*
X127500000Y-48500000D03*
X123500000Y-49000000D03*
X118500000Y-51500000D03*
X117500000Y-52000000D03*
X118500000Y-49500000D03*
X119500000Y-52000000D03*
X118500000Y-50500000D03*
X119500000Y-53000000D03*
X117500000Y-53000000D03*
X119500000Y-50000000D03*
X118500000Y-48500000D03*
X118500000Y-52500000D03*
X125500000Y-50000000D03*
X120500000Y-50000000D03*
X122500000Y-49000000D03*
X120500000Y-51000000D03*
X124500000Y-48500000D03*
X120500000Y-49000000D03*
X123500000Y-52000000D03*
X124500000Y-49500000D03*
X125500000Y-52000000D03*
X124500000Y-52500000D03*
X124500000Y-50500000D03*
X125500000Y-53000000D03*
X123500000Y-53000000D03*
X114500000Y-49000000D03*
X114500000Y-51000000D03*
X114500000Y-50000000D03*
X116500000Y-49000000D03*
X116500000Y-51000000D03*
X115500000Y-51500000D03*
X114500000Y-52000000D03*
X115500000Y-49500000D03*
X116500000Y-52000000D03*
X115500000Y-50500000D03*
X116500000Y-53000000D03*
X114500000Y-53000000D03*
X116500000Y-50000000D03*
X115500000Y-48500000D03*
X115500000Y-52500000D03*
X111500000Y-49000000D03*
X111500000Y-51000000D03*
X111500000Y-50000000D03*
X113500000Y-49000000D03*
X113500000Y-51000000D03*
X112500000Y-51500000D03*
X111500000Y-52000000D03*
X112500000Y-49500000D03*
X113500000Y-52000000D03*
X112500000Y-50500000D03*
X113500000Y-53000000D03*
X111500000Y-53000000D03*
X113500000Y-50000000D03*
X112500000Y-48500000D03*
X112500000Y-52500000D03*
X108500000Y-49000000D03*
X108500000Y-51000000D03*
X108500000Y-50000000D03*
X110500000Y-49000000D03*
X110500000Y-51000000D03*
X109500000Y-51500000D03*
X108500000Y-52000000D03*
X109500000Y-49500000D03*
X110500000Y-52000000D03*
X109500000Y-50500000D03*
X110500000Y-53000000D03*
X108500000Y-53000000D03*
X110500000Y-50000000D03*
X109500000Y-48500000D03*
X109500000Y-52500000D03*
X105500000Y-49000000D03*
X105500000Y-51000000D03*
X105500000Y-50000000D03*
X107500000Y-49000000D03*
X107500000Y-51000000D03*
X106500000Y-51500000D03*
X105500000Y-52000000D03*
X106500000Y-49500000D03*
X107500000Y-52000000D03*
X106500000Y-50500000D03*
X107500000Y-53000000D03*
X105500000Y-53000000D03*
X107500000Y-50000000D03*
X106500000Y-48500000D03*
X106500000Y-52500000D03*
X104500000Y-49000000D03*
X104500000Y-51000000D03*
X104500000Y-50000000D03*
X104500000Y-52000000D03*
X104500000Y-53000000D03*
X103500000Y-48500000D03*
X103500000Y-50500000D03*
X103500000Y-49500000D03*
X103500000Y-51500000D03*
X103500000Y-52500000D03*
X102500000Y-53000000D03*
X102500000Y-52000000D03*
X102500000Y-51000000D03*
X102500000Y-50000000D03*
X102500000Y-49000000D03*
X140000000Y-57000000D03*
X141000000Y-57000000D03*
X139000000Y-58000000D03*
X138500000Y-59000000D03*
X138500000Y-60000000D03*
X139000000Y-61000000D03*
X139000000Y-62000000D03*
X139000000Y-63000000D03*
X139000000Y-64000000D03*
X139000000Y-65000000D03*
X139000000Y-66000000D03*
X139000000Y-67000000D03*
X138500000Y-68000000D03*
X138500000Y-69000000D03*
X145000000Y-71000000D03*
X144000000Y-71000000D03*
X143500000Y-70500000D03*
X143500000Y-69500000D03*
X143000000Y-69000000D03*
X142500000Y-68500000D03*
X142000000Y-67500000D03*
X142000000Y-66500000D03*
X142000000Y-65500000D03*
X142000000Y-64500000D03*
X142000000Y-63500000D03*
X142000000Y-61500000D03*
X150000000Y-57000000D03*
X149000000Y-57000000D03*
X148000000Y-57000000D03*
X155000000Y-57000000D03*
X152000000Y-57000000D03*
X154000000Y-57000000D03*
X151000000Y-57000000D03*
X153000000Y-57000000D03*
X146000000Y-57000000D03*
X142000000Y-57000000D03*
X144000000Y-57000000D03*
X143000000Y-57000000D03*
X147000000Y-57000000D03*
X145000000Y-57000000D03*
X156000000Y-57000000D03*
X157000000Y-57000000D03*
X159000000Y-57000000D03*
X158000000Y-57000000D03*
X150000000Y-62500000D03*
X149000000Y-62500000D03*
X148000000Y-62500000D03*
X155000000Y-62500000D03*
X152000000Y-62500000D03*
X154000000Y-62500000D03*
X151000000Y-62500000D03*
X153000000Y-62500000D03*
X146000000Y-62500000D03*
X142000000Y-62500000D03*
X144000000Y-62500000D03*
X143000000Y-62500000D03*
X147000000Y-62500000D03*
X145000000Y-62500000D03*
X156000000Y-62500000D03*
X157000000Y-62500000D03*
X159000000Y-62500000D03*
X158000000Y-62500000D03*
X153000000Y-58000000D03*
X152000000Y-58000000D03*
X151000000Y-58000000D03*
X158000000Y-58000000D03*
X155000000Y-58000000D03*
X157000000Y-58000000D03*
X154000000Y-58000000D03*
X156000000Y-58000000D03*
X149000000Y-58000000D03*
X145000000Y-58000000D03*
X147000000Y-58000000D03*
X146000000Y-58000000D03*
X150000000Y-58000000D03*
X148000000Y-58000000D03*
X159000000Y-58000000D03*
X160000000Y-58000000D03*
X162000000Y-58000000D03*
X161000000Y-58000000D03*
X162000000Y-61500000D03*
X161000000Y-61500000D03*
X160000000Y-61500000D03*
X159000000Y-61500000D03*
X158000000Y-61500000D03*
X157000000Y-61500000D03*
X156000000Y-61500000D03*
X155000000Y-61500000D03*
X154000000Y-61500000D03*
X153000000Y-61500000D03*
X152000000Y-61500000D03*
X151000000Y-61500000D03*
X150000000Y-61500000D03*
X149000000Y-61500000D03*
X148000000Y-61500000D03*
X147000000Y-61500000D03*
X146000000Y-61500000D03*
X145000000Y-61500000D03*
X154000000Y-64500000D03*
X156000000Y-67000000D03*
X156000000Y-70000000D03*
X152000000Y-81500000D03*
X154500000Y-83500000D03*
X157000000Y-81500000D03*
X137500000Y-69000000D03*
X132500000Y-69000000D03*
X125500000Y-76500000D03*
X121000000Y-76500000D03*
X123000000Y-78500000D03*
X118500000Y-80000000D03*
X118500000Y-77000000D03*
X124500000Y-89500000D03*
X128500000Y-89500000D03*
X128500000Y-93500000D03*
X124500000Y-93500000D03*
X119500000Y-93500000D03*
X123500000Y-93500000D03*
X123000000Y-89500000D03*
X119500000Y-89500000D03*
X97000000Y-90000000D03*
X99500000Y-92000000D03*
X98500000Y-82500000D03*
X98500000Y-79500000D03*
X95000000Y-74000000D03*
X115500000Y-73500000D03*
%TD*%
%TA.AperFunction,Conductor*%
%TO.N,GND*%
G36*
X158502702Y-48000617D02*
G01*
X158886771Y-48017386D01*
X158897506Y-48018326D01*
X159275971Y-48068152D01*
X159286597Y-48070025D01*
X159659284Y-48152648D01*
X159669710Y-48155442D01*
X160033765Y-48270227D01*
X160043911Y-48273920D01*
X160396578Y-48420000D01*
X160406369Y-48424566D01*
X160744942Y-48600816D01*
X160754310Y-48606224D01*
X161076244Y-48811318D01*
X161085105Y-48817523D01*
X161387930Y-49049889D01*
X161396217Y-49056843D01*
X161677635Y-49314715D01*
X161685284Y-49322364D01*
X161943156Y-49603782D01*
X161950110Y-49612069D01*
X162182476Y-49914894D01*
X162188681Y-49923755D01*
X162393775Y-50245689D01*
X162399183Y-50255057D01*
X162575430Y-50593623D01*
X162580002Y-50603427D01*
X162726075Y-50956078D01*
X162729775Y-50966244D01*
X162844554Y-51330278D01*
X162847354Y-51340727D01*
X162929971Y-51713389D01*
X162931849Y-51724042D01*
X162981671Y-52102473D01*
X162982614Y-52113249D01*
X162999382Y-52497297D01*
X162999500Y-52502706D01*
X162999500Y-54126000D01*
X162979815Y-54193039D01*
X162927011Y-54238794D01*
X162875500Y-54250000D01*
X161250000Y-54250000D01*
X161250000Y-56750000D01*
X162875500Y-56750000D01*
X162942539Y-56769685D01*
X162988294Y-56822489D01*
X162999500Y-56874000D01*
X162999500Y-62626000D01*
X162979815Y-62693039D01*
X162927011Y-62738794D01*
X162875500Y-62750000D01*
X161250000Y-62750000D01*
X161250000Y-65250000D01*
X162875500Y-65250000D01*
X162942539Y-65269685D01*
X162988294Y-65322489D01*
X162999500Y-65374000D01*
X162999500Y-92707293D01*
X162999382Y-92712702D01*
X162982614Y-93096750D01*
X162981671Y-93107526D01*
X162931849Y-93485957D01*
X162929971Y-93496610D01*
X162847354Y-93869272D01*
X162844554Y-93879721D01*
X162729775Y-94243755D01*
X162726075Y-94253921D01*
X162580002Y-94606572D01*
X162575430Y-94616376D01*
X162399183Y-94954942D01*
X162393775Y-94964310D01*
X162188681Y-95286244D01*
X162182476Y-95295105D01*
X161950110Y-95597930D01*
X161943156Y-95606217D01*
X161685284Y-95887635D01*
X161677635Y-95895284D01*
X161396217Y-96153156D01*
X161387930Y-96160110D01*
X161085105Y-96392476D01*
X161076244Y-96398681D01*
X160754310Y-96603775D01*
X160744942Y-96609183D01*
X160406376Y-96785430D01*
X160396572Y-96790002D01*
X160043921Y-96936075D01*
X160033755Y-96939775D01*
X159669721Y-97054554D01*
X159659272Y-97057354D01*
X159286610Y-97139971D01*
X159275957Y-97141849D01*
X158897526Y-97191671D01*
X158886750Y-97192614D01*
X158502703Y-97209382D01*
X158497294Y-97209500D01*
X79502706Y-97209500D01*
X79497297Y-97209382D01*
X79113249Y-97192614D01*
X79102473Y-97191671D01*
X78724042Y-97141849D01*
X78713389Y-97139971D01*
X78340727Y-97057354D01*
X78330278Y-97054554D01*
X77966244Y-96939775D01*
X77956078Y-96936075D01*
X77603427Y-96790002D01*
X77593623Y-96785430D01*
X77255057Y-96609183D01*
X77245689Y-96603775D01*
X76923755Y-96398681D01*
X76914894Y-96392476D01*
X76612069Y-96160110D01*
X76603782Y-96153156D01*
X76322364Y-95895284D01*
X76314715Y-95887635D01*
X76056843Y-95606217D01*
X76049889Y-95597930D01*
X75817523Y-95295105D01*
X75811318Y-95286244D01*
X75606224Y-94964310D01*
X75600816Y-94954942D01*
X75424569Y-94616376D01*
X75419997Y-94606572D01*
X75273924Y-94253921D01*
X75270224Y-94243755D01*
X75209805Y-94052129D01*
X75155442Y-93879710D01*
X75152648Y-93869284D01*
X75070025Y-93496597D01*
X75068152Y-93485971D01*
X75018326Y-93107506D01*
X75017386Y-93096771D01*
X75000618Y-92712702D01*
X75000500Y-92707293D01*
X75000500Y-92349778D01*
X90099500Y-92349778D01*
X90099500Y-92570221D01*
X90133985Y-92787952D01*
X90202103Y-92997603D01*
X90202104Y-92997606D01*
X90270122Y-93131096D01*
X90300725Y-93191157D01*
X90302187Y-93194025D01*
X90431752Y-93372358D01*
X90431756Y-93372363D01*
X90481928Y-93422535D01*
X90515413Y-93483858D01*
X90510429Y-93553550D01*
X90468557Y-93609483D01*
X90437581Y-93626398D01*
X90357669Y-93656203D01*
X90357664Y-93656206D01*
X90242455Y-93742452D01*
X90242452Y-93742455D01*
X90156206Y-93857664D01*
X90156202Y-93857671D01*
X90105908Y-93992517D01*
X90099501Y-94052116D01*
X90099501Y-94052123D01*
X90099500Y-94052135D01*
X90099500Y-95947870D01*
X90099501Y-95947876D01*
X90105908Y-96007483D01*
X90156202Y-96142328D01*
X90156206Y-96142335D01*
X90242452Y-96257544D01*
X90242455Y-96257547D01*
X90357664Y-96343793D01*
X90357671Y-96343797D01*
X90492517Y-96394091D01*
X90492516Y-96394091D01*
X90499444Y-96394835D01*
X90552127Y-96400500D01*
X92447872Y-96400499D01*
X92507483Y-96394091D01*
X92642331Y-96343796D01*
X92757546Y-96257546D01*
X92843796Y-96142331D01*
X92894091Y-96007483D01*
X92900500Y-95947873D01*
X92900499Y-94052128D01*
X92894091Y-93992517D01*
X92850094Y-93874556D01*
X92843797Y-93857671D01*
X92843793Y-93857664D01*
X92757547Y-93742455D01*
X92757544Y-93742452D01*
X92642335Y-93656206D01*
X92642328Y-93656202D01*
X92562419Y-93626398D01*
X92506485Y-93584527D01*
X92482068Y-93519062D01*
X92496920Y-93450789D01*
X92518069Y-93422537D01*
X92568242Y-93372365D01*
X92697815Y-93194022D01*
X92797895Y-92997606D01*
X92866015Y-92787951D01*
X92900500Y-92570222D01*
X92900500Y-92349778D01*
X92866015Y-92132049D01*
X92797895Y-91922394D01*
X92797895Y-91922393D01*
X92730701Y-91790520D01*
X92697815Y-91725978D01*
X92658961Y-91672500D01*
X92568247Y-91547641D01*
X92568243Y-91547636D01*
X92412363Y-91391756D01*
X92412358Y-91391752D01*
X92234025Y-91262187D01*
X92234024Y-91262186D01*
X92234022Y-91262185D01*
X92171096Y-91230122D01*
X92037606Y-91162104D01*
X92037603Y-91162103D01*
X91827952Y-91093985D01*
X91719086Y-91076742D01*
X91610222Y-91059500D01*
X91389778Y-91059500D01*
X91317201Y-91070995D01*
X91172047Y-91093985D01*
X90962396Y-91162103D01*
X90962393Y-91162104D01*
X90765974Y-91262187D01*
X90587641Y-91391752D01*
X90587636Y-91391756D01*
X90431756Y-91547636D01*
X90431752Y-91547641D01*
X90302187Y-91725974D01*
X90202104Y-91922393D01*
X90202103Y-91922396D01*
X90133985Y-92132047D01*
X90099500Y-92349778D01*
X75000500Y-92349778D01*
X75000500Y-90572483D01*
X114699500Y-90572483D01*
X114699500Y-92772501D01*
X114699501Y-92772518D01*
X114710000Y-92875296D01*
X114710001Y-92875299D01*
X114750529Y-92997603D01*
X114765186Y-93041834D01*
X114857288Y-93191156D01*
X114981344Y-93315212D01*
X115130666Y-93407314D01*
X115297203Y-93462499D01*
X115399991Y-93473000D01*
X117600008Y-93472999D01*
X117702797Y-93462499D01*
X117869334Y-93407314D01*
X118018656Y-93315212D01*
X118142712Y-93191156D01*
X118234814Y-93041834D01*
X118289999Y-92875297D01*
X118300500Y-92772509D01*
X118300499Y-91554514D01*
X119779999Y-91554514D01*
X119779999Y-91790485D01*
X119810798Y-92024414D01*
X119871869Y-92252337D01*
X119962159Y-92470319D01*
X119962164Y-92470328D01*
X120080143Y-92674671D01*
X120080144Y-92674672D01*
X120142720Y-92756223D01*
X120978957Y-91919987D01*
X121003977Y-91980390D01*
X121075111Y-92086851D01*
X121165648Y-92177388D01*
X121272109Y-92248522D01*
X121332510Y-92273541D01*
X120496274Y-93109777D01*
X120577826Y-93172354D01*
X120577827Y-93172355D01*
X120782170Y-93290334D01*
X120782179Y-93290339D01*
X121000162Y-93380629D01*
X121000160Y-93380629D01*
X121228084Y-93441700D01*
X121462013Y-93472499D01*
X121462028Y-93472500D01*
X121697970Y-93472500D01*
X121697984Y-93472499D01*
X121931913Y-93441700D01*
X122159836Y-93380629D01*
X122377818Y-93290339D01*
X122377827Y-93290334D01*
X122582180Y-93172350D01*
X122663722Y-93109779D01*
X122663722Y-93109776D01*
X121827486Y-92273541D01*
X121887889Y-92248522D01*
X121994350Y-92177388D01*
X122084887Y-92086851D01*
X122156021Y-91980390D01*
X122181040Y-91919987D01*
X123017275Y-92756223D01*
X123017278Y-92756223D01*
X123079849Y-92674681D01*
X123197833Y-92470328D01*
X123197838Y-92470319D01*
X123288128Y-92252337D01*
X123349199Y-92024414D01*
X123379998Y-91790485D01*
X123379999Y-91790471D01*
X123379999Y-91554528D01*
X123379998Y-91554514D01*
X124860000Y-91554514D01*
X124860000Y-91790485D01*
X124890799Y-92024414D01*
X124951870Y-92252337D01*
X125042160Y-92470319D01*
X125042165Y-92470328D01*
X125160144Y-92674671D01*
X125160145Y-92674672D01*
X125222721Y-92756223D01*
X126058958Y-91919987D01*
X126083978Y-91980390D01*
X126155112Y-92086851D01*
X126245649Y-92177388D01*
X126352110Y-92248522D01*
X126412511Y-92273541D01*
X125576275Y-93109777D01*
X125657827Y-93172354D01*
X125657828Y-93172355D01*
X125862171Y-93290334D01*
X125862180Y-93290339D01*
X126080163Y-93380629D01*
X126080161Y-93380629D01*
X126308085Y-93441700D01*
X126542014Y-93472499D01*
X126542029Y-93472500D01*
X126777971Y-93472500D01*
X126777985Y-93472499D01*
X127011914Y-93441700D01*
X127239837Y-93380629D01*
X127457819Y-93290339D01*
X127457828Y-93290334D01*
X127662181Y-93172350D01*
X127743723Y-93109779D01*
X127743723Y-93109776D01*
X126907487Y-92273541D01*
X126967890Y-92248522D01*
X127074351Y-92177388D01*
X127164888Y-92086851D01*
X127236022Y-91980390D01*
X127261041Y-91919988D01*
X128097276Y-92756223D01*
X128097279Y-92756223D01*
X128159850Y-92674681D01*
X128277834Y-92470328D01*
X128277839Y-92470319D01*
X128368129Y-92252337D01*
X128429200Y-92024414D01*
X128459999Y-91790485D01*
X128460000Y-91790471D01*
X128460000Y-91554521D01*
X128459997Y-91554495D01*
X129939500Y-91554495D01*
X129939500Y-91790504D01*
X129939501Y-91790520D01*
X129970293Y-92024414D01*
X129970307Y-92024514D01*
X129999121Y-92132049D01*
X130031394Y-92252493D01*
X130121714Y-92470545D01*
X130121719Y-92470556D01*
X130179262Y-92570222D01*
X130239727Y-92674950D01*
X130239729Y-92674953D01*
X130239730Y-92674954D01*
X130383406Y-92862197D01*
X130383412Y-92862204D01*
X130550295Y-93029087D01*
X130550302Y-93029093D01*
X130660306Y-93113501D01*
X130737550Y-93172773D01*
X130868918Y-93248618D01*
X130941943Y-93290780D01*
X130941948Y-93290782D01*
X130941951Y-93290784D01*
X131160007Y-93381106D01*
X131387986Y-93442193D01*
X131621989Y-93473000D01*
X131621996Y-93473000D01*
X131858004Y-93473000D01*
X131858011Y-93473000D01*
X132092014Y-93442193D01*
X132319993Y-93381106D01*
X132538049Y-93290784D01*
X132742450Y-93172773D01*
X132929699Y-93029092D01*
X133096592Y-92862199D01*
X133240273Y-92674950D01*
X133358284Y-92470549D01*
X133448606Y-92252493D01*
X133509693Y-92024514D01*
X133540500Y-91790511D01*
X133540500Y-91554489D01*
X133509693Y-91320486D01*
X133448606Y-91092507D01*
X133358284Y-90874451D01*
X133358282Y-90874448D01*
X133358280Y-90874443D01*
X133316118Y-90801418D01*
X133240273Y-90670050D01*
X133096592Y-90482801D01*
X133096587Y-90482795D01*
X132929704Y-90315912D01*
X132929697Y-90315906D01*
X132742454Y-90172230D01*
X132742453Y-90172229D01*
X132742450Y-90172227D01*
X132660957Y-90125177D01*
X132538056Y-90054219D01*
X132538045Y-90054214D01*
X132319993Y-89963894D01*
X132092010Y-89902806D01*
X131858020Y-89872001D01*
X131858017Y-89872000D01*
X131858011Y-89872000D01*
X131621989Y-89872000D01*
X131621983Y-89872000D01*
X131621979Y-89872001D01*
X131387989Y-89902806D01*
X131160006Y-89963894D01*
X130941954Y-90054214D01*
X130941943Y-90054219D01*
X130737545Y-90172230D01*
X130550302Y-90315906D01*
X130550295Y-90315912D01*
X130383412Y-90482795D01*
X130383406Y-90482802D01*
X130239730Y-90670045D01*
X130239727Y-90670049D01*
X130239727Y-90670050D01*
X130232014Y-90683409D01*
X130121719Y-90874443D01*
X130121714Y-90874454D01*
X130031394Y-91092506D01*
X129970306Y-91320489D01*
X129939501Y-91554479D01*
X129939500Y-91554495D01*
X128459997Y-91554495D01*
X128429200Y-91320585D01*
X128368129Y-91092662D01*
X128277839Y-90874680D01*
X128277834Y-90874671D01*
X128159855Y-90670328D01*
X128159854Y-90670327D01*
X128097277Y-90588775D01*
X127261041Y-91425011D01*
X127236022Y-91364610D01*
X127164888Y-91258149D01*
X127074351Y-91167612D01*
X126967890Y-91096478D01*
X126907488Y-91071458D01*
X127743723Y-90235221D01*
X127662172Y-90172645D01*
X127662171Y-90172644D01*
X127457828Y-90054665D01*
X127457819Y-90054660D01*
X127239836Y-89964370D01*
X127239838Y-89964370D01*
X127011914Y-89903299D01*
X126777985Y-89872500D01*
X126542014Y-89872500D01*
X126308085Y-89903299D01*
X126080162Y-89964370D01*
X125862180Y-90054660D01*
X125862171Y-90054665D01*
X125657828Y-90172644D01*
X125657818Y-90172650D01*
X125576275Y-90235220D01*
X125576275Y-90235221D01*
X126412512Y-91071458D01*
X126352110Y-91096478D01*
X126245649Y-91167612D01*
X126155112Y-91258149D01*
X126083978Y-91364610D01*
X126058958Y-91425011D01*
X125222721Y-90588775D01*
X125222720Y-90588775D01*
X125160150Y-90670318D01*
X125160144Y-90670328D01*
X125042165Y-90874671D01*
X125042160Y-90874680D01*
X124951870Y-91092662D01*
X124890799Y-91320585D01*
X124860000Y-91554514D01*
X123379998Y-91554514D01*
X123349199Y-91320585D01*
X123288128Y-91092662D01*
X123197838Y-90874680D01*
X123197833Y-90874671D01*
X123079854Y-90670328D01*
X123079853Y-90670327D01*
X123017276Y-90588775D01*
X122181040Y-91425011D01*
X122156021Y-91364610D01*
X122084887Y-91258149D01*
X121994350Y-91167612D01*
X121887889Y-91096478D01*
X121827487Y-91071458D01*
X122663722Y-90235221D01*
X122582171Y-90172645D01*
X122582170Y-90172644D01*
X122377827Y-90054665D01*
X122377818Y-90054660D01*
X122159835Y-89964370D01*
X122159837Y-89964370D01*
X121931913Y-89903299D01*
X121697984Y-89872500D01*
X121462013Y-89872500D01*
X121228084Y-89903299D01*
X121000161Y-89964370D01*
X120782179Y-90054660D01*
X120782170Y-90054665D01*
X120577827Y-90172644D01*
X120577817Y-90172650D01*
X120496274Y-90235220D01*
X120496274Y-90235221D01*
X121332511Y-91071458D01*
X121272109Y-91096478D01*
X121165648Y-91167612D01*
X121075111Y-91258149D01*
X121003977Y-91364610D01*
X120978957Y-91425011D01*
X120142720Y-90588775D01*
X120142719Y-90588775D01*
X120080149Y-90670318D01*
X120080143Y-90670328D01*
X119962164Y-90874671D01*
X119962159Y-90874680D01*
X119871869Y-91092662D01*
X119810798Y-91320585D01*
X119779999Y-91554514D01*
X118300499Y-91554514D01*
X118300499Y-90572492D01*
X118289999Y-90469703D01*
X118234814Y-90303166D01*
X118142712Y-90153844D01*
X118018656Y-90029788D01*
X117869334Y-89937686D01*
X117702797Y-89882501D01*
X117702795Y-89882500D01*
X117600010Y-89872000D01*
X115399998Y-89872000D01*
X115399981Y-89872001D01*
X115297203Y-89882500D01*
X115297200Y-89882501D01*
X115130668Y-89937685D01*
X115130663Y-89937687D01*
X114981342Y-90029789D01*
X114857289Y-90153842D01*
X114765187Y-90303163D01*
X114765185Y-90303168D01*
X114758886Y-90322178D01*
X114710001Y-90469703D01*
X114710001Y-90469704D01*
X114710000Y-90469704D01*
X114699500Y-90572483D01*
X75000500Y-90572483D01*
X75000500Y-64797844D01*
X157960000Y-64797844D01*
X157966401Y-64857372D01*
X157966403Y-64857379D01*
X158016645Y-64992086D01*
X158016649Y-64992093D01*
X158102809Y-65107187D01*
X158102812Y-65107190D01*
X158217906Y-65193350D01*
X158217913Y-65193354D01*
X158352620Y-65243596D01*
X158352627Y-65243598D01*
X158412155Y-65249999D01*
X158412172Y-65250000D01*
X160750000Y-65250000D01*
X160750000Y-64250000D01*
X157960000Y-64250000D01*
X157960000Y-64797844D01*
X75000500Y-64797844D01*
X75000500Y-63202155D01*
X157960000Y-63202155D01*
X157960000Y-63750000D01*
X160750000Y-63750000D01*
X160750000Y-62750000D01*
X158412155Y-62750000D01*
X158352627Y-62756401D01*
X158352620Y-62756403D01*
X158217913Y-62806645D01*
X158217906Y-62806649D01*
X158102812Y-62892809D01*
X158102809Y-62892812D01*
X158016649Y-63007906D01*
X158016645Y-63007913D01*
X157966403Y-63142620D01*
X157966401Y-63142627D01*
X157960000Y-63202155D01*
X75000500Y-63202155D01*
X75000500Y-56297844D01*
X157960000Y-56297844D01*
X157966401Y-56357372D01*
X157966403Y-56357379D01*
X158016645Y-56492086D01*
X158016649Y-56492093D01*
X158102809Y-56607187D01*
X158102812Y-56607190D01*
X158217906Y-56693350D01*
X158217913Y-56693354D01*
X158352620Y-56743596D01*
X158352627Y-56743598D01*
X158412155Y-56749999D01*
X158412172Y-56750000D01*
X160750000Y-56750000D01*
X160750000Y-55750000D01*
X157960000Y-55750000D01*
X157960000Y-56297844D01*
X75000500Y-56297844D01*
X75000500Y-54702155D01*
X157960000Y-54702155D01*
X157960000Y-55250000D01*
X160750000Y-55250000D01*
X160750000Y-54250000D01*
X158412155Y-54250000D01*
X158352627Y-54256401D01*
X158352620Y-54256403D01*
X158217913Y-54306645D01*
X158217906Y-54306649D01*
X158102812Y-54392809D01*
X158102809Y-54392812D01*
X158016649Y-54507906D01*
X158016645Y-54507913D01*
X157966403Y-54642620D01*
X157966401Y-54642627D01*
X157960000Y-54702155D01*
X75000500Y-54702155D01*
X75000500Y-52502706D01*
X75000618Y-52497297D01*
X75003377Y-52434108D01*
X75017386Y-52113226D01*
X75018326Y-52102495D01*
X75068152Y-51724025D01*
X75070025Y-51713405D01*
X75094688Y-51602155D01*
X87530000Y-51602155D01*
X87530000Y-52250000D01*
X88446988Y-52250000D01*
X88414075Y-52307007D01*
X88380000Y-52434174D01*
X88380000Y-52565826D01*
X88414075Y-52692993D01*
X88446988Y-52750000D01*
X87530000Y-52750000D01*
X87530000Y-53397844D01*
X87536401Y-53457372D01*
X87536403Y-53457379D01*
X87586645Y-53592086D01*
X87586649Y-53592093D01*
X87672809Y-53707187D01*
X87672812Y-53707190D01*
X87787906Y-53793350D01*
X87787913Y-53793354D01*
X87922620Y-53843596D01*
X87922627Y-53843598D01*
X87982155Y-53849999D01*
X87982172Y-53850000D01*
X88630000Y-53850000D01*
X88630000Y-52933012D01*
X88687007Y-52965925D01*
X88814174Y-53000000D01*
X88945826Y-53000000D01*
X89072993Y-52965925D01*
X89130000Y-52933012D01*
X89130000Y-53850000D01*
X89777828Y-53850000D01*
X89777844Y-53849999D01*
X89837372Y-53843598D01*
X89837379Y-53843596D01*
X89972086Y-53793354D01*
X89972093Y-53793350D01*
X90087187Y-53707190D01*
X90087190Y-53707187D01*
X90173350Y-53592093D01*
X90173354Y-53592086D01*
X90222422Y-53460529D01*
X90264293Y-53404595D01*
X90329757Y-53380178D01*
X90398030Y-53395030D01*
X90426285Y-53416181D01*
X90540213Y-53530109D01*
X90712179Y-53655048D01*
X90712181Y-53655049D01*
X90712184Y-53655051D01*
X90901588Y-53751557D01*
X91103757Y-53817246D01*
X91313713Y-53850500D01*
X91313714Y-53850500D01*
X91526286Y-53850500D01*
X91526287Y-53850500D01*
X91736243Y-53817246D01*
X91938412Y-53751557D01*
X92127816Y-53655051D01*
X92214471Y-53592093D01*
X92299786Y-53530109D01*
X92299788Y-53530106D01*
X92299792Y-53530104D01*
X92450104Y-53379792D01*
X92450106Y-53379788D01*
X92450109Y-53379786D01*
X92575048Y-53207820D01*
X92575050Y-53207817D01*
X92575051Y-53207816D01*
X92579512Y-53199058D01*
X92627483Y-53148262D01*
X92695303Y-53131464D01*
X92761440Y-53153998D01*
X92800483Y-53199054D01*
X92804948Y-53207817D01*
X92929889Y-53379786D01*
X93080212Y-53530109D01*
X93252178Y-53655048D01*
X93252180Y-53655049D01*
X93252183Y-53655051D01*
X93441587Y-53751557D01*
X93643756Y-53817246D01*
X93853712Y-53850500D01*
X93853713Y-53850500D01*
X94066285Y-53850500D01*
X94066286Y-53850500D01*
X94276242Y-53817246D01*
X94478411Y-53751557D01*
X94667815Y-53655051D01*
X94754470Y-53592093D01*
X94839785Y-53530109D01*
X94839787Y-53530106D01*
X94839791Y-53530104D01*
X94990103Y-53379792D01*
X94990105Y-53379788D01*
X94990108Y-53379786D01*
X95115047Y-53207821D01*
X95115050Y-53207816D01*
X95119512Y-53199056D01*
X95167483Y-53148260D01*
X95235303Y-53131462D01*
X95301439Y-53153996D01*
X95340483Y-53199052D01*
X95344949Y-53207817D01*
X95469890Y-53379786D01*
X95620213Y-53530109D01*
X95792179Y-53655048D01*
X95792181Y-53655049D01*
X95792184Y-53655051D01*
X95981588Y-53751557D01*
X96183757Y-53817246D01*
X96393713Y-53850500D01*
X96393714Y-53850500D01*
X96606286Y-53850500D01*
X96606287Y-53850500D01*
X96816243Y-53817246D01*
X97018412Y-53751557D01*
X97207816Y-53655051D01*
X97294471Y-53592093D01*
X97379786Y-53530109D01*
X97379788Y-53530106D01*
X97379792Y-53530104D01*
X97530104Y-53379792D01*
X97530106Y-53379788D01*
X97530109Y-53379786D01*
X97655048Y-53207820D01*
X97655050Y-53207817D01*
X97655051Y-53207816D01*
X97751557Y-53018412D01*
X97817246Y-52816243D01*
X97850500Y-52606287D01*
X97850500Y-52393713D01*
X97817246Y-52183757D01*
X97751557Y-51981588D01*
X97655051Y-51792184D01*
X97655049Y-51792181D01*
X97655048Y-51792179D01*
X97530109Y-51620213D01*
X97379786Y-51469890D01*
X97207820Y-51344951D01*
X97018414Y-51248444D01*
X97018413Y-51248443D01*
X97018412Y-51248443D01*
X96816243Y-51182754D01*
X96816241Y-51182753D01*
X96816240Y-51182753D01*
X96654957Y-51157208D01*
X96606287Y-51149500D01*
X96393713Y-51149500D01*
X96345042Y-51157208D01*
X96183760Y-51182753D01*
X95981585Y-51248444D01*
X95792179Y-51344951D01*
X95620213Y-51469890D01*
X95469890Y-51620213D01*
X95344948Y-51792184D01*
X95344946Y-51792187D01*
X95340481Y-51800950D01*
X95292505Y-51851744D01*
X95224683Y-51868537D01*
X95158549Y-51845997D01*
X95119513Y-51800944D01*
X95119512Y-51800942D01*
X95115050Y-51792184D01*
X95115048Y-51792181D01*
X95115047Y-51792179D01*
X94990108Y-51620213D01*
X94839785Y-51469890D01*
X94667819Y-51344951D01*
X94478413Y-51248444D01*
X94478412Y-51248443D01*
X94478411Y-51248443D01*
X94276242Y-51182754D01*
X94276240Y-51182753D01*
X94276239Y-51182753D01*
X94114956Y-51157208D01*
X94066286Y-51149500D01*
X93853712Y-51149500D01*
X93805041Y-51157208D01*
X93643759Y-51182753D01*
X93441584Y-51248444D01*
X93252178Y-51344951D01*
X93080212Y-51469890D01*
X92929889Y-51620213D01*
X92804947Y-51792183D01*
X92800481Y-51800949D01*
X92752505Y-51851742D01*
X92684683Y-51868535D01*
X92618549Y-51845995D01*
X92579513Y-51800942D01*
X92575051Y-51792184D01*
X92575049Y-51792181D01*
X92575048Y-51792179D01*
X92450109Y-51620213D01*
X92299786Y-51469890D01*
X92127820Y-51344951D01*
X91938414Y-51248444D01*
X91938413Y-51248443D01*
X91938412Y-51248443D01*
X91736243Y-51182754D01*
X91736241Y-51182753D01*
X91736240Y-51182753D01*
X91574957Y-51157208D01*
X91526287Y-51149500D01*
X91313713Y-51149500D01*
X91265042Y-51157208D01*
X91103760Y-51182753D01*
X90901585Y-51248444D01*
X90712179Y-51344951D01*
X90540215Y-51469889D01*
X90426285Y-51583819D01*
X90364962Y-51617303D01*
X90295270Y-51612319D01*
X90239337Y-51570447D01*
X90222422Y-51539470D01*
X90173354Y-51407913D01*
X90173350Y-51407906D01*
X90087190Y-51292812D01*
X90087187Y-51292809D01*
X89972093Y-51206649D01*
X89972086Y-51206645D01*
X89837379Y-51156403D01*
X89837372Y-51156401D01*
X89777844Y-51150000D01*
X89130000Y-51150000D01*
X89130000Y-52066988D01*
X89072993Y-52034075D01*
X88945826Y-52000000D01*
X88814174Y-52000000D01*
X88687007Y-52034075D01*
X88630000Y-52066988D01*
X88630000Y-51150000D01*
X87982155Y-51150000D01*
X87922627Y-51156401D01*
X87922620Y-51156403D01*
X87787913Y-51206645D01*
X87787906Y-51206649D01*
X87672812Y-51292809D01*
X87672809Y-51292812D01*
X87586649Y-51407906D01*
X87586645Y-51407913D01*
X87536403Y-51542620D01*
X87536401Y-51542627D01*
X87530000Y-51602155D01*
X75094688Y-51602155D01*
X75152650Y-51340704D01*
X75155440Y-51330295D01*
X75270230Y-50966227D01*
X75273917Y-50956095D01*
X75420003Y-50603412D01*
X75424561Y-50593638D01*
X75600822Y-50255045D01*
X75606217Y-50245700D01*
X75811325Y-49923744D01*
X75817515Y-49914905D01*
X76049896Y-49612060D01*
X76056834Y-49603791D01*
X76314726Y-49322352D01*
X76322352Y-49314726D01*
X76603791Y-49056834D01*
X76612060Y-49049896D01*
X76914905Y-48817515D01*
X76923744Y-48811325D01*
X77245700Y-48606217D01*
X77255045Y-48600822D01*
X77593638Y-48424561D01*
X77603412Y-48420003D01*
X77956095Y-48273917D01*
X77966227Y-48270230D01*
X78330295Y-48155440D01*
X78340709Y-48152649D01*
X78713405Y-48070025D01*
X78724025Y-48068152D01*
X79102495Y-48018326D01*
X79113226Y-48017386D01*
X79497297Y-48000617D01*
X79502706Y-48000500D01*
X79565892Y-48000500D01*
X158434108Y-48000500D01*
X158497294Y-48000500D01*
X158502702Y-48000617D01*
G37*
%TD.AperFunction*%
%TD*%
M02*
