%TF.GenerationSoftware,KiCad,Pcbnew,9.0.2*%
%TF.CreationDate,2026-03-31T23:58:29-05:00*%
%TF.ProjectId,board,626f6172-642e-46b6-9963-61645f706362,rev?*%
%TF.SameCoordinates,Original*%
%TF.FileFunction,Soldermask,Top*%
%TF.FilePolarity,Negative*%
%FSLAX46Y46*%
G04 Gerber Fmt 4.6, Leading zero omitted, Abs format (unit mm)*
G04 Created by KiCad (PCBNEW 9.0.2) date 2026-03-31 23:58:29*
%MOMM*%
%LPD*%
G01*
G04 APERTURE LIST*
G04 Aperture macros list*
%AMRoundRect*
0 Rectangle with rounded corners*
0 $1 Rounding radius*
0 $2 $3 $4 $5 $6 $7 $8 $9 X,Y pos of 4 corners*
0 Add a 4 corners polygon primitive as box body*
4,1,4,$2,$3,$4,$5,$6,$7,$8,$9,$2,$3,0*
0 Add four circle primitives for the rounded corners*
1,1,$1+$1,$2,$3*
1,1,$1+$1,$4,$5*
1,1,$1+$1,$6,$7*
1,1,$1+$1,$8,$9*
0 Add four rect primitives between the rounded corners*
20,1,$1+$1,$2,$3,$4,$5,0*
20,1,$1+$1,$4,$5,$6,$7,0*
20,1,$1+$1,$6,$7,$8,$9,0*
20,1,$1+$1,$8,$9,$2,$3,0*%
G04 Aperture macros list end*
%ADD10C,0.010000*%
%ADD11C,0.000000*%
%ADD12RoundRect,0.102000X-0.635000X0.361950X-0.635000X-0.361950X0.635000X-0.361950X0.635000X0.361950X0*%
%ADD13C,0.861200*%
%ADD14RoundRect,0.140000X-0.140000X-0.170000X0.140000X-0.170000X0.140000X0.170000X-0.140000X0.170000X0*%
%ADD15RoundRect,0.100000X-0.224506X0.083085X0.083085X-0.224506X0.224506X-0.083085X-0.083085X0.224506X0*%
%ADD16RoundRect,0.100000X-0.083085X-0.224506X0.224506X0.083085X0.083085X0.224506X-0.224506X-0.083085X0*%
%ADD17R,1.905000X2.000000*%
%ADD18O,1.905000X2.000000*%
%ADD19RoundRect,0.100000X0.083085X0.224506X-0.224506X-0.083085X-0.083085X-0.224506X0.224506X0.083085X0*%
%ADD20R,0.711200X0.254000*%
%ADD21R,0.254000X0.711200*%
%ADD22RoundRect,0.100000X0.224506X-0.083085X-0.083085X0.224506X-0.224506X0.083085X0.083085X-0.224506X0*%
%ADD23C,1.100000*%
%ADD24R,2.030000X1.730000*%
%ADD25O,2.030000X1.730000*%
%ADD26RoundRect,0.155000X-0.155000X0.212500X-0.155000X-0.212500X0.155000X-0.212500X0.155000X0.212500X0*%
%ADD27RoundRect,0.100000X-0.217500X-0.100000X0.217500X-0.100000X0.217500X0.100000X-0.217500X0.100000X0*%
G04 APERTURE END LIST*
D10*
%TO.C,J3*%
X114120600Y-59123250D02*
X112904600Y-59123250D01*
X112904600Y-58850200D01*
X108989800Y-58850200D01*
X108989800Y-59123250D01*
X107773800Y-59123250D01*
X107773800Y-55475200D01*
X114120600Y-55475200D01*
X114120600Y-59123250D01*
G36*
X114120600Y-59123250D02*
G01*
X112904600Y-59123250D01*
X112904600Y-58850200D01*
X108989800Y-58850200D01*
X108989800Y-59123250D01*
X107773800Y-59123250D01*
X107773800Y-55475200D01*
X114120600Y-55475200D01*
X114120600Y-59123250D01*
G37*
X108989800Y-60428200D02*
X112904600Y-60428200D01*
X112904600Y-60155150D01*
X114120600Y-60155150D01*
X114120600Y-63803200D01*
X107773800Y-63803200D01*
X107773800Y-60155150D01*
X108989800Y-60155150D01*
X108989800Y-60428200D01*
G36*
X108989800Y-60428200D02*
G01*
X112904600Y-60428200D01*
X112904600Y-60155150D01*
X114120600Y-60155150D01*
X114120600Y-63803200D01*
X107773800Y-63803200D01*
X107773800Y-60155150D01*
X108989800Y-60155150D01*
X108989800Y-60428200D01*
G37*
%TO.C,J1*%
X114095200Y-70604051D02*
X112879200Y-70604051D01*
X112879200Y-70331001D01*
X108964400Y-70331001D01*
X108964400Y-70604051D01*
X107748400Y-70604051D01*
X107748400Y-66956001D01*
X114095200Y-66956001D01*
X114095200Y-70604051D01*
G36*
X114095200Y-70604051D02*
G01*
X112879200Y-70604051D01*
X112879200Y-70331001D01*
X108964400Y-70331001D01*
X108964400Y-70604051D01*
X107748400Y-70604051D01*
X107748400Y-66956001D01*
X114095200Y-66956001D01*
X114095200Y-70604051D01*
G37*
X108964400Y-71909001D02*
X112879200Y-71909001D01*
X112879200Y-71635951D01*
X114095200Y-71635951D01*
X114095200Y-75284001D01*
X107748400Y-75284001D01*
X107748400Y-71635951D01*
X108964400Y-71635951D01*
X108964400Y-71909001D01*
G36*
X108964400Y-71909001D02*
G01*
X112879200Y-71909001D01*
X112879200Y-71635951D01*
X114095200Y-71635951D01*
X114095200Y-75284001D01*
X107748400Y-75284001D01*
X107748400Y-71635951D01*
X108964400Y-71635951D01*
X108964400Y-71909001D01*
G37*
D11*
%TO.C,U1*%
G36*
X89439999Y-67863400D02*
G01*
X86493599Y-67863400D01*
X86493599Y-64917000D01*
X89439999Y-64917000D01*
X89439999Y-67863400D01*
G37*
%TD*%
D12*
%TO.C,J3*%
X113385600Y-59639200D03*
D13*
X113385600Y-58572400D03*
X110845600Y-58369199D03*
X109575600Y-58369200D03*
X108305600Y-58572400D03*
X108305600Y-60706000D03*
X109575600Y-60909200D03*
X110845600Y-60909201D03*
X112115600Y-60909200D03*
X113385600Y-60706000D03*
%TD*%
D14*
%TO.C,C1*%
X89969400Y-70002400D03*
X90929400Y-70002400D03*
%TD*%
D15*
%TO.C,R5*%
X96629927Y-62229581D03*
X97206219Y-62805873D03*
%TD*%
%TO.C,R8*%
X96782327Y-68858981D03*
X97358619Y-69435273D03*
%TD*%
D16*
%TO.C,R9*%
X96629927Y-64583873D03*
X97206219Y-64007581D03*
%TD*%
D12*
%TO.C,J1*%
X113360200Y-71120001D03*
D13*
X113360200Y-70053201D03*
X110820200Y-69850000D03*
X109550200Y-69850001D03*
X108280200Y-70053201D03*
X108280200Y-72186801D03*
X109550200Y-72390001D03*
X110820200Y-72390002D03*
X112090200Y-72390001D03*
X113360200Y-72186801D03*
%TD*%
D17*
%TO.C,U2*%
X77089000Y-71536600D03*
D18*
X79629000Y-71536600D03*
X82169000Y-71536600D03*
%TD*%
D19*
%TO.C,R6*%
X95656819Y-69189181D03*
X95080527Y-69765473D03*
%TD*%
D16*
%TO.C,R2*%
X95283727Y-65955473D03*
X95860019Y-65379181D03*
%TD*%
D20*
%TO.C,U1*%
X86017598Y-65140200D03*
X86017598Y-65640199D03*
X86017598Y-66140200D03*
X86017598Y-66640200D03*
X86017598Y-67140201D03*
X86017598Y-67640200D03*
D21*
X86716799Y-68339401D03*
X87216798Y-68339401D03*
X87716799Y-68339401D03*
X88216799Y-68339401D03*
X88716800Y-68339401D03*
X89216799Y-68339401D03*
D20*
X89916000Y-67640200D03*
X89916000Y-67140201D03*
X89916000Y-66640200D03*
X89916000Y-66140200D03*
X89916000Y-65640199D03*
X89916000Y-65140200D03*
D21*
X89216799Y-64440999D03*
X88716800Y-64440999D03*
X88216799Y-64440999D03*
X87716799Y-64440999D03*
X87216798Y-64440999D03*
X86716799Y-64440999D03*
%TD*%
D22*
%TO.C,R4*%
X95479019Y-64202873D03*
X94902727Y-63626581D03*
%TD*%
D19*
%TO.C,R7*%
X97519765Y-70602835D03*
X96943473Y-71179127D03*
%TD*%
D23*
%TO.C,J4*%
X73130400Y-59857800D03*
D24*
X75290400Y-64937800D03*
D25*
X75290400Y-62397800D03*
X75290400Y-59857801D03*
X75290400Y-57317800D03*
%TD*%
D26*
%TO.C,C2*%
X86131400Y-72711500D03*
X86131400Y-73846500D03*
%TD*%
D27*
%TO.C,R1*%
X93716573Y-66683327D03*
X94531573Y-66683327D03*
%TD*%
D15*
%TO.C,R3*%
X95343273Y-67470727D03*
X95919565Y-68047019D03*
%TD*%
G36*
X114246439Y-54519685D02*
G01*
X114292194Y-54572489D01*
X114303400Y-54624000D01*
X114303400Y-77376000D01*
X114283715Y-77443039D01*
X114230911Y-77488794D01*
X114179400Y-77500000D01*
X101130209Y-77500000D01*
X101063170Y-77480315D01*
X101041403Y-77462542D01*
X90727927Y-66879297D01*
X90695237Y-66817547D01*
X90701120Y-66747925D01*
X90718771Y-66716732D01*
X92015112Y-65046283D01*
X92072626Y-63244169D01*
X92094439Y-63177791D01*
X92141739Y-63136902D01*
X109637720Y-54512778D01*
X109692544Y-54500000D01*
X114179400Y-54500000D01*
X114246439Y-54519685D01*
G37*
M02*
