%TF.GenerationSoftware,KiCad,Pcbnew,9.0.2*%
%TF.CreationDate,2026-03-31T23:58:29-05:00*%
%TF.ProjectId,board,626f6172-642e-46b6-9963-61645f706362,rev?*%
%TF.SameCoordinates,Original*%
%TF.FileFunction,Paste,Top*%
%TF.FilePolarity,Positive*%
%FSLAX46Y46*%
G04 Gerber Fmt 4.6, Leading zero omitted, Abs format (unit mm)*
G04 Created by KiCad (PCBNEW 9.0.2) date 2026-03-31 23:58:29*
%MOMM*%
%LPD*%
G01*
G04 APERTURE LIST*
G04 Aperture macros list*
%AMRoundRect*
0 Rectangle with rounded corners*
0 $1 Rounding radius*
0 $2 $3 $4 $5 $6 $7 $8 $9 X,Y pos of 4 corners*
0 Add a 4 corners polygon primitive as box body*
4,1,4,$2,$3,$4,$5,$6,$7,$8,$9,$2,$3,0*
0 Add four circle primitives for the rounded corners*
1,1,$1+$1,$2,$3*
1,1,$1+$1,$4,$5*
1,1,$1+$1,$6,$7*
1,1,$1+$1,$8,$9*
0 Add four rect primitives between the rounded corners*
20,1,$1+$1,$2,$3,$4,$5,0*
20,1,$1+$1,$4,$5,$6,$7,0*
20,1,$1+$1,$6,$7,$8,$9,0*
20,1,$1+$1,$8,$9,$2,$3,0*%
G04 Aperture macros list end*
%ADD10C,0.010000*%
%ADD11C,0.000000*%
%ADD12R,1.270000X0.723900*%
%ADD13RoundRect,0.140000X-0.140000X-0.170000X0.140000X-0.170000X0.140000X0.170000X-0.140000X0.170000X0*%
%ADD14RoundRect,0.090000X-0.161927X0.034648X0.034648X-0.161927X0.161927X-0.034648X-0.034648X0.161927X0*%
%ADD15RoundRect,0.090000X-0.034648X-0.161927X0.161927X0.034648X0.034648X0.161927X-0.161927X-0.034648X0*%
%ADD16RoundRect,0.090000X0.034648X0.161927X-0.161927X-0.034648X-0.034648X-0.161927X0.161927X0.034648X0*%
%ADD17R,0.711200X0.254000*%
%ADD18R,0.254000X0.711200*%
%ADD19RoundRect,0.090000X0.161927X-0.034648X-0.034648X0.161927X-0.161927X0.034648X0.034648X-0.161927X0*%
%ADD20RoundRect,0.155000X-0.155000X0.212500X-0.155000X-0.212500X0.155000X-0.212500X0.155000X0.212500X0*%
%ADD21RoundRect,0.090000X-0.139000X-0.090000X0.139000X-0.090000X0.139000X0.090000X-0.139000X0.090000X0*%
G04 APERTURE END LIST*
D10*
%TO.C,J3*%
X114020600Y-59023251D02*
X113004600Y-59023250D01*
X113004600Y-58750201D01*
X108889800Y-58750201D01*
X108889800Y-59023250D01*
X107873800Y-59023251D01*
X107873800Y-55575200D01*
X114020600Y-55575200D01*
X114020600Y-59023251D01*
G36*
X114020600Y-59023251D02*
G01*
X113004600Y-59023250D01*
X113004600Y-58750201D01*
X108889800Y-58750201D01*
X108889800Y-59023250D01*
X107873800Y-59023251D01*
X107873800Y-55575200D01*
X114020600Y-55575200D01*
X114020600Y-59023251D01*
G37*
X114020600Y-63703200D02*
X107873800Y-63703200D01*
X107873800Y-60255149D01*
X108889800Y-60255150D01*
X108889800Y-60528199D01*
X113004600Y-60528199D01*
X113004600Y-60255150D01*
X114020600Y-60255149D01*
X114020600Y-63703200D01*
G36*
X114020600Y-63703200D02*
G01*
X107873800Y-63703200D01*
X107873800Y-60255149D01*
X108889800Y-60255150D01*
X108889800Y-60528199D01*
X113004600Y-60528199D01*
X113004600Y-60255150D01*
X114020600Y-60255149D01*
X114020600Y-63703200D01*
G37*
%TO.C,J1*%
X113995200Y-70504052D02*
X112979200Y-70504051D01*
X112979200Y-70231002D01*
X108864400Y-70231002D01*
X108864400Y-70504051D01*
X107848400Y-70504052D01*
X107848400Y-67056001D01*
X113995200Y-67056001D01*
X113995200Y-70504052D01*
G36*
X113995200Y-70504052D02*
G01*
X112979200Y-70504051D01*
X112979200Y-70231002D01*
X108864400Y-70231002D01*
X108864400Y-70504051D01*
X107848400Y-70504052D01*
X107848400Y-67056001D01*
X113995200Y-67056001D01*
X113995200Y-70504052D01*
G37*
X113995200Y-75184001D02*
X107848400Y-75184001D01*
X107848400Y-71735950D01*
X108864400Y-71735951D01*
X108864400Y-72009000D01*
X112979200Y-72009000D01*
X112979200Y-71735951D01*
X113995200Y-71735950D01*
X113995200Y-75184001D01*
G36*
X113995200Y-75184001D02*
G01*
X107848400Y-75184001D01*
X107848400Y-71735950D01*
X108864400Y-71735951D01*
X108864400Y-72009000D01*
X112979200Y-72009000D01*
X112979200Y-71735951D01*
X113995200Y-71735950D01*
X113995200Y-75184001D01*
G37*
D11*
%TO.C,U1*%
G36*
X89439999Y-67863400D02*
G01*
X86493599Y-67863400D01*
X86493599Y-64917000D01*
X89439999Y-64917000D01*
X89439999Y-67863400D01*
G37*
%TD*%
D12*
%TO.C,J3*%
X113385600Y-59639200D03*
%TD*%
D13*
%TO.C,C1*%
X89969400Y-70002400D03*
X90929400Y-70002400D03*
%TD*%
D14*
%TO.C,R5*%
X96612249Y-62211903D03*
X97223897Y-62823551D03*
%TD*%
%TO.C,R8*%
X96764649Y-68841303D03*
X97376297Y-69452951D03*
%TD*%
D15*
%TO.C,R9*%
X96612249Y-64601551D03*
X97223897Y-63989903D03*
%TD*%
D12*
%TO.C,J1*%
X113360200Y-71120001D03*
%TD*%
D16*
%TO.C,R6*%
X95674497Y-69171503D03*
X95062849Y-69783151D03*
%TD*%
D15*
%TO.C,R2*%
X95266049Y-65973151D03*
X95877697Y-65361503D03*
%TD*%
D17*
%TO.C,U1*%
X86017598Y-65140200D03*
X86017598Y-65640199D03*
X86017598Y-66140200D03*
X86017598Y-66640200D03*
X86017598Y-67140201D03*
X86017598Y-67640200D03*
D18*
X86716799Y-68339401D03*
X87216798Y-68339401D03*
X87716799Y-68339401D03*
X88216799Y-68339401D03*
X88716800Y-68339401D03*
X89216799Y-68339401D03*
D17*
X89916000Y-67640200D03*
X89916000Y-67140201D03*
X89916000Y-66640200D03*
X89916000Y-66140200D03*
X89916000Y-65640199D03*
X89916000Y-65140200D03*
D18*
X89216799Y-64440999D03*
X88716800Y-64440999D03*
X88216799Y-64440999D03*
X87716799Y-64440999D03*
X87216798Y-64440999D03*
X86716799Y-64440999D03*
%TD*%
D19*
%TO.C,R4*%
X95496697Y-64220551D03*
X94885049Y-63608903D03*
%TD*%
D16*
%TO.C,R7*%
X97537443Y-70585157D03*
X96925795Y-71196805D03*
%TD*%
D20*
%TO.C,C2*%
X86131400Y-72711500D03*
X86131400Y-73846500D03*
%TD*%
D21*
%TO.C,R1*%
X93691573Y-66683327D03*
X94556573Y-66683327D03*
%TD*%
D14*
%TO.C,R3*%
X95325595Y-67453049D03*
X95937243Y-68064697D03*
%TD*%
M02*
