%TF.GenerationSoftware,KiCad,Pcbnew,9.0.2*%
%TF.CreationDate,2026-03-31T23:58:29-05:00*%
%TF.ProjectId,board,626f6172-642e-46b6-9963-61645f706362,rev?*%
%TF.SameCoordinates,Original*%
%TF.FileFunction,Soldermask,Bot*%
%TF.FilePolarity,Negative*%
%FSLAX46Y46*%
G04 Gerber Fmt 4.6, Leading zero omitted, Abs format (unit mm)*
G04 Created by KiCad (PCBNEW 9.0.2) date 2026-03-31 23:58:29*
%MOMM*%
%LPD*%
G01*
G04 APERTURE LIST*
%ADD10C,0.010000*%
%ADD11C,0.861200*%
%ADD12R,1.905000X2.000000*%
%ADD13O,1.905000X2.000000*%
%ADD14C,1.100000*%
%ADD15R,2.030000X1.730000*%
%ADD16O,2.030000X1.730000*%
G04 APERTURE END LIST*
D10*
%TO.C,J3*%
X114020600Y-63703200D02*
X107873800Y-63703200D01*
X107873800Y-55575200D01*
X114020600Y-55575200D01*
X114020600Y-63703200D01*
G36*
X114020600Y-63703200D02*
G01*
X107873800Y-63703200D01*
X107873800Y-55575200D01*
X114020600Y-55575200D01*
X114020600Y-63703200D01*
G37*
%TO.C,J1*%
X113995200Y-75184001D02*
X107848400Y-75184001D01*
X107848400Y-67056001D01*
X113995200Y-67056001D01*
X113995200Y-75184001D01*
G36*
X113995200Y-75184001D02*
G01*
X107848400Y-75184001D01*
X107848400Y-67056001D01*
X113995200Y-67056001D01*
X113995200Y-75184001D01*
G37*
%TD*%
D11*
%TO.C,J3*%
X113385600Y-58572400D03*
X110845600Y-58369199D03*
X109575600Y-58369200D03*
X108305600Y-58572400D03*
X108305600Y-60706000D03*
X109575600Y-60909200D03*
X110845600Y-60909201D03*
X112115600Y-60909200D03*
X113385600Y-60706000D03*
%TD*%
%TO.C,J1*%
X113360200Y-70053201D03*
X110820200Y-69850000D03*
X109550200Y-69850001D03*
X108280200Y-70053201D03*
X108280200Y-72186801D03*
X109550200Y-72390001D03*
X110820200Y-72390002D03*
X112090200Y-72390001D03*
X113360200Y-72186801D03*
%TD*%
D12*
%TO.C,U2*%
X77089000Y-71536600D03*
D13*
X79629000Y-71536600D03*
X82169000Y-71536600D03*
%TD*%
D14*
%TO.C,J4*%
X73130400Y-59857800D03*
D15*
X75290400Y-64937800D03*
D16*
X75290400Y-62397800D03*
X75290400Y-59857801D03*
X75290400Y-57317800D03*
%TD*%
M02*
