%TF.GenerationSoftware,KiCad,Pcbnew,9.0.2*%
%TF.CreationDate,2026-03-31T23:58:29-05:00*%
%TF.ProjectId,board,626f6172-642e-46b6-9963-61645f706362,rev?*%
%TF.SameCoordinates,Original*%
%TF.FileFunction,Legend,Top*%
%TF.FilePolarity,Positive*%
%FSLAX46Y46*%
G04 Gerber Fmt 4.6, Leading zero omitted, Abs format (unit mm)*
G04 Created by KiCad (PCBNEW 9.0.2) date 2026-03-31 23:58:29*
%MOMM*%
%LPD*%
G01*
G04 APERTURE LIST*
%ADD10C,0.150000*%
%ADD11C,0.120000*%
%ADD12C,0.152400*%
%ADD13C,0.000000*%
G04 APERTURE END LIST*
D10*
X106037019Y-59147533D02*
X106751304Y-59147533D01*
X106751304Y-59147533D02*
X106894161Y-59195152D01*
X106894161Y-59195152D02*
X106989400Y-59290390D01*
X106989400Y-59290390D02*
X107037019Y-59433247D01*
X107037019Y-59433247D02*
X107037019Y-59528485D01*
X106037019Y-58766580D02*
X106037019Y-58147533D01*
X106037019Y-58147533D02*
X106417971Y-58480866D01*
X106417971Y-58480866D02*
X106417971Y-58338009D01*
X106417971Y-58338009D02*
X106465590Y-58242771D01*
X106465590Y-58242771D02*
X106513209Y-58195152D01*
X106513209Y-58195152D02*
X106608447Y-58147533D01*
X106608447Y-58147533D02*
X106846542Y-58147533D01*
X106846542Y-58147533D02*
X106941780Y-58195152D01*
X106941780Y-58195152D02*
X106989400Y-58242771D01*
X106989400Y-58242771D02*
X107037019Y-58338009D01*
X107037019Y-58338009D02*
X107037019Y-58623723D01*
X107037019Y-58623723D02*
X106989400Y-58718961D01*
X106989400Y-58718961D02*
X106941780Y-58766580D01*
X90282733Y-69201980D02*
X90235114Y-69249600D01*
X90235114Y-69249600D02*
X90092257Y-69297219D01*
X90092257Y-69297219D02*
X89997019Y-69297219D01*
X89997019Y-69297219D02*
X89854162Y-69249600D01*
X89854162Y-69249600D02*
X89758924Y-69154361D01*
X89758924Y-69154361D02*
X89711305Y-69059123D01*
X89711305Y-69059123D02*
X89663686Y-68868647D01*
X89663686Y-68868647D02*
X89663686Y-68725790D01*
X89663686Y-68725790D02*
X89711305Y-68535314D01*
X89711305Y-68535314D02*
X89758924Y-68440076D01*
X89758924Y-68440076D02*
X89854162Y-68344838D01*
X89854162Y-68344838D02*
X89997019Y-68297219D01*
X89997019Y-68297219D02*
X90092257Y-68297219D01*
X90092257Y-68297219D02*
X90235114Y-68344838D01*
X90235114Y-68344838D02*
X90282733Y-68392457D01*
X91235114Y-69297219D02*
X90663686Y-69297219D01*
X90949400Y-69297219D02*
X90949400Y-68297219D01*
X90949400Y-68297219D02*
X90854162Y-68440076D01*
X90854162Y-68440076D02*
X90758924Y-68535314D01*
X90758924Y-68535314D02*
X90663686Y-68582933D01*
X97221078Y-61979019D02*
X97322093Y-61406600D01*
X96817017Y-61574958D02*
X97524124Y-60867852D01*
X97524124Y-60867852D02*
X97793498Y-61137226D01*
X97793498Y-61137226D02*
X97827170Y-61238241D01*
X97827170Y-61238241D02*
X97827170Y-61305584D01*
X97827170Y-61305584D02*
X97793498Y-61406600D01*
X97793498Y-61406600D02*
X97692483Y-61507615D01*
X97692483Y-61507615D02*
X97591467Y-61541287D01*
X97591467Y-61541287D02*
X97524124Y-61541287D01*
X97524124Y-61541287D02*
X97423109Y-61507615D01*
X97423109Y-61507615D02*
X97153735Y-61238241D01*
X98567948Y-61911676D02*
X98231231Y-61574958D01*
X98231231Y-61574958D02*
X97860841Y-61878004D01*
X97860841Y-61878004D02*
X97928185Y-61878004D01*
X97928185Y-61878004D02*
X98029200Y-61911676D01*
X98029200Y-61911676D02*
X98197559Y-62080035D01*
X98197559Y-62080035D02*
X98231231Y-62181050D01*
X98231231Y-62181050D02*
X98231231Y-62248393D01*
X98231231Y-62248393D02*
X98197559Y-62349409D01*
X98197559Y-62349409D02*
X98029200Y-62517767D01*
X98029200Y-62517767D02*
X97928185Y-62551439D01*
X97928185Y-62551439D02*
X97860841Y-62551439D01*
X97860841Y-62551439D02*
X97759826Y-62517767D01*
X97759826Y-62517767D02*
X97591467Y-62349409D01*
X97591467Y-62349409D02*
X97557796Y-62248393D01*
X97557796Y-62248393D02*
X97557796Y-62181050D01*
X97373478Y-68608419D02*
X97474493Y-68036000D01*
X96969417Y-68204358D02*
X97676524Y-67497252D01*
X97676524Y-67497252D02*
X97945898Y-67766626D01*
X97945898Y-67766626D02*
X97979570Y-67867641D01*
X97979570Y-67867641D02*
X97979570Y-67934984D01*
X97979570Y-67934984D02*
X97945898Y-68036000D01*
X97945898Y-68036000D02*
X97844883Y-68137015D01*
X97844883Y-68137015D02*
X97743867Y-68170687D01*
X97743867Y-68170687D02*
X97676524Y-68170687D01*
X97676524Y-68170687D02*
X97575509Y-68137015D01*
X97575509Y-68137015D02*
X97306135Y-67867641D01*
X98181600Y-68608419D02*
X98147928Y-68507404D01*
X98147928Y-68507404D02*
X98147928Y-68440061D01*
X98147928Y-68440061D02*
X98181600Y-68339045D01*
X98181600Y-68339045D02*
X98215272Y-68305374D01*
X98215272Y-68305374D02*
X98316287Y-68271702D01*
X98316287Y-68271702D02*
X98383631Y-68271702D01*
X98383631Y-68271702D02*
X98484646Y-68305374D01*
X98484646Y-68305374D02*
X98619333Y-68440061D01*
X98619333Y-68440061D02*
X98653005Y-68541076D01*
X98653005Y-68541076D02*
X98653005Y-68608419D01*
X98653005Y-68608419D02*
X98619333Y-68709435D01*
X98619333Y-68709435D02*
X98585661Y-68743106D01*
X98585661Y-68743106D02*
X98484646Y-68776778D01*
X98484646Y-68776778D02*
X98417302Y-68776778D01*
X98417302Y-68776778D02*
X98316287Y-68743106D01*
X98316287Y-68743106D02*
X98181600Y-68608419D01*
X98181600Y-68608419D02*
X98080585Y-68574748D01*
X98080585Y-68574748D02*
X98013241Y-68574748D01*
X98013241Y-68574748D02*
X97912226Y-68608419D01*
X97912226Y-68608419D02*
X97777539Y-68743106D01*
X97777539Y-68743106D02*
X97743867Y-68844122D01*
X97743867Y-68844122D02*
X97743867Y-68911465D01*
X97743867Y-68911465D02*
X97777539Y-69012480D01*
X97777539Y-69012480D02*
X97912226Y-69147167D01*
X97912226Y-69147167D02*
X98013241Y-69180839D01*
X98013241Y-69180839D02*
X98080585Y-69180839D01*
X98080585Y-69180839D02*
X98181600Y-69147167D01*
X98181600Y-69147167D02*
X98316287Y-69012480D01*
X98316287Y-69012480D02*
X98349959Y-68911465D01*
X98349959Y-68911465D02*
X98349959Y-68844122D01*
X98349959Y-68844122D02*
X98316287Y-68743106D01*
X96379365Y-63992721D02*
X95806946Y-63891706D01*
X95975304Y-64396782D02*
X95268198Y-63689675D01*
X95268198Y-63689675D02*
X95537572Y-63420301D01*
X95537572Y-63420301D02*
X95638587Y-63386629D01*
X95638587Y-63386629D02*
X95705930Y-63386629D01*
X95705930Y-63386629D02*
X95806946Y-63420301D01*
X95806946Y-63420301D02*
X95907961Y-63521316D01*
X95907961Y-63521316D02*
X95941633Y-63622332D01*
X95941633Y-63622332D02*
X95941633Y-63689675D01*
X95941633Y-63689675D02*
X95907961Y-63790690D01*
X95907961Y-63790690D02*
X95638587Y-64060064D01*
X96716083Y-63656003D02*
X96850770Y-63521316D01*
X96850770Y-63521316D02*
X96884442Y-63420301D01*
X96884442Y-63420301D02*
X96884442Y-63352958D01*
X96884442Y-63352958D02*
X96850770Y-63184599D01*
X96850770Y-63184599D02*
X96749755Y-63016240D01*
X96749755Y-63016240D02*
X96480381Y-62746866D01*
X96480381Y-62746866D02*
X96379365Y-62713194D01*
X96379365Y-62713194D02*
X96312022Y-62713194D01*
X96312022Y-62713194D02*
X96211007Y-62746866D01*
X96211007Y-62746866D02*
X96076320Y-62881553D01*
X96076320Y-62881553D02*
X96042648Y-62982568D01*
X96042648Y-62982568D02*
X96042648Y-63049912D01*
X96042648Y-63049912D02*
X96076320Y-63150927D01*
X96076320Y-63150927D02*
X96244678Y-63319286D01*
X96244678Y-63319286D02*
X96345694Y-63352958D01*
X96345694Y-63352958D02*
X96413037Y-63352958D01*
X96413037Y-63352958D02*
X96514052Y-63319286D01*
X96514052Y-63319286D02*
X96648739Y-63184599D01*
X96648739Y-63184599D02*
X96682411Y-63083584D01*
X96682411Y-63083584D02*
X96682411Y-63016240D01*
X96682411Y-63016240D02*
X96648739Y-62915225D01*
X106011619Y-70628334D02*
X106725904Y-70628334D01*
X106725904Y-70628334D02*
X106868761Y-70675953D01*
X106868761Y-70675953D02*
X106964000Y-70771191D01*
X106964000Y-70771191D02*
X107011619Y-70914048D01*
X107011619Y-70914048D02*
X107011619Y-71009286D01*
X107011619Y-69628334D02*
X107011619Y-70199762D01*
X107011619Y-69914048D02*
X106011619Y-69914048D01*
X106011619Y-69914048D02*
X106154476Y-70009286D01*
X106154476Y-70009286D02*
X106249714Y-70104524D01*
X106249714Y-70104524D02*
X106297333Y-70199762D01*
X78867095Y-66891419D02*
X78867095Y-67700942D01*
X78867095Y-67700942D02*
X78914714Y-67796180D01*
X78914714Y-67796180D02*
X78962333Y-67843800D01*
X78962333Y-67843800D02*
X79057571Y-67891419D01*
X79057571Y-67891419D02*
X79248047Y-67891419D01*
X79248047Y-67891419D02*
X79343285Y-67843800D01*
X79343285Y-67843800D02*
X79390904Y-67796180D01*
X79390904Y-67796180D02*
X79438523Y-67700942D01*
X79438523Y-67700942D02*
X79438523Y-66891419D01*
X79867095Y-66986657D02*
X79914714Y-66939038D01*
X79914714Y-66939038D02*
X80009952Y-66891419D01*
X80009952Y-66891419D02*
X80248047Y-66891419D01*
X80248047Y-66891419D02*
X80343285Y-66939038D01*
X80343285Y-66939038D02*
X80390904Y-66986657D01*
X80390904Y-66986657D02*
X80438523Y-67081895D01*
X80438523Y-67081895D02*
X80438523Y-67177133D01*
X80438523Y-67177133D02*
X80390904Y-67319990D01*
X80390904Y-67319990D02*
X79819476Y-67891419D01*
X79819476Y-67891419D02*
X80438523Y-67891419D01*
X96314889Y-70659245D02*
X95742470Y-70558230D01*
X95910828Y-71063306D02*
X95203722Y-70356199D01*
X95203722Y-70356199D02*
X95473096Y-70086825D01*
X95473096Y-70086825D02*
X95574111Y-70053153D01*
X95574111Y-70053153D02*
X95641454Y-70053153D01*
X95641454Y-70053153D02*
X95742470Y-70086825D01*
X95742470Y-70086825D02*
X95843485Y-70187840D01*
X95843485Y-70187840D02*
X95877157Y-70288856D01*
X95877157Y-70288856D02*
X95877157Y-70356199D01*
X95877157Y-70356199D02*
X95843485Y-70457214D01*
X95843485Y-70457214D02*
X95574111Y-70726588D01*
X96213874Y-69346047D02*
X96079187Y-69480734D01*
X96079187Y-69480734D02*
X96045515Y-69581749D01*
X96045515Y-69581749D02*
X96045515Y-69649092D01*
X96045515Y-69649092D02*
X96079187Y-69817451D01*
X96079187Y-69817451D02*
X96180202Y-69985810D01*
X96180202Y-69985810D02*
X96449576Y-70255184D01*
X96449576Y-70255184D02*
X96550592Y-70288856D01*
X96550592Y-70288856D02*
X96617935Y-70288856D01*
X96617935Y-70288856D02*
X96718950Y-70255184D01*
X96718950Y-70255184D02*
X96853637Y-70120497D01*
X96853637Y-70120497D02*
X96887309Y-70019482D01*
X96887309Y-70019482D02*
X96887309Y-69952138D01*
X96887309Y-69952138D02*
X96853637Y-69851123D01*
X96853637Y-69851123D02*
X96685279Y-69682764D01*
X96685279Y-69682764D02*
X96584263Y-69649092D01*
X96584263Y-69649092D02*
X96516920Y-69649092D01*
X96516920Y-69649092D02*
X96415905Y-69682764D01*
X96415905Y-69682764D02*
X96281218Y-69817451D01*
X96281218Y-69817451D02*
X96247546Y-69918466D01*
X96247546Y-69918466D02*
X96247546Y-69985810D01*
X96247546Y-69985810D02*
X96281218Y-70086825D01*
X95033165Y-65364321D02*
X94460746Y-65263306D01*
X94629104Y-65768382D02*
X93921998Y-65061275D01*
X93921998Y-65061275D02*
X94191372Y-64791901D01*
X94191372Y-64791901D02*
X94292387Y-64758229D01*
X94292387Y-64758229D02*
X94359730Y-64758229D01*
X94359730Y-64758229D02*
X94460746Y-64791901D01*
X94460746Y-64791901D02*
X94561761Y-64892916D01*
X94561761Y-64892916D02*
X94595433Y-64993932D01*
X94595433Y-64993932D02*
X94595433Y-65061275D01*
X94595433Y-65061275D02*
X94561761Y-65162290D01*
X94561761Y-65162290D02*
X94292387Y-65431664D01*
X94662776Y-64455184D02*
X94662776Y-64387840D01*
X94662776Y-64387840D02*
X94696448Y-64286825D01*
X94696448Y-64286825D02*
X94864807Y-64118466D01*
X94864807Y-64118466D02*
X94965822Y-64084794D01*
X94965822Y-64084794D02*
X95033165Y-64084794D01*
X95033165Y-64084794D02*
X95134181Y-64118466D01*
X95134181Y-64118466D02*
X95201524Y-64185810D01*
X95201524Y-64185810D02*
X95268868Y-64320497D01*
X95268868Y-64320497D02*
X95268868Y-65128619D01*
X95268868Y-65128619D02*
X95706600Y-64690886D01*
X87204894Y-65845019D02*
X87204894Y-66654542D01*
X87204894Y-66654542D02*
X87252513Y-66749780D01*
X87252513Y-66749780D02*
X87300132Y-66797400D01*
X87300132Y-66797400D02*
X87395370Y-66845019D01*
X87395370Y-66845019D02*
X87585846Y-66845019D01*
X87585846Y-66845019D02*
X87681084Y-66797400D01*
X87681084Y-66797400D02*
X87728703Y-66749780D01*
X87728703Y-66749780D02*
X87776322Y-66654542D01*
X87776322Y-66654542D02*
X87776322Y-65845019D01*
X88776322Y-66845019D02*
X88204894Y-66845019D01*
X88490608Y-66845019D02*
X88490608Y-65845019D01*
X88490608Y-65845019D02*
X88395370Y-65987876D01*
X88395370Y-65987876D02*
X88300132Y-66083114D01*
X88300132Y-66083114D02*
X88204894Y-66130733D01*
X85026999Y-64595019D02*
X85026999Y-64833114D01*
X84788904Y-64737876D02*
X85026999Y-64833114D01*
X85026999Y-64833114D02*
X85265094Y-64737876D01*
X84884142Y-65023590D02*
X85026999Y-64833114D01*
X85026999Y-64833114D02*
X85169856Y-65023590D01*
X85026999Y-64595019D02*
X85026999Y-64833114D01*
X84788904Y-64737876D02*
X85026999Y-64833114D01*
X85026999Y-64833114D02*
X85265094Y-64737876D01*
X84884142Y-65023590D02*
X85026999Y-64833114D01*
X85026999Y-64833114D02*
X85169856Y-65023590D01*
X94008954Y-64860943D02*
X94109969Y-64288524D01*
X93604893Y-64456882D02*
X94312000Y-63749776D01*
X94312000Y-63749776D02*
X94581374Y-64019150D01*
X94581374Y-64019150D02*
X94615046Y-64120165D01*
X94615046Y-64120165D02*
X94615046Y-64187508D01*
X94615046Y-64187508D02*
X94581374Y-64288524D01*
X94581374Y-64288524D02*
X94480359Y-64389539D01*
X94480359Y-64389539D02*
X94379343Y-64423211D01*
X94379343Y-64423211D02*
X94312000Y-64423211D01*
X94312000Y-64423211D02*
X94210985Y-64389539D01*
X94210985Y-64389539D02*
X93941611Y-64120165D01*
X95086450Y-64995630D02*
X94615046Y-65467035D01*
X95187465Y-64557898D02*
X94514030Y-64894615D01*
X94514030Y-64894615D02*
X94951763Y-65332348D01*
X98177835Y-72072899D02*
X97605416Y-71971884D01*
X97773774Y-72476960D02*
X97066668Y-71769853D01*
X97066668Y-71769853D02*
X97336042Y-71500479D01*
X97336042Y-71500479D02*
X97437057Y-71466807D01*
X97437057Y-71466807D02*
X97504400Y-71466807D01*
X97504400Y-71466807D02*
X97605416Y-71500479D01*
X97605416Y-71500479D02*
X97706431Y-71601494D01*
X97706431Y-71601494D02*
X97740103Y-71702510D01*
X97740103Y-71702510D02*
X97740103Y-71769853D01*
X97740103Y-71769853D02*
X97706431Y-71870868D01*
X97706431Y-71870868D02*
X97437057Y-72140242D01*
X97706431Y-71130090D02*
X98177835Y-70658685D01*
X98177835Y-70658685D02*
X98581896Y-71668838D01*
X71195219Y-61271133D02*
X71909504Y-61271133D01*
X71909504Y-61271133D02*
X72052361Y-61318752D01*
X72052361Y-61318752D02*
X72147600Y-61413990D01*
X72147600Y-61413990D02*
X72195219Y-61556847D01*
X72195219Y-61556847D02*
X72195219Y-61652085D01*
X71528552Y-60366371D02*
X72195219Y-60366371D01*
X71147600Y-60604466D02*
X71861885Y-60842561D01*
X71861885Y-60842561D02*
X71861885Y-60223514D01*
X87650980Y-73445666D02*
X87698600Y-73493285D01*
X87698600Y-73493285D02*
X87746219Y-73636142D01*
X87746219Y-73636142D02*
X87746219Y-73731380D01*
X87746219Y-73731380D02*
X87698600Y-73874237D01*
X87698600Y-73874237D02*
X87603361Y-73969475D01*
X87603361Y-73969475D02*
X87508123Y-74017094D01*
X87508123Y-74017094D02*
X87317647Y-74064713D01*
X87317647Y-74064713D02*
X87174790Y-74064713D01*
X87174790Y-74064713D02*
X86984314Y-74017094D01*
X86984314Y-74017094D02*
X86889076Y-73969475D01*
X86889076Y-73969475D02*
X86793838Y-73874237D01*
X86793838Y-73874237D02*
X86746219Y-73731380D01*
X86746219Y-73731380D02*
X86746219Y-73636142D01*
X86746219Y-73636142D02*
X86793838Y-73493285D01*
X86793838Y-73493285D02*
X86841457Y-73445666D01*
X86841457Y-73064713D02*
X86793838Y-73017094D01*
X86793838Y-73017094D02*
X86746219Y-72921856D01*
X86746219Y-72921856D02*
X86746219Y-72683761D01*
X86746219Y-72683761D02*
X86793838Y-72588523D01*
X86793838Y-72588523D02*
X86841457Y-72540904D01*
X86841457Y-72540904D02*
X86936695Y-72493285D01*
X86936695Y-72493285D02*
X87031933Y-72493285D01*
X87031933Y-72493285D02*
X87174790Y-72540904D01*
X87174790Y-72540904D02*
X87746219Y-73112332D01*
X87746219Y-73112332D02*
X87746219Y-72493285D01*
X93957406Y-66088146D02*
X93624073Y-65611955D01*
X93385978Y-66088146D02*
X93385978Y-65088146D01*
X93385978Y-65088146D02*
X93766930Y-65088146D01*
X93766930Y-65088146D02*
X93862168Y-65135765D01*
X93862168Y-65135765D02*
X93909787Y-65183384D01*
X93909787Y-65183384D02*
X93957406Y-65278622D01*
X93957406Y-65278622D02*
X93957406Y-65421479D01*
X93957406Y-65421479D02*
X93909787Y-65516717D01*
X93909787Y-65516717D02*
X93862168Y-65564336D01*
X93862168Y-65564336D02*
X93766930Y-65611955D01*
X93766930Y-65611955D02*
X93385978Y-65611955D01*
X94909787Y-66088146D02*
X94338359Y-66088146D01*
X94624073Y-66088146D02*
X94624073Y-65088146D01*
X94624073Y-65088146D02*
X94528835Y-65231003D01*
X94528835Y-65231003D02*
X94433597Y-65326241D01*
X94433597Y-65326241D02*
X94338359Y-65373860D01*
X95934424Y-67220165D02*
X96035439Y-66647746D01*
X95530363Y-66816104D02*
X96237470Y-66108998D01*
X96237470Y-66108998D02*
X96506844Y-66378372D01*
X96506844Y-66378372D02*
X96540516Y-66479387D01*
X96540516Y-66479387D02*
X96540516Y-66546730D01*
X96540516Y-66546730D02*
X96506844Y-66647746D01*
X96506844Y-66647746D02*
X96405829Y-66748761D01*
X96405829Y-66748761D02*
X96304813Y-66782433D01*
X96304813Y-66782433D02*
X96237470Y-66782433D01*
X96237470Y-66782433D02*
X96136455Y-66748761D01*
X96136455Y-66748761D02*
X95867081Y-66479387D01*
X96877233Y-66748761D02*
X97314966Y-67186494D01*
X97314966Y-67186494D02*
X96809890Y-67220165D01*
X96809890Y-67220165D02*
X96910905Y-67321181D01*
X96910905Y-67321181D02*
X96944577Y-67422196D01*
X96944577Y-67422196D02*
X96944577Y-67489539D01*
X96944577Y-67489539D02*
X96910905Y-67590555D01*
X96910905Y-67590555D02*
X96742546Y-67758913D01*
X96742546Y-67758913D02*
X96641531Y-67792585D01*
X96641531Y-67792585D02*
X96574187Y-67792585D01*
X96574187Y-67792585D02*
X96473172Y-67758913D01*
X96473172Y-67758913D02*
X96271142Y-67556883D01*
X96271142Y-67556883D02*
X96237470Y-67455868D01*
X96237470Y-67455868D02*
X96237470Y-67388524D01*
D11*
%TO.C,C1*%
X90341564Y-69642400D02*
X90557236Y-69642400D01*
X90341564Y-70362400D02*
X90557236Y-70362400D01*
%TO.C,U2*%
X74519000Y-68276600D02*
X74519000Y-72896600D01*
X74519000Y-68276600D02*
X84739000Y-68276600D01*
X74519000Y-69656600D02*
X84739000Y-69656600D01*
X74519000Y-72896600D02*
X84739000Y-72896600D01*
X77779000Y-68276600D02*
X77779000Y-69656600D01*
X81479000Y-68276600D02*
X81479000Y-69656600D01*
X84739000Y-68276600D02*
X84739000Y-72896600D01*
D12*
%TO.C,U1*%
X85839799Y-64263200D02*
X85839799Y-64680460D01*
X85839799Y-68099940D02*
X85839799Y-68517200D01*
X85839799Y-68517200D02*
X86257059Y-68517200D01*
X86257059Y-64263200D02*
X85839799Y-64263200D01*
X89676539Y-68517200D02*
X90093799Y-68517200D01*
X90093799Y-64263200D02*
X89676539Y-64263200D01*
X90093799Y-64680460D02*
X90093799Y-64263200D01*
X90093799Y-68517200D02*
X90093799Y-68099940D01*
D13*
G36*
X88407299Y-69203001D02*
G01*
X88026298Y-69203001D01*
X88026298Y-68949001D01*
X88407299Y-68949001D01*
X88407299Y-69203001D01*
G37*
G36*
X88907300Y-63831399D02*
G01*
X88526300Y-63831399D01*
X88526300Y-63577399D01*
X88907300Y-63577399D01*
X88907300Y-63831399D01*
G37*
D11*
%TO.C,J4*%
X72690400Y-66287800D02*
X72690400Y-60537800D01*
X72740400Y-55987800D02*
X78690400Y-55987800D01*
X72740400Y-59187800D02*
X72740400Y-55987800D01*
X77580400Y-59857800D02*
X78590400Y-59857800D01*
X77580401Y-64937800D02*
X77580400Y-59857800D01*
X78590399Y-64937800D02*
X77580401Y-64937800D01*
X78690400Y-55987800D02*
X78690400Y-66287800D01*
X78690400Y-66287800D02*
X72690400Y-66287800D01*
%TO.C,C2*%
X85771400Y-73163165D02*
X85771400Y-73394835D01*
X86491400Y-73163165D02*
X86491400Y-73394835D01*
%TD*%
M02*
